<svg width="95" height="84" viewBox="0 0 95 84" fill="none" xmlns="http://www.w3.org/2000/svg">
<path d="M36.5199 0.772949C21.4776 0.772949 8.76799 12.0346 6.91787 26.9965L0 83.546H58.4801C73.5224 83.546 86.232 72.2844 88.0821 57.3225L95 0.772949H36.5199Z" fill="white"/>
<path d="M66.8201 40.1262L71.1037 33.3935C71.4723 33.5133 71.8605 33.5806 72.2581 33.5806C74.3217 33.5806 76 31.9024 76 29.8387C76 27.775 74.3217 26.0968 72.2581 26.0968C70.1944 26.0968 68.5161 27.775 68.5161 29.8387C68.5161 30.8088 68.8828 31.7162 69.5218 32.3963L65.1961 39.1935H53.1237L45.3264 27.065L50.3088 20.2145C50.7382 20.3847 51.1975 20.4839 51.6774 20.4839C53.7411 20.4839 55.4194 18.8056 55.4194 16.7419C55.4194 14.6783 53.7411 13 51.6774 13C49.6137 13 47.9355 14.6783 47.9355 16.7419C47.9355 17.626 48.2507 18.4688 48.7915 19.1209L43.7174 26.0968H34.7059C34.2877 24.4868 32.8358 23.2903 31.0968 23.2903C29.0331 23.2903 27.3548 24.9686 27.3548 27.0323C27.3548 27.9921 27.7169 28.8929 28.3511 29.573L24.3613 35.78C23.8262 35.5714 23.2593 35.4516 22.6774 35.4516C20.0983 35.4516 18 37.5499 18 40.129C18 42.7082 20.0983 44.8065 22.6774 44.8065C23.2602 44.8065 23.8281 44.6867 24.3622 44.479L29.9639 53.1931L24.9815 60.0436C24.5521 59.8734 24.0928 59.7742 23.6129 59.7742C21.5492 59.7742 19.871 61.4524 19.871 63.5161C19.871 65.5798 21.5492 67.2581 23.6129 67.2581C25.6766 67.2581 27.3548 65.5798 27.3548 63.5161C27.3548 62.6321 27.0396 61.7892 26.4989 61.1372L31.5729 54.1613H43.6828L50.4089 64.6237C50.0366 65.1083 49.8065 65.7005 49.8065 66.3226C49.8065 67.8699 51.0656 69.129 52.6129 69.129C53.8309 69.129 54.8599 68.3442 55.2472 67.2581H61.1267C61.5617 69.39 63.4505 71 65.7097 71C68.2888 71 70.3871 68.9017 70.3871 66.3226C70.3871 65.041 69.8642 63.8501 68.9689 62.982L75.2404 53.2258L66.8201 40.1262ZM72.2581 27.9677C73.2899 27.9677 74.129 28.8069 74.129 29.8387C74.129 30.8705 73.2899 31.7097 72.2581 31.7097C71.8951 31.7097 71.5508 31.6105 71.2515 31.415C70.7108 31.0726 70.3871 30.4833 70.3871 29.8387C70.3871 28.8069 71.2262 27.9677 72.2581 27.9677ZM51.6774 14.871C52.7093 14.871 53.5484 15.7101 53.5484 16.7419C53.5484 17.7738 52.7093 18.6129 51.6774 18.6129C51.2752 18.6129 50.9019 18.4904 50.5707 18.2425C50.0927 17.9029 49.8065 17.3425 49.8065 16.7419C49.8065 15.7101 50.6456 14.871 51.6774 14.871ZM34.7059 27.9677H43.6828L51.5006 40.129L43.6828 52.2903H31.6075L25.9366 43.4687C26.8328 42.5996 27.3548 41.4088 27.3548 40.129C27.3548 38.8474 26.8319 37.6565 25.9366 36.7884L29.9293 30.5768C30.3063 30.7031 30.6983 30.7742 31.0968 30.7742C32.8358 30.7742 34.2877 29.5777 34.7059 27.9677ZM31.0968 25.1613C32.1286 25.1613 32.9677 26.0004 32.9677 27.0323C32.9677 28.0641 32.1286 28.9032 31.0968 28.9032C30.7385 28.9032 30.3989 28.8022 30.0846 28.6011C29.5467 28.2577 29.2258 27.6721 29.2258 27.0323C29.2258 26.0004 30.0649 25.1613 31.0968 25.1613ZM19.871 40.129C19.871 38.5817 21.1301 37.3226 22.6774 37.3226C23.2153 37.3226 23.7383 37.4769 24.1938 37.7725C25.0012 38.2899 25.4839 39.1711 25.4839 40.129C25.4839 41.087 25.0012 41.9682 24.1882 42.4874C23.7383 42.7811 23.2153 42.9355 22.6774 42.9355C21.1301 42.9355 19.871 41.6763 19.871 40.129ZM23.6129 65.3871C22.5811 65.3871 21.7419 64.548 21.7419 63.5161C21.7419 62.4843 22.5811 61.6452 23.6129 61.6452C24.0152 61.6452 24.3884 61.7677 24.7196 62.0156C25.1976 62.3552 25.4839 62.9156 25.4839 63.5161C25.4839 64.548 24.6447 65.3871 23.6129 65.3871ZM52.6129 67.2581C52.0965 67.2581 51.6774 66.839 51.6774 66.3226C51.6774 66.0073 51.8411 65.708 52.1264 65.5255C52.263 65.4339 52.4267 65.3871 52.6129 65.3871C53.1293 65.3871 53.5484 65.8062 53.5484 66.3226C53.5484 66.839 53.1293 67.2581 52.6129 67.2581ZM61.1267 65.3871H55.2472C54.8599 64.301 53.8309 63.5161 52.6129 63.5161C52.3921 63.5161 52.1788 63.5479 51.9712 63.5956L45.3058 53.2258L53.1237 41.0645H65.1989L73.0167 53.2258L67.3935 61.9735C66.8585 61.7649 66.2915 61.6452 65.7097 61.6452C63.4514 61.6452 61.5617 63.2551 61.1267 65.3871ZM65.7097 69.129C64.1624 69.129 62.9032 67.8699 62.9032 66.3226C62.9032 64.7753 64.1624 63.5161 65.7097 63.5161C66.2476 63.5161 66.7705 63.6705 67.2261 63.9661C68.0334 64.4834 68.5161 65.3646 68.5161 66.3226C68.5161 67.8699 67.257 69.129 65.7097 69.129Z" fill="#909090"/>
<path d="M31.0968 35.4515H38.5807V37.3225H31.0968V35.4515Z" fill="#909090"/>
<path d="M40.4517 35.4515H44.1936V37.3225H40.4517V35.4515Z" fill="#909090"/>
<path d="M31.0968 39.1936H44.1936V41.0646H31.0968V39.1936Z" fill="#909090"/>
<path d="M42.3226 42.9355H44.1935V44.8065H42.3226V42.9355Z" fill="#909090"/>
<path d="M38.5806 42.9355H40.4516V44.8065H38.5806V42.9355Z" fill="#909090"/>
<path d="M31.0968 42.9355H36.7097V44.8065H31.0968V42.9355Z" fill="#909090"/>
<path d="M52.6129 48.5485H60.0968V50.4194H52.6129V48.5485Z" fill="#909090"/>
<path d="M61.9677 48.5485H65.7097V50.4194H61.9677V48.5485Z" fill="#909090"/>
<path d="M52.6129 52.2903H65.7097V54.1613H52.6129V52.2903Z" fill="#909090"/>
<path d="M63.8387 56.0322H65.7097V57.9032H63.8387V56.0322Z" fill="#909090"/>
<path d="M60.0968 56.0322H61.9677V57.9032H60.0968V56.0322Z" fill="#909090"/>
<path d="M52.6129 56.0322H58.2258V57.9032H52.6129V56.0322Z" fill="#909090"/>
</svg>
