<svg width="138" height="120" viewBox="0 0 138 120" fill="none" xmlns="http://www.w3.org/2000/svg">
<path fill-rule="evenodd" clip-rule="evenodd" d="M10.0215 37.9884C12.7017 16.3141 31.1132 0 52.9042 0H137.621L127.599 81.9199C124.919 103.594 106.507 119.908 84.7166 119.908H0L10.0215 37.9884ZM101.03 45.5629L105.225 51.2728C106.158 52.5546 106.041 54.4191 104.876 55.5843L59.0799 101.264C57.0989 103.245 54.5353 104.177 51.8551 103.944C49.175 103.711 46.7279 102.429 45.213 100.215L34.3758 85.0662C32.3948 82.386 31.5791 79.2397 31.9287 75.9769L37.5221 23.4223L45.6791 25.5199C47.8931 26.1025 49.408 28.2 49.175 30.5306L47.3105 47.6604C47.194 48.4761 47.6601 49.1753 48.3593 49.5248C49.175 49.8744 49.9907 49.7579 50.5733 49.1753L83.9006 15.9645L88.0956 21.6744C89.0279 22.9562 88.9113 24.8207 87.7461 25.986L63.1584 50.5736L63.9741 51.3893L98.0006 17.4794L102.196 23.1893C103.128 24.4711 103.011 26.3356 101.846 27.5009L101.03 28.3166L72.9469 56.4001L72.7138 56.6331L72.5973 56.7496C72.3642 56.9827 72.2477 57.2158 72.5973 57.5653C72.5973 57.5653 72.9469 57.9149 73.413 57.5653L101.147 29.948L105.342 35.6579C106.274 36.9397 106.158 38.8042 104.992 39.9695L101.263 43.6984L79.2394 65.7224L79.1229 65.8389L78.8898 66.072C78.6568 66.305 78.5403 66.5381 78.8898 66.8877C79.1229 67.2372 79.4725 67.1207 79.7056 66.8877L79.9386 66.6546L80.0551 66.5381L101.03 45.5629ZM61.294 66.4215C61.294 64.9067 60.0122 63.6248 58.4973 63.6248C56.9824 63.6248 55.7006 64.7901 55.7006 66.4215C55.7006 67.9364 56.9824 69.2182 58.4973 69.2182C60.0122 69.2182 61.294 67.9364 61.294 66.4215ZM52.7874 73.5298C52.7874 72.481 51.9717 71.6653 50.9229 71.6653C49.8741 71.6653 49.0584 72.481 49.0584 73.5298C49.0584 74.5786 49.8741 75.3943 50.9229 75.3943C51.9717 75.3943 52.7874 74.5786 52.7874 73.5298ZM40.5518 80.6381C40.5518 82.1529 41.8336 83.4348 43.3485 83.4348C44.8634 83.4348 46.0287 82.2695 46.1452 80.6381C46.1452 79.1232 44.8634 77.8414 43.3485 77.8414C41.8336 77.8414 40.5518 79.1232 40.5518 80.6381ZM46.0287 87.8629C46.0287 88.9116 46.8444 89.7273 47.8931 89.7273C48.9419 89.7273 49.8741 88.9116 49.7576 87.8629C49.7576 86.8141 48.9419 85.9984 47.8931 85.9984C46.8444 85.9984 46.0287 86.8141 46.0287 87.8629ZM49.7576 94.9711C49.7576 96.486 51.0394 97.7678 52.5543 97.7678C54.0692 97.7678 55.351 96.486 55.351 94.9711C55.351 93.4563 54.0692 92.1744 52.5543 92.1744C51.0394 92.1744 49.7576 93.4563 49.7576 94.9711ZM52.6708 80.6381C52.6708 82.1529 53.9526 83.4348 55.4675 83.4348C57.0989 83.4348 58.2642 82.2695 58.2642 80.6381C58.2642 79.1232 56.9824 77.8414 55.4675 77.8414C53.9526 77.8414 52.6708 79.1232 52.6708 80.6381ZM58.3807 87.8629C58.3807 88.7951 59.1965 89.6108 60.1287 89.6108C61.0609 89.6108 61.8766 88.7951 61.8766 87.8629C61.8766 86.9306 61.0609 86.1149 60.1287 86.1149C59.1965 86.1149 58.3807 86.9306 58.3807 87.8629ZM61.294 73.5298C61.294 74.5786 62.1097 75.3943 63.1584 75.3943C64.2072 75.3943 65.0229 74.5786 65.0229 73.5298C65.0229 72.481 64.2072 71.6653 63.1584 71.6653C62.1097 71.6653 61.294 72.481 61.294 73.5298ZM64.9064 80.6381C64.9064 82.1529 66.1882 83.4348 67.7031 83.4348C69.2179 83.4348 70.4998 82.2695 70.4998 80.6381C70.4998 79.1232 69.2179 77.8414 67.7031 77.8414C66.1882 77.8414 64.9064 79.1232 64.9064 80.6381Z" fill="white"/>
</svg>
