<svg width="138" height="120" viewBox="0 0 138 120" fill="none" xmlns="http://www.w3.org/2000/svg">
<path fill-rule="evenodd" clip-rule="evenodd" d="M10.0215 37.9884C12.7017 16.3141 31.1132 0 52.9042 0H137.621L127.599 81.9199C124.919 103.594 106.507 119.908 84.7166 119.908H0L10.0215 37.9884ZM108.722 76.443L108.838 77.7249L110.703 98.1174H93.2233L89.9605 82.386L87.863 94.9712C87.5134 96.8356 85.9985 98.1174 84.1341 98.1174H45.6795C43.815 98.1174 42.3002 96.7191 41.9506 94.9712L39.9696 82.386L36.5903 98.1174H19.1109L20.9754 77.7249L21.0919 76.443C21.2084 75.9769 21.2084 75.6273 21.2084 75.2778C21.2084 74.4621 21.2084 73.7629 21.0919 72.9472L20.6258 67.9364L19.344 53.0207C19.2274 52.5546 19.2274 52.0885 19.2274 51.6224V51.2728V50.9232V50.224C19.2274 49.2918 19.344 48.4761 19.577 47.5439C20.3927 43.9315 22.3737 40.6687 25.2869 38.3381C26.6853 37.1728 28.3167 36.2406 30.0646 35.6579C30.9969 35.3083 31.8126 35.0753 32.7448 34.9587C33.3663 34.881 33.8843 34.8034 34.4022 34.7257C34.6611 34.6868 34.92 34.648 35.1919 34.6091C38.4547 34.143 41.601 33.4439 44.6307 32.3951C46.1456 31.929 47.544 31.2298 48.9423 30.5306C50.2241 29.7149 51.506 28.7827 52.3217 27.7339C52.7878 27.1513 53.1374 26.5686 53.2539 25.986C53.2539 25.8112 53.283 25.6656 53.3122 25.5199C53.3413 25.3742 53.3704 25.2286 53.3704 25.0538V24.8207V24.4711V21.4414H76.4432V24.4711V24.8207V25.0538V25.0538C76.4432 25.4034 76.4432 25.6364 76.5597 25.986C76.7927 26.5686 77.0258 27.1513 77.4919 27.7339C78.3076 28.8992 79.5894 29.8315 80.8713 30.5306C82.1531 31.2298 83.668 31.929 85.1828 32.3951C88.2126 33.4439 91.3589 34.143 94.6217 34.6091C94.8935 34.648 95.1524 34.6868 95.4114 34.7257C95.9293 34.8034 96.4473 34.881 97.0688 34.9587C98.001 35.0753 98.9333 35.3083 99.749 35.6579C101.497 36.3571 103.128 37.1728 104.527 38.3381C107.44 40.6687 109.421 43.9315 110.237 47.5439C110.47 48.3596 110.586 49.2918 110.586 50.224V50.9232V51.2728V51.6224C110.47 52.0885 110.47 52.5546 110.47 53.0206V53.0207L109.188 67.9364L108.722 72.9472C108.605 73.7629 108.605 74.4621 108.605 75.2778C108.605 75.44 108.63 75.6022 108.657 75.7761C108.688 75.9769 108.722 76.1933 108.722 76.443ZM79.5894 48.3596C79.5894 46.7282 78.3076 45.4463 76.6762 45.4463C75.0448 45.4463 73.6465 46.7282 73.763 48.3596C73.763 49.991 75.0448 51.2728 76.6762 51.2728C78.3076 51.2728 79.5894 49.991 79.5894 48.3596ZM56.6332 41.4844C56.6332 39.853 55.3514 38.5711 53.72 38.5711C52.0886 38.5711 50.8068 39.853 50.8068 41.4844C50.8068 43.1158 52.0886 44.3976 53.72 44.3976C55.3514 44.3976 56.6332 43.1158 56.6332 41.4844ZM36.7068 57.9149C36.7068 59.5464 37.9886 60.8282 39.62 60.8282C41.2514 60.8282 42.5332 59.5464 42.5332 57.9149C42.5332 56.2835 41.2514 55.0017 39.62 55.0017C37.9886 55.0017 36.7068 56.2835 36.7068 57.9149ZM43.2324 66.1885C43.2324 67.2373 44.0481 68.1695 45.2134 68.1695C46.3787 68.1695 47.1944 67.2373 47.1944 66.1885C47.1944 65.1397 46.3787 64.2075 45.2134 64.2075C44.1646 64.2075 43.2324 65.0232 43.2324 66.1885ZM48.2432 49.8744C47.1944 49.8744 46.2622 50.6901 46.2622 51.8554C46.2622 53.0207 47.1944 53.8364 48.2432 53.8364C49.2919 53.8364 50.2241 53.0207 50.2241 51.8554C50.2241 50.8067 49.4084 49.8744 48.2432 49.8744ZM48.8258 75.1612C48.8258 76.7926 50.1076 78.0745 51.739 78.0745C53.3704 78.0745 54.6522 76.7926 54.6522 75.1612C54.6522 73.5298 53.3704 72.248 51.739 72.248C50.1076 72.248 48.8258 73.5298 48.8258 75.1612ZM51.739 59.7794C51.739 61.4108 53.0208 62.6926 54.6522 62.6926C56.2836 62.6926 57.5655 61.4108 57.5655 59.7794C57.5655 58.148 56.2836 56.8662 54.6522 56.8662C53.0208 56.8662 51.739 58.148 51.739 59.7794ZM56.7498 49.2918C56.7498 50.3406 57.5655 51.2728 58.7308 51.2728C59.7795 51.2728 60.7117 50.3406 60.7117 49.2918C60.7117 48.243 59.896 47.3108 58.7308 47.3108C57.682 47.3108 56.7498 48.1265 56.7498 49.2918ZM64.3242 83.4348L66.4217 83.6679V42.6496C66.4217 42.3001 65.9556 41.9505 65.4894 41.9505L63.3919 41.7174V82.7356C63.3919 83.0852 63.858 83.4348 64.3242 83.4348ZM70.8498 67.9364C70.8498 68.9852 71.6655 69.8009 72.7142 69.8009C73.763 69.8009 74.5787 68.9852 74.5787 67.9364C74.5787 66.8877 73.763 66.072 72.7142 66.072C71.6655 66.072 70.8498 66.8877 70.8498 67.9364ZM77.6084 77.1422C77.6084 78.191 78.4242 79.1232 79.5894 79.1232C80.7547 79.1232 81.5704 78.191 81.5704 77.1422C81.5704 76.0935 80.6382 75.1612 79.5894 75.1612C78.5407 75.1612 77.6084 75.9769 77.6084 77.1422ZM76.4432 59.7794C76.4432 61.4108 77.725 62.6926 79.3564 62.6926C80.9878 62.6926 82.3861 61.4108 82.2696 59.7794C82.2696 58.148 80.9878 56.8662 79.3564 56.8662C77.725 56.8662 76.4432 58.148 76.4432 59.7794ZM86.8142 66.1885C86.8142 67.2373 87.6299 68.1695 88.7952 68.1695C89.844 68.1695 90.7762 67.2373 90.7762 66.1885C90.7762 65.1397 89.9605 64.2075 88.7952 64.2075C87.7465 64.2075 86.8142 65.0232 86.8142 66.1885Z" fill="white"/>
</svg>
