<svg width="95" height="84" viewBox="0 0 95 84" fill="none" xmlns="http://www.w3.org/2000/svg">
<path d="M36.5199 0.545898C21.4776 0.545898 8.76799 11.8075 6.91787 26.7694L0 83.319H58.4801C73.5224 83.319 86.232 72.0573 88.0821 57.0954L95 0.545898H36.5199Z" fill="white"/>
<path d="M24.1945 43.5777L20 47.7722L26.2279 54.0001L30.4224 49.8055L35.0844 48.8094L25.1906 38.9156L24.1945 43.5777Z" fill="#909090"/>
<path d="M26.4379 35.4808L38.5193 47.5621L59.509 30.3889L43.6112 14.4912L26.4379 35.4808Z" fill="#909090"/>
<path d="M47.8645 8L46.5088 9.35576L45.4675 11.6652L62.3349 28.5326L64.6444 27.4913L66 26.1356L47.8645 8Z" fill="#909090"/>
<path d="M36.9205 67.7218L41.2934 66.7875L43.0922 66.4031L41.7915 65.1025L31.8977 55.2087L30.597 53.908L30.2127 55.7068L29.2784 60.0797L25.2929 64.0652L24.5858 64.7723L25.2929 65.4794L31.5208 71.7073L32.2279 72.4144L32.935 71.7073L36.9205 67.7218Z" fill="#909090" stroke="white" stroke-width="2"/>
<path d="M31.664 51.8476L31.0909 52.548L31.7308 53.1879L43.8122 65.2693L44.4521 65.9092L45.1525 65.3361L66.1422 48.1628L66.9974 47.4631L66.2161 46.6817L50.3183 30.7841L49.537 30.0028L48.8373 30.858L31.664 51.8476Z" fill="#909090" stroke="white" stroke-width="2"/>
<path d="M54.5716 24.2929L53.8645 23.5858L53.1574 24.2929L51.8017 25.6487L51.6724 25.778L51.5972 25.9447L50.5559 28.2542L50.2719 28.8839L50.7604 29.3723L67.6278 46.2397L68.1162 46.7282L68.7459 46.4442L71.0554 45.4029L71.2221 45.3277L71.3515 45.1984L72.7071 43.8427L73.4142 43.1356L72.7071 42.4285L54.5716 24.2929Z" fill="#909090" stroke="white" stroke-width="2"/>
</svg>
