<svg width="138" height="120" viewBox="0 0 138 120" fill="none" xmlns="http://www.w3.org/2000/svg">
<path fill-rule="evenodd" clip-rule="evenodd" d="M10.0215 37.9884C12.7017 16.3141 31.1132 0 52.9042 0H137.621L127.599 81.9199C124.919 103.594 106.507 119.908 84.7166 119.908H0L10.0215 37.9884ZM48.1002 16.314L24.7944 60.0124L24.7645 60.0721C23.5923 62.4161 21.4586 66.6822 26.5424 69.9173C31.6696 73.1801 41.4968 79.0454 45.7694 81.5702C48.1 83.3182 52.9942 87.5132 53.9265 90.3099C55.0918 93.8058 59.7529 102.545 63.2488 102.545H95.8769C97.0422 101.963 99.0232 100.215 97.6248 97.8843C97.4492 97.5915 97.2794 97.2987 97.1113 97.0089L97.1107 97.0078L97.1096 97.0059L97.1093 97.0054L97.109 97.0049L97.1087 97.0044C95.6058 94.4122 94.2407 92.0578 90.0505 92.0578H83.0587L66.7447 68.1694C64.9967 65.6446 61.967 58.9636 63.8314 52.438C65.6959 45.9124 72.7653 25.6363 76.067 16.314H48.1002ZM42.5326 72.2479C43.498 72.2479 44.2805 71.4653 44.2805 70.5C44.2805 69.5346 43.498 68.752 42.5326 68.752C41.5672 68.752 40.7847 69.5346 40.7847 70.5C40.7847 71.4653 41.5672 72.2479 42.5326 72.2479ZM60.5943 70.5C60.5943 71.4653 59.8117 72.2479 58.8463 72.2479C57.881 72.2479 57.0984 71.4653 57.0984 70.5C57.0984 69.5346 57.881 68.752 58.8463 68.752C59.8117 68.752 60.5943 69.5346 60.5943 70.5ZM58.8463 83.9008C59.8117 83.9008 60.5943 83.1183 60.5943 82.1529C60.5943 81.1875 59.8117 80.405 58.8463 80.405C57.881 80.405 57.0984 81.1875 57.0984 82.1529C57.0984 83.1183 57.881 83.9008 58.8463 83.9008ZM60.5948 62.9256C60.5948 64.2128 59.5514 65.2562 58.2642 65.2562C56.9771 65.2562 55.9337 64.2128 55.9337 62.9256C55.9337 61.6385 56.9771 60.595 58.2642 60.595C59.5514 60.595 60.5948 61.6385 60.5948 62.9256ZM62.9255 79.2396C64.2126 79.2396 65.256 78.1962 65.256 76.909C65.256 75.6219 64.2126 74.5784 62.9255 74.5784C61.6383 74.5784 60.5949 75.6219 60.5949 76.909C60.5949 78.1962 61.6383 79.2396 62.9255 79.2396ZM58.2642 76.909C58.2642 77.5526 57.7425 78.0743 57.0989 78.0743C56.4554 78.0743 55.9337 77.5526 55.9337 76.909C55.9337 76.2655 56.4554 75.7437 57.0989 75.7437C57.7425 75.7437 58.2642 76.2655 58.2642 76.909ZM50.6897 74.5785C52.2987 74.5785 53.603 73.2742 53.603 71.6653C53.603 70.0563 52.2987 68.752 50.6897 68.752C49.0808 68.752 47.7765 70.0563 47.7765 71.6653C47.7765 73.2742 49.0808 74.5785 50.6897 74.5785ZM69.9172 84.4835C69.9172 86.0924 68.6129 87.3967 67.004 87.3967C65.3951 87.3967 64.0908 86.0924 64.0908 84.4835C64.0908 82.8746 65.3951 81.5703 67.004 81.5703C68.6129 81.5703 69.9172 82.8746 69.9172 84.4835ZM100.948 43.6223C99.2324 38.7879 96.8152 34.4213 93.2283 30.6785C91.7468 29.119 90.1093 27.6375 88.16 26.6238C87.7701 26.3119 87.3022 26.156 86.8344 26C86.8344 26.039 86.8149 26.0585 86.7954 26.078C86.7759 26.0975 86.7564 26.117 86.7564 26.1559C86.8117 26.2112 86.8571 26.2664 86.8997 26.3182C86.9774 26.4126 87.0456 26.4955 87.1463 26.5458C87.4962 26.954 87.857 27.3404 88.2164 27.7254C88.8183 28.3699 89.4164 29.0105 89.9534 29.7428C92.2926 32.7838 93.9301 36.2927 95.1777 39.8795C97.0491 45.2598 97.9848 50.874 98.3747 56.5661C98.5259 59.0612 98.6038 61.5562 98.6795 63.9801L98.6866 64.2077C99.5443 64.2856 100.48 64.3636 101.338 64.3636C102.351 64.3636 103.365 64.2856 104.301 64.1297C104.223 60.8548 104.067 57.5018 103.521 54.2269C103.053 50.64 102.195 47.1312 100.948 43.6223ZM120.987 39.5676C120.909 39.8795 120.831 40.1134 120.675 40.3474C120.473 40.6908 120.266 41.029 120.06 41.3646L120.06 41.3647C119.472 42.3247 118.896 43.264 118.492 44.2461C116.543 47.677 115.373 51.3418 114.593 55.1626C114.203 57.112 113.969 58.9834 113.814 60.9327C111.942 62.0244 109.993 62.8821 107.887 63.5059V62.9601C108.043 59.997 108.589 57.112 109.525 54.3049C111.24 49.2365 113.969 44.8699 117.946 41.361C118.648 40.7373 119.428 40.1914 120.207 39.7236C120.302 39.6287 120.455 39.6204 120.63 39.6109H120.63C120.743 39.6048 120.865 39.5982 120.987 39.5676ZM95.2557 55.4746C93.6962 50.7181 91.045 46.5854 87.4582 43.1545C86.2106 41.9849 84.885 40.8933 83.4035 40.0355C83.0136 39.8016 82.5458 39.5677 81.9999 39.6457C82.3862 40.2075 82.8041 40.7378 83.2252 41.272L83.2252 41.2721C83.7391 41.924 84.2576 42.5819 84.7291 43.3105C84.8512 43.5059 84.9752 43.7032 85.1003 43.9022L85.1005 43.9024C85.7738 44.9735 86.4765 46.0914 87.0683 47.2092C87.7701 48.5348 88.3939 50.0163 88.8617 51.4199C89.3296 52.9014 89.7974 54.3829 90.1093 55.8644C90.4212 57.346 90.6551 58.8275 90.8111 60.387C90.8891 60.9328 90.8891 61.4006 90.8891 61.9465C92.7605 62.8822 94.7098 63.5839 96.7372 63.9738C96.6592 61.0887 96.1914 58.2037 95.2557 55.4746ZM115.139 32.7839C115.139 32.7059 115.217 32.628 115.295 32.55C115.295 32.472 115.217 32.394 115.217 32.394C114.944 32.511 114.652 32.6085 114.36 32.7059C114.067 32.8034 113.775 32.9009 113.502 33.0178C111.319 34.0315 109.681 35.591 108.2 37.4624C106.484 39.7237 105.47 41.751 104.457 44.4022C104.405 44.5061 104.422 44.6101 104.439 44.7141C104.448 44.7661 104.457 44.818 104.457 44.87C104.847 46.1956 105.158 47.4432 105.47 48.7688C105.6 49.3283 105.705 49.8878 105.813 50.4604C105.9 50.9252 105.989 51.3987 106.094 51.8878C106.172 51.7318 106.172 51.5759 106.172 51.4979C106.64 48.7688 107.264 46.0396 108.2 43.3885C109.681 39.3338 111.786 35.669 115.139 32.7839Z" fill="white"/>
</svg>
