<svg width="138" height="120" viewBox="0 0 138 120" fill="none" xmlns="http://www.w3.org/2000/svg">
<path fill-rule="evenodd" clip-rule="evenodd" d="M10.0215 37.9884C12.7017 16.3141 31.1132 0 52.9042 0H137.621L127.599 81.9199C124.919 103.594 106.507 119.908 84.7166 119.908H0L10.0215 37.9884ZM93.5728 68.2861C92.7571 69.5679 92.1744 70.8497 91.7083 72.2481C91.2422 73.5299 90.8926 74.9282 90.8926 76.21C90.543 79.0067 91.2422 81.8034 92.524 84.3671C93.1482 85.7403 93.973 87.1135 94.8193 88.5225C95.5529 89.744 96.3028 90.9924 96.9521 92.291C97.6513 93.6894 98.3504 95.2043 98.7 96.8357C98.7389 97.1076 98.7907 97.3795 98.8425 97.6514C98.946 98.1952 99.0496 98.739 99.0496 99.2828V101.613H61.1777L59.3132 101.38C58.8471 101.38 58.4975 100.914 58.4975 100.448C58.4975 99.0497 58.4975 97.7679 58.148 96.4861C57.7984 95.2043 57.3322 94.039 56.6331 93.1067C55.2347 91.1257 52.7876 90.1935 50.1075 89.7274C48.7091 89.4943 47.1942 89.3778 45.6794 89.2613L45.5112 89.2484C44.0441 89.1358 42.4729 89.0153 40.9017 88.6786C40.086 88.5621 39.1537 88.2125 38.338 87.6299L37.7554 87.0472C37.6971 86.9307 37.6097 86.8433 37.5223 86.7559C37.4349 86.6685 37.3475 86.5811 37.2893 86.4646C36.9397 86.115 36.7066 85.6489 36.5901 85.1828C36.0074 83.3183 36.124 81.5704 36.2405 80.0555C36.3055 79.1452 36.4068 78.2713 36.5039 77.4336C36.5808 76.7699 36.6551 76.129 36.7066 75.5109C36.8231 74.1125 36.5901 72.8307 36.0074 72.1315C35.7744 71.7819 35.3083 71.4324 34.7256 71.3158C34.4926 71.3158 34.0265 71.1993 33.6769 71.0828L32.5116 70.8497L30.2975 70.2671L29.1322 70.034L28.5496 69.9175C28.4913 69.9175 28.4331 69.8883 28.3748 69.8592C28.3165 69.8301 28.2583 69.8009 28.2 69.8009C28.0835 69.8009 27.9669 69.8009 27.8504 69.6844C26.8017 69.2183 25.986 68.2861 25.6364 67.2373C25.2868 66.1885 25.4033 64.9067 25.986 63.9745L28.3165 60.0125L32.8612 52.0885L33.4438 51.1563C33.5021 51.0398 33.5603 50.8941 33.6186 50.7484C33.6769 50.6028 33.7351 50.4571 33.7934 50.3406C34.0265 49.8745 34.143 49.1753 34.143 48.5927V48.1266V47.5439V46.2621C34.143 45.4464 34.2595 44.6307 34.376 43.8151L34.376 43.815C34.8422 40.5522 35.8909 37.5224 37.2893 34.7257C40.086 29.0158 44.281 24.0051 49.4083 20.6257C51.9719 18.7613 54.8851 17.3629 57.9149 16.4307C60.9446 15.4984 64.0909 15.0323 67.2372 14.9158C70.3835 14.7993 73.5298 15.0323 76.6761 15.615C79.7058 16.1976 82.8521 17.1299 85.6488 18.6447C88.562 20.0431 91.1256 22.0241 93.3397 24.3546C95.5537 26.6852 97.1852 29.4819 98.467 32.3951C100.914 38.2216 101.38 44.8637 100.448 51.0398C99.9818 54.1861 99.0496 57.2158 97.8843 60.129C97.6513 60.9447 97.3017 61.6439 96.9521 62.343L96.9521 62.3431L95.9033 64.4406L94.7381 66.4216C94.2719 67.0042 93.9223 67.5869 93.5728 68.2861Z" fill="white"/>
<circle cx="77" cy="25" r="3" fill="white"/>
<circle cx="73" cy="35" r="4" fill="white"/>
<circle cx="69" cy="27" r="2" fill="white"/>
<circle cx="86" cy="47" r="2" fill="white"/>
<circle cx="81.5" cy="40.5" r="2.5" fill="white"/>
<circle cx="90.5" cy="40.5" r="3.5" fill="white"/>
<circle cx="84.5" cy="31.5" r="4.5" fill="white"/>
</svg>
