<svg width="403" height="416" viewBox="0 0 403 416" fill="none" xmlns="http://www.w3.org/2000/svg">
<path d="M39.3572 21.846H42.4862V33.375H45.9932V21.846H49.1222V33.375H52.6292V21.846H55.7582V36H39.3572V21.846ZM67.478 31.884H60.863C60.905 32.514 61.199 32.997 61.745 33.333C62.291 33.669 62.963 33.837 63.761 33.837C64.797 33.837 65.742 33.69 66.596 33.396L67.016 35.559C65.98 35.993 64.741 36.21 63.299 36.21C61.577 36.21 60.233 35.748 59.267 34.824C58.301 33.886 57.818 32.605 57.818 30.981C57.818 30.071 57.993 29.217 58.343 28.419C58.693 27.607 59.274 26.921 60.086 26.361C60.898 25.787 61.871 25.5 63.005 25.5C64.545 25.5 65.693 25.997 66.449 26.991C67.205 27.985 67.583 29.196 67.583 30.624C67.583 31.072 67.548 31.492 67.478 31.884ZM60.842 29.7H64.622C64.622 29.182 64.482 28.706 64.202 28.272C63.936 27.838 63.474 27.621 62.816 27.621C62.214 27.621 61.745 27.838 61.409 28.272C61.087 28.706 60.898 29.182 60.842 29.7ZM70.1698 25.731H78.5488V36H75.3568V28.167H73.1308V30.057C73.1308 31.401 73.0258 32.493 72.8158 33.333C72.6058 34.159 72.2278 34.789 71.6818 35.223C71.0518 35.895 70.0578 36.231 68.6998 36.231L68.3428 33.753C68.8608 33.669 69.2458 33.487 69.4978 33.207C69.7778 32.927 69.9598 32.542 70.0438 32.052C70.1278 31.562 70.1698 30.848 70.1698 29.91V25.731ZM79.9326 25.731H83.4816L85.0146 30.792C85.2386 31.562 85.4066 32.199 85.5186 32.703H85.6026C85.7986 31.821 85.9456 31.177 86.0436 30.771L87.3246 25.731H90.7266L88.3326 32.493C87.6326 34.453 87.0096 35.93 86.4636 36.924C85.9176 37.918 85.3366 38.688 84.7206 39.234C83.7966 40.06 82.7746 40.529 81.6546 40.641L80.9616 37.953C81.4096 37.855 81.8716 37.673 82.3476 37.407C82.8936 37.113 83.3346 36.686 83.6706 36.126C83.7826 35.944 83.8386 35.79 83.8386 35.664C83.8386 35.51 83.7966 35.335 83.7126 35.139L79.9326 25.731ZM92.0588 25.731H95.2298V33.564H97.7498V25.731H100.921V33.564H103.441V25.731H106.612V36H92.0588V25.731ZM117.71 29.931V33.522C117.71 34.67 117.766 35.496 117.878 36H115.001L114.812 34.971H114.749C114.063 35.811 113.083 36.231 111.809 36.231C110.815 36.231 110.01 35.923 109.394 35.307C108.792 34.677 108.491 33.935 108.491 33.081C108.491 31.779 109.023 30.799 110.087 30.141C111.165 29.483 112.642 29.154 114.518 29.154V29.028C114.518 28.132 113.895 27.684 112.649 27.684C111.585 27.684 110.64 27.943 109.814 28.461L109.226 26.403C110.332 25.787 111.662 25.479 113.216 25.479C114.812 25.479 115.96 25.885 116.66 26.697C117.36 27.509 117.71 28.587 117.71 29.931ZM114.623 32.262V31.149C112.635 31.149 111.641 31.688 111.641 32.766C111.641 33.158 111.753 33.459 111.977 33.669C112.215 33.879 112.523 33.984 112.901 33.984C113.279 33.984 113.622 33.872 113.93 33.648C114.238 33.424 114.448 33.144 114.56 32.808C114.602 32.64 114.623 32.458 114.623 32.262ZM120.237 25.731H123.408V33.564H125.928V25.731H129.099V33.564H131.619V25.731H134.79V33.753L135.924 33.795L135.777 39.318H133.383L133.278 36H120.237V25.731ZM146.236 29.931V33.522C146.236 34.67 146.292 35.496 146.404 36H143.527L143.338 34.971H143.275C142.589 35.811 141.609 36.231 140.335 36.231C139.341 36.231 138.536 35.923 137.92 35.307C137.318 34.677 137.017 33.935 137.017 33.081C137.017 31.779 137.549 30.799 138.613 30.141C139.691 29.483 141.168 29.154 143.044 29.154V29.028C143.044 28.132 142.421 27.684 141.175 27.684C140.111 27.684 139.166 27.943 138.34 28.461L137.752 26.403C138.858 25.787 140.188 25.479 141.742 25.479C143.338 25.479 144.486 25.885 145.186 26.697C145.886 27.509 146.236 28.587 146.236 29.931ZM143.149 32.262V31.149C141.161 31.149 140.167 31.688 140.167 32.766C140.167 33.158 140.279 33.459 140.503 33.669C140.741 33.879 141.049 33.984 141.427 33.984C141.805 33.984 142.148 33.872 142.456 33.648C142.764 33.424 142.974 33.144 143.086 32.808C143.128 32.64 143.149 32.458 143.149 32.262ZM157.979 25.794V36H154.829V32.136H154.178C153.562 32.136 153.072 32.381 152.708 32.871C152.61 32.969 152.512 33.088 152.414 33.228C152.33 33.354 152.246 33.515 152.162 33.711C152.078 33.893 152.008 34.04 151.952 34.152C151.91 34.264 151.847 34.446 151.763 34.698C151.679 34.936 151.623 35.09 151.595 35.16C151.511 35.356 151.378 35.636 151.196 36H147.794C148.004 35.734 148.221 35.356 148.445 34.866C148.459 34.824 148.543 34.607 148.697 34.215C148.865 33.809 148.984 33.522 149.054 33.354C149.138 33.186 149.257 32.962 149.411 32.682C149.565 32.402 149.719 32.185 149.873 32.031C150.265 31.625 150.699 31.373 151.175 31.275V31.212C150.503 31.142 149.894 30.89 149.348 30.456C148.802 30.022 148.529 29.427 148.529 28.671C148.529 27.551 149.11 26.725 150.272 26.193C151.112 25.773 152.372 25.563 154.052 25.563C155.312 25.563 156.621 25.64 157.979 25.794ZM154.829 30.183V27.621C154.465 27.565 154.101 27.537 153.737 27.537C153.177 27.537 152.715 27.649 152.351 27.873C152.001 28.097 151.826 28.433 151.826 28.881C151.826 29.301 152.022 29.63 152.414 29.868C152.806 30.092 153.261 30.204 153.779 30.204C153.961 30.204 154.164 30.204 154.388 30.204C154.612 30.19 154.759 30.183 154.829 30.183ZM167.843 33.375L168.221 35.727C167.549 36.049 166.597 36.21 165.365 36.21C163.699 36.21 162.376 35.741 161.396 34.803C160.416 33.851 159.926 32.57 159.926 30.96C159.926 29.392 160.444 28.09 161.48 27.054C162.516 26.018 163.958 25.5 165.806 25.5C166.716 25.5 167.528 25.633 168.242 25.899L167.738 28.272C167.262 28.062 166.667 27.957 165.953 27.957C165.113 27.957 164.441 28.23 163.937 28.776C163.433 29.308 163.188 29.994 163.202 30.834C163.202 31.73 163.468 32.437 164 32.955C164.532 33.459 165.204 33.711 166.016 33.711C166.716 33.711 167.325 33.599 167.843 33.375ZM179.287 25.794V36H176.137V32.136H175.486C174.87 32.136 174.38 32.381 174.016 32.871C173.918 32.969 173.82 33.088 173.722 33.228C173.638 33.354 173.554 33.515 173.47 33.711C173.386 33.893 173.316 34.04 173.26 34.152C173.218 34.264 173.155 34.446 173.071 34.698C172.987 34.936 172.931 35.09 172.903 35.16C172.819 35.356 172.686 35.636 172.504 36H169.102C169.312 35.734 169.529 35.356 169.753 34.866C169.767 34.824 169.851 34.607 170.005 34.215C170.173 33.809 170.292 33.522 170.362 33.354C170.446 33.186 170.565 32.962 170.719 32.682C170.873 32.402 171.027 32.185 171.181 32.031C171.573 31.625 172.007 31.373 172.483 31.275V31.212C171.811 31.142 171.202 30.89 170.656 30.456C170.11 30.022 169.837 29.427 169.837 28.671C169.837 27.551 170.418 26.725 171.58 26.193C172.42 25.773 173.68 25.563 175.36 25.563C176.62 25.563 177.929 25.64 179.287 25.794ZM176.137 30.183V27.621C175.773 27.565 175.409 27.537 175.045 27.537C174.485 27.537 174.023 27.649 173.659 27.873C173.309 28.097 173.134 28.433 173.134 28.881C173.134 29.301 173.33 29.63 173.722 29.868C174.114 30.092 174.569 30.204 175.087 30.204C175.269 30.204 175.472 30.204 175.696 30.204C175.92 30.19 176.067 30.183 176.137 30.183ZM186.046 25.731H195.601V36H192.388V28.188H189.238V36H186.046V25.731ZM203.081 25.479C204.635 25.479 205.895 25.969 206.861 26.949C207.827 27.929 208.31 29.196 208.31 30.75C208.31 32.514 207.778 33.872 206.714 34.824C205.664 35.762 204.39 36.231 202.892 36.231C201.352 36.231 200.078 35.755 199.07 34.803C198.076 33.851 197.579 32.563 197.579 30.939C197.579 29.273 198.076 27.95 199.07 26.97C200.078 25.976 201.415 25.479 203.081 25.479ZM202.976 27.768C202.276 27.768 201.751 28.069 201.401 28.671C201.051 29.273 200.876 30.001 200.876 30.855C200.876 31.765 201.058 32.507 201.422 33.081C201.8 33.655 202.318 33.942 202.976 33.942C203.606 33.942 204.103 33.662 204.467 33.102C204.831 32.528 205.013 31.772 205.013 30.834C205.013 29.994 204.838 29.273 204.488 28.671C204.152 28.069 203.648 27.768 202.976 27.768ZM210.266 35.958V25.836C211.512 25.668 212.891 25.584 214.403 25.584C217.791 25.584 219.485 26.459 219.485 28.209C219.485 28.825 219.275 29.322 218.855 29.7C218.449 30.064 217.959 30.302 217.385 30.414V30.477C218.169 30.603 218.785 30.883 219.233 31.317C219.695 31.737 219.926 32.29 219.926 32.976C219.926 35.09 217.903 36.147 213.857 36.147C212.443 36.147 211.246 36.084 210.266 35.958ZM213.416 27.621V29.742H214.235C215.635 29.742 216.335 29.371 216.335 28.629C216.335 27.915 215.719 27.558 214.487 27.558L213.416 27.621ZM213.395 31.59V34.173C213.619 34.201 213.976 34.215 214.466 34.215C215.922 34.215 216.65 33.774 216.65 32.892C216.65 32.024 215.866 31.59 214.298 31.59H213.395ZM230.946 31.884H224.331C224.373 32.514 224.667 32.997 225.213 33.333C225.759 33.669 226.431 33.837 227.229 33.837C228.265 33.837 229.21 33.69 230.064 33.396L230.484 35.559C229.448 35.993 228.209 36.21 226.767 36.21C225.045 36.21 223.701 35.748 222.735 34.824C221.769 33.886 221.286 32.605 221.286 30.981C221.286 30.071 221.461 29.217 221.811 28.419C222.161 27.607 222.742 26.921 223.554 26.361C224.366 25.787 225.339 25.5 226.473 25.5C228.013 25.5 229.161 25.997 229.917 26.991C230.673 27.985 231.051 29.196 231.051 30.624C231.051 31.072 231.016 31.492 230.946 31.884ZM224.31 29.7H228.09C228.09 29.182 227.95 28.706 227.67 28.272C227.404 27.838 226.942 27.621 226.284 27.621C225.682 27.621 225.213 27.838 224.877 28.272C224.555 28.706 224.366 29.182 224.31 29.7ZM232.969 40.158V29.175C232.969 28.167 232.941 27.019 232.885 25.731H235.657L235.804 27.159H235.846C236.63 26.053 237.771 25.5 239.269 25.5C240.445 25.5 241.446 25.976 242.272 26.928C243.112 27.88 243.532 29.147 243.532 30.729C243.532 32.479 243.07 33.837 242.146 34.803C241.222 35.755 240.13 36.231 238.87 36.231C237.638 36.231 236.749 35.839 236.203 35.055H236.161V40.158H232.969ZM236.161 30.183V31.59C236.161 31.828 236.182 32.052 236.224 32.262C236.336 32.696 236.56 33.06 236.896 33.354C237.246 33.634 237.645 33.774 238.093 33.774C238.779 33.774 239.318 33.515 239.71 32.997C240.102 32.465 240.298 31.758 240.298 30.876C240.298 30.022 240.109 29.329 239.731 28.797C239.353 28.265 238.821 27.999 238.135 27.999C237.687 27.999 237.281 28.153 236.917 28.461C236.553 28.755 236.322 29.14 236.224 29.616C236.182 29.784 236.161 29.973 236.161 30.183ZM243.873 25.731H247.443L248.451 27.453C248.647 27.803 248.927 28.314 249.291 28.986H249.333C249.627 28.37 249.893 27.845 250.131 27.411L251.034 25.731H254.499L251.118 30.624L254.541 36H250.929L249.9 34.152C249.704 33.816 249.438 33.298 249.102 32.598H249.039C248.969 32.766 248.885 32.941 248.787 33.123C248.703 33.291 248.605 33.48 248.493 33.69C248.395 33.886 248.318 34.04 248.262 34.152L247.296 36H243.789L247.275 30.771L243.873 25.731ZM255.875 25.731H259.067V29.448H262.301V25.731H265.493V36H262.301V31.926H259.067V36H255.875V25.731ZM272.971 25.479C274.525 25.479 275.785 25.969 276.751 26.949C277.717 27.929 278.2 29.196 278.2 30.75C278.2 32.514 277.668 33.872 276.604 34.824C275.554 35.762 274.28 36.231 272.782 36.231C271.242 36.231 269.968 35.755 268.96 34.803C267.966 33.851 267.469 32.563 267.469 30.939C267.469 29.273 267.966 27.95 268.96 26.97C269.968 25.976 271.305 25.479 272.971 25.479ZM272.866 27.768C272.166 27.768 271.641 28.069 271.291 28.671C270.941 29.273 270.766 30.001 270.766 30.855C270.766 31.765 270.948 32.507 271.312 33.081C271.69 33.655 272.208 33.942 272.866 33.942C273.496 33.942 273.993 33.662 274.357 33.102C274.721 32.528 274.903 31.772 274.903 30.834C274.903 29.994 274.728 29.273 274.378 28.671C274.042 28.069 273.538 27.768 272.866 27.768ZM287.506 33.375L287.884 35.727C287.212 36.049 286.26 36.21 285.028 36.21C283.362 36.21 282.039 35.741 281.059 34.803C280.079 33.851 279.589 32.57 279.589 30.96C279.589 29.392 280.107 28.09 281.143 27.054C282.179 26.018 283.621 25.5 285.469 25.5C286.379 25.5 287.191 25.633 287.905 25.899L287.401 28.272C286.925 28.062 286.33 27.957 285.616 27.957C284.776 27.957 284.104 28.23 283.6 28.776C283.096 29.308 282.851 29.994 282.865 30.834C282.865 31.73 283.131 32.437 283.663 32.955C284.195 33.459 284.867 33.711 285.679 33.711C286.379 33.711 286.988 33.599 287.506 33.375ZM288.931 25.731H298.087V28.188H295.105V36H291.913V28.188H288.931V25.731ZM299.495 25.731H302.687V28.776C303.275 28.692 303.814 28.65 304.304 28.65C304.948 28.65 305.543 28.713 306.089 28.839C306.649 28.951 307.167 29.14 307.643 29.406C308.133 29.672 308.518 30.043 308.798 30.519C309.078 30.995 309.218 31.562 309.218 32.22C309.218 33.41 308.749 34.334 307.811 34.992C306.719 35.748 305.088 36.126 302.918 36.126C301.7 36.126 300.559 36.063 299.495 35.937V25.731ZM302.666 30.918V33.9C302.96 33.942 303.317 33.963 303.737 33.963C304.367 33.963 304.906 33.837 305.354 33.585C305.816 33.333 306.047 32.927 306.047 32.367C306.047 31.807 305.809 31.408 305.333 31.17C304.857 30.932 304.311 30.813 303.695 30.813C303.359 30.813 303.016 30.848 302.666 30.918ZM315.389 25.731H318.581V29.826H318.917L321.521 25.731H325.238L321.458 30.162C322.508 30.344 323.369 31.282 324.041 32.976C324.083 33.074 324.251 33.508 324.545 34.278C324.839 35.048 325.084 35.622 325.28 36H321.941C321.787 35.748 321.479 34.992 321.017 33.732C320.569 32.528 319.862 31.926 318.896 31.926H318.581V36H315.389V25.731ZM331.296 25.479C332.85 25.479 334.11 25.969 335.076 26.949C336.042 27.929 336.525 29.196 336.525 30.75C336.525 32.514 335.993 33.872 334.929 34.824C333.879 35.762 332.605 36.231 331.107 36.231C329.567 36.231 328.293 35.755 327.285 34.803C326.291 33.851 325.794 32.563 325.794 30.939C325.794 29.273 326.291 27.95 327.285 26.97C328.293 25.976 329.63 25.479 331.296 25.479ZM331.191 27.768C330.491 27.768 329.966 28.069 329.616 28.671C329.266 29.273 329.091 30.001 329.091 30.855C329.091 31.765 329.273 32.507 329.637 33.081C330.015 33.655 330.533 33.942 331.191 33.942C331.821 33.942 332.318 33.662 332.682 33.102C333.046 32.528 333.228 31.772 333.228 30.834C333.228 29.994 333.053 29.273 332.703 28.671C332.367 28.069 331.863 27.768 331.191 27.768ZM337.057 25.731H340.585L342.895 29.847H343.231V25.731H346.318V29.847H346.633L348.964 25.731H352.492L348.922 30.162C349.986 30.358 350.784 31.226 351.316 32.766C352.016 34.698 352.422 35.776 352.534 36H349.342C349.174 35.706 348.88 34.922 348.46 33.648C348.054 32.486 347.424 31.905 346.57 31.905H346.318V36H343.231V31.905H342.979C342.111 31.905 341.467 32.486 341.047 33.648C340.571 34.978 340.27 35.762 340.144 36H336.994C337.148 35.678 337.568 34.6 338.254 32.766C338.772 31.226 339.563 30.358 340.627 30.162L337.057 25.731ZM353.78 25.731H356.804V28.881C356.804 29.819 356.748 31.212 356.636 33.06L356.72 33.081C356.86 32.759 357.049 32.276 357.287 31.632C357.539 30.988 357.742 30.491 357.896 30.141L359.891 25.731H363.797V36H360.773V32.871C360.773 32.507 360.836 31.03 360.962 28.44H360.878C360.486 29.532 360.129 30.449 359.807 31.191C359.555 31.737 359.17 32.591 358.652 33.753C358.148 34.915 357.819 35.664 357.665 36H353.78V25.731Z" fill="white"/>
<path opacity="0.7" d="M50.9083 183H52.6933L51.8113 168.846H49.4803L46.9603 175.692C46.3303 177.477 45.8263 179.031 45.4693 180.459H45.4063C45.0493 178.989 44.5663 177.435 43.9783 175.692L41.5633 168.846H39.2323L38.2453 183H39.9883L40.3663 176.931C40.4923 174.81 40.5973 172.437 40.6393 170.673H40.6813C41.0803 172.353 41.6473 174.18 42.3193 176.175L44.6083 182.916H45.9943L48.4933 176.049C49.2073 174.096 49.7953 172.332 50.2783 170.673H50.3413C50.3203 172.437 50.4463 174.81 50.5513 176.784L50.9083 183ZM59.7433 172.605C56.9293 172.605 54.7033 174.6 54.7033 178.002C54.7033 181.215 56.8243 183.231 59.5753 183.231C62.0323 183.231 64.6363 181.593 64.6363 177.834C64.6363 174.726 62.6623 172.605 59.7433 172.605ZM59.7013 173.991C61.8853 173.991 62.7463 176.175 62.7463 177.897C62.7463 180.186 61.4233 181.845 59.6593 181.845C57.8533 181.845 56.5723 180.165 56.5723 177.939C56.5723 176.007 57.5173 173.991 59.7013 173.991ZM65.5396 172.836L69.5716 177.456C68.0386 177.624 67.1356 178.527 66.5056 180.165C66.1486 181.11 65.8126 182.181 65.3926 183H67.1776C67.5346 182.37 67.8076 181.572 68.1436 180.69C68.7736 179.031 69.6346 178.506 71.0626 178.506H71.3986V183H73.1626V178.506H73.4776C74.8006 178.506 75.7456 179.01 76.3756 180.669C76.6696 181.551 76.9636 182.391 77.2996 183H79.1476C78.7276 182.202 78.3916 181.131 78.0346 180.144C77.4256 178.527 76.5226 177.624 74.9896 177.456L79.0006 172.836H76.8796L73.5196 177.267H73.1626V172.836H71.3986V177.267H71.0206L67.6606 172.836H65.5396ZM88.8524 178.254C88.8734 178.065 88.9154 177.771 88.9154 177.393C88.9154 175.524 88.0334 172.605 84.7154 172.605C81.7544 172.605 79.9484 175.02 79.9484 178.086C79.9484 181.152 81.8174 183.21 84.9464 183.21C86.5634 183.21 87.6764 182.874 88.3274 182.58L88.0124 181.257C87.3194 181.551 86.5214 181.782 85.1984 181.782C83.3504 181.782 81.7544 180.753 81.7124 178.254H88.8524ZM81.7334 176.931C81.8804 175.65 82.6994 173.928 84.5684 173.928C86.6474 173.928 87.1514 175.755 87.1304 176.931H81.7334ZM89.8199 172.836V174.306H92.9909V183H94.8179V174.306H97.9889V172.836H89.8199ZM111.976 167.859C111.283 168.111 110.275 168.279 109.456 168.405C107.482 168.741 106.075 169.392 105.088 170.799C103.996 172.227 103.513 174.117 103.513 176.427C103.513 179.808 104.689 183.231 108.259 183.231C111.241 183.231 112.963 181.173 112.963 177.855C112.963 174.621 111.136 172.836 108.637 172.836C107.188 172.836 105.76 173.655 105.109 175.125H105.046C105.13 174.054 105.508 172.689 106.159 171.765C106.936 170.652 108.133 170.106 109.771 169.854C110.443 169.749 111.367 169.581 111.892 169.392L111.976 167.859ZM111.094 178.002C111.094 179.871 110.338 181.845 108.301 181.845C106.285 181.845 105.466 179.43 105.466 177.75C105.466 176.931 105.634 176.196 105.97 175.587C106.39 174.768 107.167 174.201 108.259 174.201C110.443 174.201 111.094 176.343 111.094 178.002ZM115.259 172.836V182.958C116.015 183.042 116.96 183.105 117.989 183.105C119.333 183.105 120.971 182.874 122.084 181.929C122.735 181.383 123.134 180.648 123.134 179.577C123.134 177.078 120.929 176.175 118.745 176.175C118.073 176.175 117.485 176.217 117.086 176.301V172.836H115.259ZM117.086 177.603C117.464 177.54 117.926 177.498 118.451 177.498C119.837 177.498 121.307 178.002 121.307 179.64C121.307 181.215 119.774 181.803 118.367 181.803C117.842 181.803 117.443 181.761 117.086 181.719V177.603ZM124.415 172.836V183H126.242V172.836H124.415ZM127.903 172.836V174.306H131.074V183H132.901V174.306H136.072V172.836H127.903ZM137.653 172.836V182.958C138.409 183.042 139.354 183.105 140.383 183.105C141.874 183.105 143.68 182.874 144.793 181.929C145.444 181.383 145.864 180.648 145.864 179.598C145.864 176.889 143.449 176.175 141.16 176.175C140.614 176.175 139.9 176.196 139.48 176.28V172.836H137.653ZM139.48 177.603C139.9 177.54 140.32 177.498 140.803 177.498C142.168 177.498 144.016 177.876 144.016 179.64C144.016 181.341 142.231 181.803 140.845 181.803C140.236 181.803 139.837 181.761 139.48 181.719V177.603ZM152.562 172.836V183H154.389V174.306H159.114V183H160.962V172.836H152.562ZM163.966 187.158H165.793V181.635H165.835C166.444 182.643 167.62 183.231 168.964 183.231C171.358 183.231 173.584 181.425 173.584 177.771C173.584 174.684 171.736 172.605 169.279 172.605C167.62 172.605 166.423 173.34 165.667 174.579H165.625L165.541 172.836H163.882C163.924 173.802 163.966 174.852 163.966 176.154V187.158ZM165.793 177.12C165.793 176.868 165.856 176.595 165.919 176.364C166.276 174.978 167.452 174.075 168.712 174.075C170.665 174.075 171.736 175.818 171.736 177.855C171.736 180.186 170.602 181.782 168.649 181.782C167.326 181.782 166.213 180.9 165.877 179.619C165.835 179.388 165.793 179.136 165.793 178.863V177.12ZM180.227 172.605C177.413 172.605 175.187 174.6 175.187 178.002C175.187 181.215 177.308 183.231 180.059 183.231C182.516 183.231 185.12 181.593 185.12 177.834C185.12 174.726 183.146 172.605 180.227 172.605ZM180.185 173.991C182.369 173.991 183.23 176.175 183.23 177.897C183.23 180.186 181.907 181.845 180.143 181.845C178.337 181.845 177.056 180.165 177.056 177.939C177.056 176.007 178.001 173.991 180.185 173.991ZM194.86 172.92C193.978 172.815 192.802 172.71 191.584 172.71C190.261 172.71 189.022 172.92 188.182 173.403C187.405 173.844 186.838 174.558 186.838 175.608C186.838 177.162 188.203 177.981 189.526 178.128V178.191C189.064 178.275 188.686 178.506 188.371 178.779C187.468 179.535 187.216 180.858 186.775 181.845C186.586 182.286 186.376 182.664 186.145 183H188.119C188.266 182.748 188.413 182.475 188.539 182.16C188.938 181.173 189.211 179.913 189.967 179.304C190.366 178.947 190.891 178.737 191.668 178.737H193.033V183H194.86V172.92ZM193.033 177.477C192.613 177.477 192.214 177.477 191.458 177.477C190.366 177.477 188.749 177.015 188.749 175.713C188.749 174.306 190.24 173.949 191.5 173.949C192.151 173.949 192.571 173.991 193.033 174.054V177.477ZM197.823 183C198.369 183.042 199.545 183.126 200.679 183.126C202.674 183.126 206.034 182.79 206.034 180.123C206.034 178.653 204.942 177.813 203.451 177.603V177.561C204.606 177.309 205.572 176.532 205.572 175.272C205.572 173.004 202.758 172.731 201.057 172.731C199.86 172.731 198.537 172.836 197.823 172.962V183ZM199.587 174.096C200.028 174.054 200.406 174.012 201.015 174.012C202.863 174.012 203.745 174.495 203.745 175.503C203.745 176.7 202.338 177.099 200.973 177.099H199.587V174.096ZM199.566 178.317H200.91C202.674 178.317 204.144 178.632 204.144 180.102C204.144 181.572 202.296 181.866 201.057 181.866C200.469 181.866 200.091 181.845 199.566 181.782V178.317ZM209.076 172.836V176.931C209.076 179.199 208.971 180.627 208.026 181.32C207.774 181.53 207.375 181.677 207.018 181.74L207.207 183.189C208.152 183.189 208.719 182.958 209.223 182.559C210.546 181.698 210.819 179.787 210.819 176.931V174.285H214.305V183H216.132V172.836H209.076ZM227.321 178.254C227.342 178.065 227.384 177.771 227.384 177.393C227.384 175.524 226.502 172.605 223.184 172.605C220.223 172.605 218.417 175.02 218.417 178.086C218.417 181.152 220.286 183.21 223.415 183.21C225.032 183.21 226.145 182.874 226.796 182.58L226.481 181.257C225.788 181.551 224.99 181.782 223.667 181.782C221.819 181.782 220.223 180.753 220.181 178.254H227.321ZM220.202 176.931C220.349 175.65 221.168 173.928 223.037 173.928C225.116 173.928 225.62 175.755 225.599 176.931H220.202ZM229.631 172.836V183H231.458V178.401H236.288V183H238.115V172.836H236.288V176.931H231.458V172.836H229.631ZM241.095 172.836V183H243.216C244.308 181.215 245.421 179.262 246.387 177.687C246.975 176.658 247.416 175.839 248.067 174.537H248.13C248.046 176.175 248.004 177.036 248.004 178.695V183H249.768V172.836H247.605L244.434 178.086C243.762 179.262 243.405 179.976 242.796 181.215L242.733 181.194C242.817 179.745 242.838 178.737 242.838 177.12V172.836H241.095ZM260.933 178.254C260.954 178.065 260.996 177.771 260.996 177.393C260.996 175.524 260.114 172.605 256.796 172.605C253.835 172.605 252.029 175.02 252.029 178.086C252.029 181.152 253.898 183.21 257.027 183.21C258.644 183.21 259.757 182.874 260.408 182.58L260.093 181.257C259.4 181.551 258.602 181.782 257.279 181.782C255.431 181.782 253.835 180.753 253.793 178.254H260.933ZM253.814 176.931C253.961 175.65 254.78 173.928 256.649 173.928C258.728 173.928 259.232 175.755 259.211 176.931H253.814ZM262.634 183H264.335L264.587 178.191C264.65 177.078 264.713 175.734 264.755 174.537H264.839C265.091 175.482 265.532 176.952 265.847 177.918L267.653 182.937H268.997L270.95 177.813C271.517 176.259 271.79 175.44 272.063 174.516H272.126C272.168 175.755 272.252 177.057 272.315 178.149L272.546 183H274.31L273.596 172.836H271.307L269.669 177.267C269.27 178.38 268.703 179.997 268.472 180.753H268.43C268.199 179.955 267.758 178.716 267.506 177.96L265.658 172.836H263.39L262.634 183ZM281.105 172.836V183H282.932V174.306H287.657V183H289.505V172.836H281.105ZM300.678 178.254C300.699 178.065 300.741 177.771 300.741 177.393C300.741 175.524 299.859 172.605 296.541 172.605C293.58 172.605 291.774 175.02 291.774 178.086C291.774 181.152 293.643 183.21 296.772 183.21C298.389 183.21 299.502 182.874 300.153 182.58L299.838 181.257C299.145 181.551 298.347 181.782 297.024 181.782C295.176 181.782 293.58 180.753 293.538 178.254H300.678ZM293.559 176.931C293.706 175.65 294.525 173.928 296.394 173.928C298.473 173.928 298.977 175.755 298.956 176.931H293.559ZM303.029 187.158H304.856V181.635H304.898C305.507 182.643 306.683 183.231 308.027 183.231C310.421 183.231 312.647 181.425 312.647 177.771C312.647 174.684 310.799 172.605 308.342 172.605C306.683 172.605 305.486 173.34 304.73 174.579H304.688L304.604 172.836H302.945C302.987 173.802 303.029 174.852 303.029 176.154V187.158ZM304.856 177.12C304.856 176.868 304.919 176.595 304.982 176.364C305.339 174.978 306.515 174.075 307.775 174.075C309.728 174.075 310.799 175.818 310.799 177.855C310.799 180.186 309.665 181.782 307.712 181.782C306.389 181.782 305.276 180.9 304.94 179.619C304.898 179.388 304.856 179.136 304.856 178.863V177.12ZM323.154 178.254C323.175 178.065 323.217 177.771 323.217 177.393C323.217 175.524 322.335 172.605 319.017 172.605C316.056 172.605 314.25 175.02 314.25 178.086C314.25 181.152 316.119 183.21 319.248 183.21C320.865 183.21 321.978 182.874 322.629 182.58L322.314 181.257C321.621 181.551 320.823 181.782 319.5 181.782C317.652 181.782 316.056 180.753 316.014 178.254H323.154ZM316.035 176.931C316.182 175.65 317.001 173.928 318.87 173.928C320.949 173.928 321.453 175.755 321.432 176.931H316.035ZM324.227 172.836L327.671 177.813L324.059 183H326.096L327.566 180.711C327.944 180.102 328.301 179.556 328.637 178.947H328.679C329.036 179.556 329.372 180.123 329.771 180.711L331.262 183H333.362L329.792 177.75L333.257 172.836H331.262L329.834 174.999C329.498 175.545 329.162 176.07 328.826 176.679H328.763C328.427 176.112 328.112 175.587 327.734 175.02L326.285 172.836H324.227ZM339.162 172.605C336.348 172.605 334.122 174.6 334.122 178.002C334.122 181.215 336.243 183.231 338.994 183.231C341.451 183.231 344.055 181.593 344.055 177.834C344.055 174.726 342.081 172.605 339.162 172.605ZM339.12 173.991C341.304 173.991 342.165 176.175 342.165 177.897C342.165 180.186 340.842 181.845 339.078 181.845C337.272 181.845 335.991 180.165 335.991 177.939C335.991 176.007 336.936 173.991 339.12 173.991ZM347.331 172.836V175.482C347.331 176.91 347.142 178.275 346.743 179.535C346.512 180.27 346.176 180.963 345.735 181.614L344.874 181.635L344.958 186.234H346.407L346.491 183H353.526L353.61 186.234H355.059L355.164 181.635L354.114 181.614V172.836H347.331ZM348.969 174.243H352.308V181.593H347.625C347.94 181.026 348.234 180.396 348.444 179.703C348.78 178.569 348.969 177.267 348.969 175.923V174.243ZM364.683 183C364.557 182.307 364.515 181.446 364.515 180.564V176.763C364.515 174.726 363.759 172.605 360.651 172.605C359.37 172.605 358.152 172.962 357.312 173.508L357.732 174.726C358.446 174.264 359.433 173.97 360.378 173.97C362.457 173.97 362.688 175.482 362.688 176.322V176.532C358.761 176.511 356.577 177.855 356.577 180.312C356.577 181.782 357.627 183.231 359.685 183.231C361.134 183.231 362.226 182.517 362.793 181.719H362.856L363.003 183H364.683ZM362.73 179.577C362.73 179.766 362.688 179.976 362.625 180.165C362.331 181.026 361.491 181.866 360.168 181.866C359.223 181.866 358.425 181.299 358.425 180.102C358.425 178.128 360.714 177.771 362.73 177.813V179.577ZM39.1748 206.359H40.0988C41.6318 206.359 43.0598 206.737 43.0598 208.102C43.0598 209.11 42.0938 209.845 40.5608 209.845C39.5948 209.845 38.6078 209.551 37.8728 209.152L37.3898 210.391C38.2928 210.895 39.4898 211.21 40.6868 211.21C42.8288 211.21 45.0758 210.391 45.0758 208.186C45.0758 206.695 43.8158 205.771 42.3038 205.645V205.603C43.4378 205.372 44.5928 204.553 44.5928 203.293C44.5928 201.319 42.7028 200.626 41.1488 200.626C39.9728 200.626 38.7968 200.92 37.7678 201.55L38.2298 202.684C38.9438 202.243 39.8678 201.97 40.6868 201.97C41.8418 201.97 42.6608 202.537 42.6608 203.44C42.6608 204.385 41.6108 205.099 40.0568 205.099H39.1748V206.359ZM54.6867 211C54.5607 210.307 54.5187 209.446 54.5187 208.564V204.763C54.5187 202.726 53.7627 200.605 50.6547 200.605C49.3737 200.605 48.1557 200.962 47.3157 201.508L47.7357 202.726C48.4497 202.264 49.4367 201.97 50.3817 201.97C52.4607 201.97 52.6917 203.482 52.6917 204.322V204.532C48.7647 204.511 46.5807 205.855 46.5807 208.312C46.5807 209.782 47.6307 211.231 49.6887 211.231C51.1377 211.231 52.2297 210.517 52.7967 209.719H52.8597L53.0067 211H54.6867ZM52.7337 207.577C52.7337 207.766 52.6917 207.976 52.6287 208.165C52.3347 209.026 51.4947 209.866 50.1717 209.866C49.2267 209.866 48.4287 209.299 48.4287 208.102C48.4287 206.128 50.7177 205.771 52.7337 205.813V207.577ZM65.2796 195.859C64.5866 196.111 63.5786 196.279 62.7596 196.405C60.7856 196.741 59.3786 197.392 58.3916 198.799C57.2996 200.227 56.8166 202.117 56.8166 204.427C56.8166 207.808 57.9926 211.231 61.5626 211.231C64.5446 211.231 66.2666 209.173 66.2666 205.855C66.2666 202.621 64.4396 200.836 61.9406 200.836C60.4916 200.836 59.0636 201.655 58.4126 203.125H58.3496C58.4336 202.054 58.8116 200.689 59.4626 199.765C60.2396 198.652 61.4366 198.106 63.0746 197.854C63.7466 197.749 64.6706 197.581 65.1956 197.392L65.2796 195.859ZM64.3976 206.002C64.3976 207.871 63.6416 209.845 61.6046 209.845C59.5886 209.845 58.7696 207.43 58.7696 205.75C58.7696 204.931 58.9376 204.196 59.2736 203.587C59.6936 202.768 60.4706 202.201 61.5626 202.201C63.7466 202.201 64.3976 204.343 64.3976 206.002ZM72.9093 200.605C70.0953 200.605 67.8693 202.6 67.8693 206.002C67.8693 209.215 69.9903 211.231 72.7413 211.231C75.1983 211.231 77.8023 209.593 77.8023 205.834C77.8023 202.726 75.8283 200.605 72.9093 200.605ZM72.8673 201.991C75.0513 201.991 75.9123 204.175 75.9123 205.897C75.9123 208.186 74.5893 209.845 72.8253 209.845C71.0193 209.845 69.7383 208.165 69.7383 205.939C69.7383 204.007 70.6833 201.991 72.8673 201.991ZM80.7787 200.836V204.931C80.7787 207.199 80.6737 208.627 79.7287 209.32C79.4767 209.53 79.0777 209.677 78.7207 209.74L78.9097 211.189C79.8547 211.189 80.4217 210.958 80.9257 210.559C82.2487 209.698 82.5217 207.787 82.5217 204.931V202.285H86.0077V211H87.8347V200.836H80.7787ZM99.0243 206.254C99.0453 206.065 99.0873 205.771 99.0873 205.393C99.0873 203.524 98.2053 200.605 94.8873 200.605C91.9263 200.605 90.1203 203.02 90.1203 206.086C90.1203 209.152 91.9893 211.21 95.1183 211.21C96.7353 211.21 97.8483 210.874 98.4993 210.58L98.1843 209.257C97.4913 209.551 96.6933 209.782 95.3703 209.782C93.5223 209.782 91.9263 208.753 91.8843 206.254H99.0243ZM91.9053 204.931C92.0523 203.65 92.8713 201.928 94.7403 201.928C96.8193 201.928 97.3233 203.755 97.3023 204.931H91.9053ZM101.334 211C101.88 211.042 103.056 211.126 104.19 211.126C106.185 211.126 109.545 210.79 109.545 208.123C109.545 206.653 108.453 205.813 106.962 205.603V205.561C108.117 205.309 109.083 204.532 109.083 203.272C109.083 201.004 106.269 200.731 104.568 200.731C103.371 200.731 102.048 200.836 101.334 200.962V211ZM103.098 202.096C103.539 202.054 103.917 202.012 104.526 202.012C106.374 202.012 107.256 202.495 107.256 203.503C107.256 204.7 105.849 205.099 104.484 205.099H103.098V202.096ZM103.077 206.317H104.421C106.185 206.317 107.655 206.632 107.655 208.102C107.655 209.572 105.807 209.866 104.568 209.866C103.98 209.866 103.602 209.845 103.077 209.782V206.317ZM119.184 211C119.058 210.307 119.016 209.446 119.016 208.564V204.763C119.016 202.726 118.26 200.605 115.152 200.605C113.871 200.605 112.653 200.962 111.813 201.508L112.233 202.726C112.947 202.264 113.934 201.97 114.879 201.97C116.958 201.97 117.189 203.482 117.189 204.322V204.532C113.262 204.511 111.078 205.855 111.078 208.312C111.078 209.782 112.128 211.231 114.186 211.231C115.635 211.231 116.727 210.517 117.294 209.719H117.357L117.504 211H119.184ZM117.231 207.577C117.231 207.766 117.189 207.976 117.126 208.165C116.832 209.026 115.992 209.866 114.669 209.866C113.724 209.866 112.926 209.299 112.926 208.102C112.926 206.128 115.215 205.771 117.231 205.813V207.577ZM121.965 200.836V211H123.792V206.401H128.622V211H130.449V200.836H128.622V204.931H123.792V200.836H121.965ZM133.429 200.836V211H135.55C136.642 209.215 137.755 207.262 138.721 205.687C139.309 204.658 139.75 203.839 140.401 202.537H140.464C140.38 204.175 140.338 205.036 140.338 206.695V211H142.102V200.836H139.939L136.768 206.086C136.096 207.262 135.739 207.976 135.13 209.215L135.067 209.194C135.151 207.745 135.172 206.737 135.172 205.12V200.836H133.429ZM152.593 200.92C151.711 200.815 150.535 200.71 149.317 200.71C147.994 200.71 146.755 200.92 145.915 201.403C145.138 201.844 144.571 202.558 144.571 203.608C144.571 205.162 145.936 205.981 147.259 206.128V206.191C146.797 206.275 146.419 206.506 146.104 206.779C145.201 207.535 144.949 208.858 144.508 209.845C144.319 210.286 144.109 210.664 143.878 211H145.852C145.999 210.748 146.146 210.475 146.272 210.16C146.671 209.173 146.944 207.913 147.7 207.304C148.099 206.947 148.624 206.737 149.401 206.737H150.766V211H152.593V200.92ZM150.766 205.477C150.346 205.477 149.947 205.477 149.191 205.477C148.099 205.477 146.482 205.015 146.482 203.713C146.482 202.306 147.973 201.949 149.233 201.949C149.884 201.949 150.304 201.991 150.766 202.054V205.477ZM160.007 211C160.553 211.042 161.729 211.126 162.863 211.126C164.858 211.126 168.218 210.79 168.218 208.123C168.218 206.653 167.126 205.813 165.635 205.603V205.561C166.79 205.309 167.756 204.532 167.756 203.272C167.756 201.004 164.942 200.731 163.241 200.731C162.044 200.731 160.721 200.836 160.007 200.962V211ZM161.771 202.096C162.212 202.054 162.59 202.012 163.199 202.012C165.047 202.012 165.929 202.495 165.929 203.503C165.929 204.7 164.522 205.099 163.157 205.099H161.771V202.096ZM161.75 206.317H163.094C164.858 206.317 166.328 206.632 166.328 208.102C166.328 209.572 164.48 209.866 163.241 209.866C162.653 209.866 162.275 209.845 161.75 209.782V206.317ZM173.802 200.836L177.246 205.813L173.634 211H175.671L177.141 208.711C177.519 208.102 177.876 207.556 178.212 206.947H178.254C178.611 207.556 178.947 208.123 179.346 208.711L180.837 211H182.937L179.367 205.75L182.832 200.836H180.837L179.409 202.999C179.073 203.545 178.737 204.07 178.401 204.679H178.338C178.002 204.112 177.687 203.587 177.309 203.02L175.86 200.836H173.802ZM184.72 215.158H186.547V209.635H186.589C187.198 210.643 188.374 211.231 189.718 211.231C192.112 211.231 194.338 209.425 194.338 205.771C194.338 202.684 192.49 200.605 190.033 200.605C188.374 200.605 187.177 201.34 186.421 202.579H186.379L186.295 200.836H184.636C184.678 201.802 184.72 202.852 184.72 204.154V215.158ZM186.547 205.12C186.547 204.868 186.61 204.595 186.673 204.364C187.03 202.978 188.206 202.075 189.466 202.075C191.419 202.075 192.49 203.818 192.49 205.855C192.49 208.186 191.356 209.782 189.403 209.782C188.08 209.782 186.967 208.9 186.631 207.619C186.589 207.388 186.547 207.136 186.547 206.863V205.12ZM200.981 200.605C198.167 200.605 195.941 202.6 195.941 206.002C195.941 209.215 198.062 211.231 200.813 211.231C203.27 211.231 205.874 209.593 205.874 205.834C205.874 202.726 203.9 200.605 200.981 200.605ZM200.939 201.991C203.123 201.991 203.984 204.175 203.984 205.897C203.984 208.186 202.661 209.845 200.897 209.845C199.091 209.845 197.81 208.165 197.81 205.939C197.81 204.007 198.755 201.991 200.939 201.991ZM208.159 200.836V211H209.986V206.401H214.816V211H216.643V200.836H214.816V204.931H209.986V200.836H208.159ZM219.623 200.836V211H221.744C222.836 209.215 223.949 207.262 224.915 205.687C225.503 204.658 225.944 203.839 226.595 202.537H226.658C226.574 204.175 226.532 205.036 226.532 206.695V211H228.296V200.836H226.133L222.962 206.086C222.29 207.262 221.933 207.976 221.324 209.215L221.261 209.194C221.345 207.745 221.366 206.737 221.366 205.12V200.836H219.623ZM230.899 200.836V204.385C230.899 206.716 232.306 207.703 234.238 207.703C235.204 207.703 236.296 207.388 236.989 206.926H237.031V211H238.858V200.836H237.031V205.624C236.464 206.044 235.645 206.338 234.847 206.338C233.23 206.338 232.747 205.456 232.747 204.175V200.836H230.899ZM250.044 206.254C250.065 206.065 250.107 205.771 250.107 205.393C250.107 203.524 249.225 200.605 245.907 200.605C242.946 200.605 241.14 203.02 241.14 206.086C241.14 209.152 243.009 211.21 246.138 211.21C247.755 211.21 248.868 210.874 249.519 210.58L249.204 209.257C248.511 209.551 247.713 209.782 246.39 209.782C244.542 209.782 242.946 208.753 242.904 206.254H250.044ZM242.925 204.931C243.072 203.65 243.891 201.928 245.76 201.928C247.839 201.928 248.343 203.755 248.322 204.931H242.925ZM259.325 209.236C258.8 209.467 258.107 209.74 257.057 209.74C255.041 209.74 253.529 208.291 253.529 205.939C253.529 203.818 254.789 202.096 257.12 202.096C258.128 202.096 258.821 202.327 259.262 202.579L259.682 201.151C259.178 200.899 258.212 200.626 257.12 200.626C253.802 200.626 251.66 202.894 251.66 206.023C251.66 209.131 253.655 211.21 256.721 211.21C258.086 211.21 259.157 210.874 259.64 210.622L259.325 209.236ZM261.808 200.836V211H263.635V206.527H263.992C265.714 206.527 266.659 207.283 267.352 208.921C267.667 209.761 268.024 210.559 268.297 211H270.229C269.767 210.181 269.41 209.194 269.137 208.522C268.339 206.695 267.352 205.603 265.714 205.435L270.145 200.836H267.898L264.076 205.246H263.635V200.836H261.808ZM270.657 200.836L274.416 210.202C274.5 210.433 274.542 210.58 274.542 210.685C274.542 210.79 274.479 210.937 274.395 211.126C273.975 212.071 273.345 212.785 272.841 213.184C272.295 213.646 271.686 213.94 271.224 214.087L271.686 215.641C272.148 215.557 273.051 215.242 273.954 214.444C275.214 213.352 276.117 211.567 277.44 208.081L280.212 200.836H278.259L276.243 206.8C275.991 207.535 275.781 208.312 275.592 208.921H275.55C275.382 208.312 275.13 207.514 274.899 206.842L272.673 200.836H270.657ZM281.844 200.836V211H283.65V206.527H285.351C285.561 209.425 287.346 211.231 289.782 211.231C292.344 211.231 294.36 209.131 294.36 205.834C294.36 202.705 292.554 200.605 289.908 200.605C287.472 200.605 285.708 202.432 285.393 205.12H283.65V200.836H281.844ZM289.803 209.866C288.018 209.866 287.115 207.955 287.115 205.981C287.115 203.923 288.06 201.991 289.845 201.991C291.651 201.991 292.512 203.965 292.512 205.876C292.512 207.808 291.672 209.866 289.803 209.866ZM305.51 196.09V200.647C302.654 200.878 300.407 202.642 300.407 206.002C300.407 209.173 302.57 211.021 305.51 211.21V215.158H307.19V211.189C310.025 211 312.293 209.236 312.293 205.897C312.293 202.726 310.151 200.857 307.19 200.647V196.09H305.51ZM305.51 209.929C303.494 209.677 302.234 208.039 302.234 205.939C302.234 203.86 303.452 202.18 305.51 201.907V209.929ZM307.19 201.907C309.227 202.201 310.466 203.797 310.466 205.897C310.466 207.976 309.227 209.656 307.19 209.929V201.907ZM318.901 200.605C316.087 200.605 313.861 202.6 313.861 206.002C313.861 209.215 315.982 211.231 318.733 211.231C321.19 211.231 323.794 209.593 323.794 205.834C323.794 202.726 321.82 200.605 318.901 200.605ZM318.859 201.991C321.043 201.991 321.904 204.175 321.904 205.897C321.904 208.186 320.581 209.845 318.817 209.845C317.011 209.845 315.73 208.165 315.73 205.939C315.73 204.007 316.675 201.991 318.859 201.991ZM326.121 215.158H327.948V209.635H327.99C328.599 210.643 329.775 211.231 331.119 211.231C333.513 211.231 335.739 209.425 335.739 205.771C335.739 202.684 333.891 200.605 331.434 200.605C329.775 200.605 328.578 201.34 327.822 202.579H327.78L327.696 200.836H326.037C326.079 201.802 326.121 202.852 326.121 204.154V215.158ZM327.948 205.12C327.948 204.868 328.011 204.595 328.074 204.364C328.431 202.978 329.607 202.075 330.867 202.075C332.82 202.075 333.891 203.818 333.891 205.855C333.891 208.186 332.757 209.782 330.804 209.782C329.481 209.782 328.368 208.9 328.032 207.619C327.99 207.388 327.948 207.136 327.948 206.863V205.12ZM337.426 211H339.127L339.379 206.191C339.442 205.078 339.505 203.734 339.547 202.537H339.631C339.883 203.482 340.324 204.952 340.639 205.918L342.445 210.937H343.789L345.742 205.813C346.309 204.259 346.582 203.44 346.855 202.516H346.918C346.96 203.755 347.044 205.057 347.107 206.149L347.338 211H349.102L348.388 200.836H346.099L344.461 205.267C344.062 206.38 343.495 207.997 343.264 208.753H343.222C342.991 207.955 342.55 206.716 342.298 205.96L340.45 200.836H338.182L337.426 211ZM350.043 200.836L353.802 210.202C353.886 210.433 353.928 210.58 353.928 210.685C353.928 210.79 353.865 210.937 353.781 211.126C353.361 212.071 352.731 212.785 352.227 213.184C351.681 213.646 351.072 213.94 350.61 214.087L351.072 215.641C351.534 215.557 352.437 215.242 353.34 214.444C354.6 213.352 355.503 211.567 356.826 208.081L359.598 200.836H357.645L355.629 206.8C355.377 207.535 355.167 208.312 354.978 208.921H354.936C354.768 208.312 354.516 207.514 354.285 206.842L352.059 200.836H350.043ZM365.366 193.507H361.124L360.578 197.539C360.893 197.497 361.292 197.455 361.775 197.455C363.476 197.455 364.148 198.148 364.148 199.114C364.148 200.122 363.245 200.71 362.3 200.71C361.502 200.71 360.788 200.458 360.431 200.269L360.137 201.319C360.557 201.55 361.418 201.802 362.321 201.802C364.274 201.802 365.597 200.605 365.597 198.988C365.597 197.959 365.072 197.245 364.421 196.888C363.875 196.552 363.182 196.426 362.489 196.426C362.216 196.426 362.006 196.426 361.838 196.447L362.111 194.683H365.366V193.507Z" fill="white"/>
<path d="M100.378 115.937V102.035C101.498 101.839 102.877 101.741 104.515 101.741C106.391 101.741 107.791 102.007 108.715 102.539C109.835 103.141 110.395 104.072 110.395 105.332C110.395 105.976 110.199 106.564 109.807 107.096C109.415 107.628 108.834 108.041 108.064 108.335V108.377C108.904 108.601 109.583 109.014 110.101 109.616C110.619 110.218 110.878 110.96 110.878 111.842C110.878 113.06 110.388 114.068 109.408 114.866C108.33 115.72 106.475 116.147 103.843 116.147C102.485 116.147 101.33 116.077 100.378 115.937ZM103.549 104.156V107.453H104.599C105.439 107.453 106.076 107.299 106.51 106.991C106.958 106.669 107.182 106.242 107.182 105.71C107.182 104.618 106.426 104.072 104.914 104.072C104.34 104.072 103.885 104.1 103.549 104.156ZM103.549 109.742V113.732C103.759 113.76 104.172 113.774 104.788 113.774C105.586 113.774 106.237 113.606 106.741 113.27C107.259 112.934 107.518 112.416 107.518 111.716C107.518 111.044 107.252 110.547 106.72 110.225C106.188 109.903 105.495 109.742 104.641 109.742H103.549ZM112.926 105.731H116.118V108.776C116.678 108.692 117.231 108.65 117.777 108.65C119.051 108.65 120.136 108.944 121.032 109.532C121.942 110.12 122.397 111.023 122.397 112.241C122.397 113.417 121.928 114.334 120.99 114.992C119.898 115.748 118.351 116.126 116.349 116.126C115.131 116.126 113.99 116.063 112.926 115.937V105.731ZM116.097 110.918V113.921C116.461 113.949 116.783 113.963 117.063 113.963C117.665 113.963 118.176 113.837 118.596 113.585C119.016 113.319 119.226 112.906 119.226 112.346C119.226 111.814 119.03 111.429 118.638 111.191C118.246 110.939 117.77 110.813 117.21 110.813C116.79 110.813 116.419 110.848 116.097 110.918ZM123.531 105.731H126.723V116H123.531V105.731ZM129.271 120.158V109.175C129.271 108.167 129.243 107.019 129.187 105.731H131.959L132.106 107.159H132.148C132.932 106.053 134.073 105.5 135.571 105.5C136.747 105.5 137.748 105.976 138.574 106.928C139.414 107.88 139.834 109.147 139.834 110.729C139.834 112.479 139.372 113.837 138.448 114.803C137.524 115.755 136.432 116.231 135.172 116.231C133.94 116.231 133.051 115.839 132.505 115.055H132.463V120.158H129.271ZM132.463 110.183V111.59C132.463 111.828 132.484 112.052 132.526 112.262C132.638 112.696 132.862 113.06 133.198 113.354C133.548 113.634 133.947 113.774 134.395 113.774C135.081 113.774 135.62 113.515 136.012 112.997C136.404 112.465 136.6 111.758 136.6 110.876C136.6 110.022 136.411 109.329 136.033 108.797C135.655 108.265 135.123 107.999 134.437 107.999C133.989 107.999 133.583 108.153 133.219 108.461C132.855 108.755 132.624 109.14 132.526 109.616C132.484 109.784 132.463 109.973 132.463 110.183ZM150.43 109.931V113.522C150.43 114.67 150.486 115.496 150.598 116H147.721L147.532 114.971H147.469C146.783 115.811 145.803 116.231 144.529 116.231C143.535 116.231 142.73 115.923 142.114 115.307C141.512 114.677 141.211 113.935 141.211 113.081C141.211 111.779 141.743 110.799 142.807 110.141C143.885 109.483 145.362 109.154 147.238 109.154V109.028C147.238 108.132 146.615 107.684 145.369 107.684C144.305 107.684 143.36 107.943 142.534 108.461L141.946 106.403C143.052 105.787 144.382 105.479 145.936 105.479C147.532 105.479 148.68 105.885 149.38 106.697C150.08 107.509 150.43 108.587 150.43 109.931ZM147.343 112.262V111.149C145.355 111.149 144.361 111.688 144.361 112.766C144.361 113.158 144.473 113.459 144.697 113.669C144.935 113.879 145.243 113.984 145.621 113.984C145.999 113.984 146.342 113.872 146.65 113.648C146.958 113.424 147.168 113.144 147.28 112.808C147.322 112.64 147.343 112.458 147.343 112.262ZM151.718 105.731H155.246L157.556 109.847H157.892V105.731H160.979V109.847H161.294L163.625 105.731H167.153L163.583 110.162C164.647 110.358 165.445 111.226 165.977 112.766C166.677 114.698 167.083 115.776 167.195 116H164.003C163.835 115.706 163.541 114.922 163.121 113.648C162.715 112.486 162.085 111.905 161.231 111.905H160.979V116H157.892V111.905H157.64C156.772 111.905 156.128 112.486 155.708 113.648C155.232 114.978 154.931 115.762 154.805 116H151.655C151.809 115.678 152.229 114.6 152.915 112.766C153.433 111.226 154.224 110.358 155.288 110.162L151.718 105.731ZM177.39 111.884H170.775C170.817 112.514 171.111 112.997 171.657 113.333C172.203 113.669 172.875 113.837 173.673 113.837C174.709 113.837 175.654 113.69 176.508 113.396L176.928 115.559C175.892 115.993 174.653 116.21 173.211 116.21C171.489 116.21 170.145 115.748 169.179 114.824C168.213 113.886 167.73 112.605 167.73 110.981C167.73 110.071 167.905 109.217 168.255 108.419C168.605 107.607 169.186 106.921 169.998 106.361C170.81 105.787 171.783 105.5 172.917 105.5C174.457 105.5 175.605 105.997 176.361 106.991C177.117 107.985 177.495 109.196 177.495 110.624C177.495 111.072 177.46 111.492 177.39 111.884ZM170.754 109.7H174.534C174.534 109.182 174.394 108.706 174.114 108.272C173.848 107.838 173.386 107.621 172.728 107.621C172.126 107.621 171.657 107.838 171.321 108.272C170.999 108.706 170.81 109.182 170.754 109.7ZM179.391 105.731H182.583V109.448H185.817V105.731H189.009V116H185.817V111.926H182.583V116H179.391V105.731ZM191.552 105.731H194.744V109.448H197.978V105.731H201.17V116H197.978V111.926H194.744V116H191.552V105.731ZM212.282 109.931V113.522C212.282 114.67 212.338 115.496 212.45 116H209.573L209.384 114.971H209.321C208.635 115.811 207.655 116.231 206.381 116.231C205.387 116.231 204.582 115.923 203.966 115.307C203.364 114.677 203.063 113.935 203.063 113.081C203.063 111.779 203.595 110.799 204.659 110.141C205.737 109.483 207.214 109.154 209.09 109.154V109.028C209.09 108.132 208.467 107.684 207.221 107.684C206.157 107.684 205.212 107.943 204.386 108.461L203.798 106.403C204.904 105.787 206.234 105.479 207.788 105.479C209.384 105.479 210.532 105.885 211.232 106.697C211.932 107.509 212.282 108.587 212.282 109.931ZM209.195 112.262V111.149C207.207 111.149 206.213 111.688 206.213 112.766C206.213 113.158 206.325 113.459 206.549 113.669C206.787 113.879 207.095 113.984 207.473 113.984C207.851 113.984 208.194 113.872 208.502 113.648C208.81 113.424 209.02 113.144 209.132 112.808C209.174 112.64 209.195 112.458 209.195 112.262ZM224.024 105.794V116H220.874V112.136H220.223C219.607 112.136 219.117 112.381 218.753 112.871C218.655 112.969 218.557 113.088 218.459 113.228C218.375 113.354 218.291 113.515 218.207 113.711C218.123 113.893 218.053 114.04 217.997 114.152C217.955 114.264 217.892 114.446 217.808 114.698C217.724 114.936 217.668 115.09 217.64 115.16C217.556 115.356 217.423 115.636 217.241 116H213.839C214.049 115.734 214.266 115.356 214.49 114.866C214.504 114.824 214.588 114.607 214.742 114.215C214.91 113.809 215.029 113.522 215.099 113.354C215.183 113.186 215.302 112.962 215.456 112.682C215.61 112.402 215.764 112.185 215.918 112.031C216.31 111.625 216.744 111.373 217.22 111.275V111.212C216.548 111.142 215.939 110.89 215.393 110.456C214.847 110.022 214.574 109.427 214.574 108.671C214.574 107.551 215.155 106.725 216.317 106.193C217.157 105.773 218.417 105.563 220.097 105.563C221.357 105.563 222.666 105.64 224.024 105.794ZM220.874 110.183V107.621C220.51 107.565 220.146 107.537 219.782 107.537C219.222 107.537 218.76 107.649 218.396 107.873C218.046 108.097 217.871 108.433 217.871 108.881C217.871 109.301 218.067 109.63 218.459 109.868C218.851 110.092 219.306 110.204 219.824 110.204C220.006 110.204 220.209 110.204 220.433 110.204C220.657 110.19 220.804 110.183 220.874 110.183ZM238.134 113.375L238.512 115.727C237.84 116.049 236.888 116.21 235.656 116.21C233.99 116.21 232.667 115.741 231.687 114.803C230.707 113.851 230.217 112.57 230.217 110.96C230.217 109.392 230.735 108.09 231.771 107.054C232.807 106.018 234.249 105.5 236.097 105.5C237.007 105.5 237.819 105.633 238.533 105.899L238.029 108.272C237.553 108.062 236.958 107.957 236.244 107.957C235.404 107.957 234.732 108.23 234.228 108.776C233.724 109.308 233.479 109.994 233.493 110.834C233.493 111.73 233.759 112.437 234.291 112.955C234.823 113.459 235.495 113.711 236.307 113.711C237.007 113.711 237.616 113.599 238.134 113.375ZM239.412 105.731H242.961L244.494 110.792C244.718 111.562 244.886 112.199 244.998 112.703H245.082C245.278 111.821 245.425 111.177 245.523 110.771L246.804 105.731H250.206L247.812 112.493C247.112 114.453 246.489 115.93 245.943 116.924C245.397 117.918 244.816 118.688 244.2 119.234C243.276 120.06 242.254 120.529 241.134 120.641L240.441 117.953C240.889 117.855 241.351 117.673 241.827 117.407C242.373 117.113 242.814 116.686 243.15 116.126C243.262 115.944 243.318 115.79 243.318 115.664C243.318 115.51 243.276 115.335 243.192 115.139L239.412 105.731ZM250.65 105.731H254.22L255.228 107.453C255.424 107.803 255.704 108.314 256.068 108.986H256.11C256.404 108.37 256.67 107.845 256.908 107.411L257.811 105.731H261.276L257.895 110.624L261.318 116H257.706L256.677 114.152C256.481 113.816 256.215 113.298 255.879 112.598H255.816C255.746 112.766 255.662 112.941 255.564 113.123C255.48 113.291 255.382 113.48 255.27 113.69C255.172 113.886 255.095 114.04 255.039 114.152L254.073 116H250.566L254.052 110.771L250.65 105.731ZM267.116 105.479C268.67 105.479 269.93 105.969 270.896 106.949C271.862 107.929 272.345 109.196 272.345 110.75C272.345 112.514 271.813 113.872 270.749 114.824C269.699 115.762 268.425 116.231 266.927 116.231C265.387 116.231 264.113 115.755 263.105 114.803C262.111 113.851 261.614 112.563 261.614 110.939C261.614 109.273 262.111 107.95 263.105 106.97C264.113 105.976 265.45 105.479 267.116 105.479ZM267.011 107.768C266.311 107.768 265.786 108.069 265.436 108.671C265.086 109.273 264.911 110.001 264.911 110.855C264.911 111.765 265.093 112.507 265.457 113.081C265.835 113.655 266.353 113.942 267.011 113.942C267.641 113.942 268.138 113.662 268.502 113.102C268.866 112.528 269.048 111.772 269.048 110.834C269.048 109.994 268.873 109.273 268.523 108.671C268.187 108.069 267.683 107.768 267.011 107.768ZM281.652 113.375L282.03 115.727C281.358 116.049 280.406 116.21 279.174 116.21C277.508 116.21 276.185 115.741 275.205 114.803C274.225 113.851 273.735 112.57 273.735 110.96C273.735 109.392 274.253 108.09 275.289 107.054C276.325 106.018 277.767 105.5 279.615 105.5C280.525 105.5 281.337 105.633 282.051 105.899L281.547 108.272C281.071 108.062 280.476 107.957 279.762 107.957C278.922 107.957 278.25 108.23 277.746 108.776C277.242 109.308 276.997 109.994 277.011 110.834C277.011 111.73 277.277 112.437 277.809 112.955C278.341 113.459 279.013 113.711 279.825 113.711C280.525 113.711 281.134 113.599 281.652 113.375ZM283.076 105.731H292.232V108.188H289.25V116H286.058V108.188H283.076V105.731ZM293.64 105.731H296.832V108.776C297.42 108.692 297.959 108.65 298.449 108.65C299.093 108.65 299.688 108.713 300.234 108.839C300.794 108.951 301.312 109.14 301.788 109.406C302.278 109.672 302.663 110.043 302.943 110.519C303.223 110.995 303.363 111.562 303.363 112.22C303.363 113.41 302.894 114.334 301.956 114.992C300.864 115.748 299.233 116.126 297.063 116.126C295.845 116.126 294.704 116.063 293.64 115.937V105.731ZM296.811 110.918V113.9C297.105 113.942 297.462 113.963 297.882 113.963C298.512 113.963 299.051 113.837 299.499 113.585C299.961 113.333 300.192 112.927 300.192 112.367C300.192 111.807 299.954 111.408 299.478 111.17C299.002 110.932 298.456 110.813 297.84 110.813C297.504 110.813 297.161 110.848 296.811 110.918Z" fill="white"/>
<path d="M111.129 258.846V273H112.956V260.379H119.529V273H121.356V258.846H111.129ZM128.783 262.605C125.969 262.605 123.743 264.6 123.743 268.002C123.743 271.215 125.864 273.231 128.615 273.231C131.072 273.231 133.676 271.593 133.676 267.834C133.676 264.726 131.702 262.605 128.783 262.605ZM128.741 263.991C130.925 263.991 131.786 266.175 131.786 267.897C131.786 270.186 130.463 271.845 128.699 271.845C126.893 271.845 125.612 270.165 125.612 267.939C125.612 266.007 126.557 263.991 128.741 263.991ZM136.952 262.836V265.482C136.952 266.91 136.763 268.275 136.364 269.535C136.133 270.27 135.797 270.963 135.356 271.614L134.495 271.635L134.579 276.234H136.028L136.112 273H143.147L143.231 276.234H144.68L144.785 271.635L143.735 271.614V262.836H136.952ZM138.59 264.243H141.929V271.593H137.246C137.561 271.026 137.855 270.396 138.065 269.703C138.401 268.569 138.59 267.267 138.59 265.923V264.243ZM151.218 262.605C148.404 262.605 146.178 264.6 146.178 268.002C146.178 271.215 148.299 273.231 151.05 273.231C153.507 273.231 156.111 271.593 156.111 267.834C156.111 264.726 154.137 262.605 151.218 262.605ZM151.176 263.991C153.36 263.991 154.221 266.175 154.221 267.897C154.221 270.186 152.898 271.845 151.134 271.845C149.328 271.845 148.047 270.165 148.047 267.939C148.047 266.007 148.992 263.991 151.176 263.991ZM158.397 262.836V273H160.518C161.61 271.215 162.723 269.262 163.689 267.687C164.277 266.658 164.718 265.839 165.369 264.537H165.432C165.348 266.175 165.306 267.036 165.306 268.695V273H167.07V262.836H164.907L161.736 268.086C161.064 269.262 160.707 269.976 160.098 271.215L160.035 271.194C160.119 269.745 160.14 268.737 160.14 267.12V262.836H158.397ZM159.993 258.699C160.077 260.148 160.791 261.303 162.639 261.303C164.256 261.303 165.348 260.421 165.432 258.699H164.109C164.004 259.623 163.584 260.295 162.681 260.295C161.841 260.295 161.4 259.602 161.337 258.699H159.993ZM171.159 262.836V265.482C171.159 266.91 170.97 268.275 170.571 269.535C170.34 270.27 170.004 270.963 169.563 271.614L168.702 271.635L168.786 276.234H170.235L170.319 273H177.354L177.438 276.234H178.887L178.992 271.635L177.942 271.614V262.836H171.159ZM172.797 264.243H176.136V271.593H171.453C171.768 271.026 172.062 270.396 172.272 269.703C172.608 268.569 172.797 267.267 172.797 265.923V264.243ZM189.289 268.254C189.31 268.065 189.352 267.771 189.352 267.393C189.352 265.524 188.47 262.605 185.152 262.605C182.191 262.605 180.385 265.02 180.385 268.086C180.385 271.152 182.254 273.21 185.383 273.21C187 273.21 188.113 272.874 188.764 272.58L188.449 271.257C187.756 271.551 186.958 271.782 185.635 271.782C183.787 271.782 182.191 270.753 182.149 268.254H189.289ZM182.17 266.931C182.317 265.65 183.136 263.928 185.005 263.928C187.084 263.928 187.588 265.755 187.567 266.931H182.17ZM190.257 262.836V264.306H193.428V273H195.255V264.306H198.426V262.836H190.257ZM204.601 262.836V273H206.428V264.306H211.153V273H213.001V262.836H204.601ZM216.004 277.158H217.831V271.635H217.873C218.482 272.643 219.658 273.231 221.002 273.231C223.396 273.231 225.622 271.425 225.622 267.771C225.622 264.684 223.774 262.605 221.317 262.605C219.658 262.605 218.461 263.34 217.705 264.579H217.663L217.579 262.836H215.92C215.962 263.802 216.004 264.852 216.004 266.154V277.158ZM217.831 267.12C217.831 266.868 217.894 266.595 217.957 266.364C218.314 264.978 219.49 264.075 220.75 264.075C222.703 264.075 223.774 265.818 223.774 267.855C223.774 270.186 222.64 271.782 220.687 271.782C219.364 271.782 218.251 270.9 217.915 269.619C217.873 269.388 217.831 269.136 217.831 268.863V267.12ZM236.129 268.254C236.15 268.065 236.192 267.771 236.192 267.393C236.192 265.524 235.31 262.605 231.992 262.605C229.031 262.605 227.225 265.02 227.225 268.086C227.225 271.152 229.094 273.21 232.223 273.21C233.84 273.21 234.953 272.874 235.604 272.58L235.289 271.257C234.596 271.551 233.798 271.782 232.475 271.782C230.627 271.782 229.031 270.753 228.989 268.254H236.129ZM229.01 266.931C229.157 265.65 229.976 263.928 231.845 263.928C233.924 263.928 234.428 265.755 234.407 266.931H229.01ZM238.439 262.836V273H240.266V264.306H244.991V273H246.839V262.836H238.439ZM257.15 273C257.024 272.307 256.982 271.446 256.982 270.564V266.763C256.982 264.726 256.226 262.605 253.118 262.605C251.837 262.605 250.619 262.962 249.779 263.508L250.199 264.726C250.913 264.264 251.9 263.97 252.845 263.97C254.924 263.97 255.155 265.482 255.155 266.322V266.532C251.228 266.511 249.044 267.855 249.044 270.312C249.044 271.782 250.094 273.231 252.152 273.231C253.601 273.231 254.693 272.517 255.26 271.719H255.323L255.47 273H257.15ZM255.197 269.577C255.197 269.766 255.155 269.976 255.092 270.165C254.798 271.026 253.958 271.866 252.635 271.866C251.69 271.866 250.892 271.299 250.892 270.102C250.892 268.128 253.181 267.771 255.197 267.813V269.577ZM259.973 277.158H261.8V271.635H261.842C262.451 272.643 263.627 273.231 264.971 273.231C267.365 273.231 269.591 271.425 269.591 267.771C269.591 264.684 267.743 262.605 265.286 262.605C263.627 262.605 262.43 263.34 261.674 264.579H261.632L261.548 262.836H259.889C259.931 263.802 259.973 264.852 259.973 266.154V277.158ZM261.8 267.12C261.8 266.868 261.863 266.595 261.926 266.364C262.283 264.978 263.459 264.075 264.719 264.075C266.672 264.075 267.743 265.818 267.743 267.855C267.743 270.186 266.609 271.782 264.656 271.782C263.333 271.782 262.22 270.9 261.884 269.619C261.842 269.388 261.8 269.136 261.8 268.863V267.12ZM279.237 273C279.111 272.307 279.069 271.446 279.069 270.564V266.763C279.069 264.726 278.313 262.605 275.205 262.605C273.924 262.605 272.706 262.962 271.866 263.508L272.286 264.726C273 264.264 273.987 263.97 274.932 263.97C277.011 263.97 277.242 265.482 277.242 266.322V266.532C273.315 266.511 271.131 267.855 271.131 270.312C271.131 271.782 272.181 273.231 274.239 273.231C275.688 273.231 276.78 272.517 277.347 271.719H277.41L277.557 273H279.237ZM277.284 269.577C277.284 269.766 277.242 269.976 277.179 270.165C276.885 271.026 276.045 271.866 274.722 271.866C273.777 271.866 272.979 271.299 272.979 270.102C272.979 268.128 275.268 267.771 277.284 267.813V269.577ZM280.614 262.836V264.306H283.785V273H285.612V264.306H288.783V262.836H280.614ZM55.5289 299.236C55.0039 299.467 54.3109 299.74 53.2609 299.74C51.2449 299.74 49.7329 298.291 49.7329 295.939C49.7329 293.818 50.9929 292.096 53.3239 292.096C54.3319 292.096 55.0249 292.327 55.4659 292.579L55.8859 291.151C55.3819 290.899 54.4159 290.626 53.3239 290.626C50.0059 290.626 47.8639 292.894 47.8639 296.023C47.8639 299.131 49.8589 301.21 52.9249 301.21C54.2899 301.21 55.3609 300.874 55.8439 300.622L55.5289 299.236ZM62.4202 290.836V301H64.2472V296.401H69.0772V301H70.9042V290.836H69.0772V294.931H64.2472V290.836H62.4202ZM81.2341 301C81.1081 300.307 81.0661 299.446 81.0661 298.564V294.763C81.0661 292.726 80.3101 290.605 77.2021 290.605C75.9211 290.605 74.7031 290.962 73.8631 291.508L74.2831 292.726C74.9971 292.264 75.9841 291.97 76.9291 291.97C79.0081 291.97 79.2391 293.482 79.2391 294.322V294.532C75.3121 294.511 73.1281 295.855 73.1281 298.312C73.1281 299.782 74.1781 301.231 76.2361 301.231C77.6851 301.231 78.7771 300.517 79.3441 299.719H79.4071L79.5541 301H81.2341ZM79.2811 297.577C79.2811 297.766 79.2391 297.976 79.1761 298.165C78.8821 299.026 78.0421 299.866 76.7191 299.866C75.7741 299.866 74.9761 299.299 74.9761 298.102C74.9761 296.128 77.2651 295.771 79.2811 295.813V297.577ZM90.9869 299.236C90.4619 299.467 89.7689 299.74 88.7189 299.74C86.7029 299.74 85.1909 298.291 85.1909 295.939C85.1909 293.818 86.4509 292.096 88.7819 292.096C89.7899 292.096 90.4829 292.327 90.9239 292.579L91.3439 291.151C90.8399 290.899 89.8739 290.626 88.7819 290.626C85.4639 290.626 83.3219 292.894 83.3219 296.023C83.3219 299.131 85.3169 301.21 88.3829 301.21C89.7479 301.21 90.8189 300.874 91.3019 300.622L90.9869 299.236ZM93.428 290.836V300.958C94.184 301.042 95.129 301.105 96.158 301.105C97.502 301.105 99.14 300.874 100.253 299.929C100.904 299.383 101.303 298.648 101.303 297.577C101.303 295.078 99.098 294.175 96.914 294.175C96.242 294.175 95.654 294.217 95.255 294.301V290.836H93.428ZM95.255 295.603C95.633 295.54 96.095 295.498 96.62 295.498C98.006 295.498 99.476 296.002 99.476 297.64C99.476 299.215 97.943 299.803 96.536 299.803C96.011 299.803 95.612 299.761 95.255 299.719V295.603ZM102.584 290.836V301H104.411V290.836H102.584ZM107.394 290.836V301H119.343L119.427 304.234H120.855L120.96 299.635L119.931 299.614V290.836H118.104V299.551H114.555V290.836H112.749V299.551H109.2V290.836H107.394ZM131.252 296.254C131.273 296.065 131.315 295.771 131.315 295.393C131.315 293.524 130.433 290.605 127.115 290.605C124.154 290.605 122.348 293.02 122.348 296.086C122.348 299.152 124.217 301.21 127.346 301.21C128.963 301.21 130.076 300.874 130.727 300.58L130.412 299.257C129.719 299.551 128.921 299.782 127.598 299.782C125.75 299.782 124.154 298.753 124.112 296.254H131.252ZM124.133 294.931C124.28 293.65 125.099 291.928 126.968 291.928C129.047 291.928 129.551 293.755 129.53 294.931H124.133ZM133.562 290.836V301H135.389V296.401H140.219V301H142.046V290.836H140.219V294.931H135.389V290.836H133.562ZM145.026 290.836V301H146.853V296.401H151.683V301H153.51V290.836H151.683V294.931H146.853V290.836H145.026ZM160.837 290.605C158.023 290.605 155.797 292.6 155.797 296.002C155.797 299.215 157.918 301.231 160.669 301.231C163.126 301.231 165.73 299.593 165.73 295.834C165.73 292.726 163.756 290.605 160.837 290.605ZM160.795 291.991C162.979 291.991 163.84 294.175 163.84 295.897C163.84 298.186 162.517 299.845 160.753 299.845C158.947 299.845 157.666 298.165 157.666 295.939C157.666 294.007 158.611 291.991 160.795 291.991ZM168.015 290.836V301H170.136C171.228 299.215 172.341 297.262 173.307 295.687C173.895 294.658 174.336 293.839 174.987 292.537H175.05C174.966 294.175 174.924 295.036 174.924 296.695V301H176.688V290.836H174.525L171.354 296.086C170.682 297.262 170.325 297.976 169.716 299.215L169.653 299.194C169.737 297.745 169.758 296.737 169.758 295.12V290.836H168.015ZM169.611 286.699C169.695 288.148 170.409 289.303 172.257 289.303C173.874 289.303 174.966 288.421 175.05 286.699H173.727C173.622 287.623 173.202 288.295 172.299 288.295C171.459 288.295 171.018 287.602 170.955 286.699H169.611ZM179.811 303.457C180.399 302.47 181.323 300.139 181.806 298.354L179.748 298.564C179.517 300.097 178.95 302.344 178.488 303.583L179.811 303.457ZM187.223 290.836L191.255 295.456C189.722 295.624 188.819 296.527 188.189 298.165C187.832 299.11 187.496 300.181 187.076 301H188.861C189.218 300.37 189.491 299.572 189.827 298.69C190.457 297.031 191.318 296.506 192.746 296.506H193.082V301H194.846V296.506H195.161C196.484 296.506 197.429 297.01 198.059 298.669C198.353 299.551 198.647 300.391 198.983 301H200.831C200.411 300.202 200.075 299.131 199.718 298.144C199.109 296.527 198.206 295.624 196.673 295.456L200.684 290.836H198.563L195.203 295.267H194.846V290.836H193.082V295.267H192.704L189.344 290.836H187.223ZM202.448 290.836V301H204.569C205.661 299.215 206.774 297.262 207.74 295.687C208.328 294.658 208.769 293.839 209.42 292.537H209.483C209.399 294.175 209.357 295.036 209.357 296.695V301H211.121V290.836H208.958L205.787 296.086C205.115 297.262 204.758 297.976 204.149 299.215L204.086 299.194C204.17 297.745 204.191 296.737 204.191 295.12V290.836H202.448ZM214.117 305.158H215.944V299.635H215.986C216.595 300.643 217.771 301.231 219.115 301.231C221.509 301.231 223.735 299.425 223.735 295.771C223.735 292.684 221.887 290.605 219.43 290.605C217.771 290.605 216.574 291.34 215.818 292.579H215.776L215.692 290.836H214.033C214.075 291.802 214.117 292.852 214.117 294.154V305.158ZM215.944 295.12C215.944 294.868 216.007 294.595 216.07 294.364C216.427 292.978 217.603 292.075 218.863 292.075C220.816 292.075 221.887 293.818 221.887 295.855C221.887 298.186 220.753 299.782 218.8 299.782C217.477 299.782 216.364 298.9 216.028 297.619C215.986 297.388 215.944 297.136 215.944 296.863V295.12ZM226.032 290.836V301H227.859V296.401H232.689V301H234.516V290.836H232.689V294.931H227.859V290.836H226.032ZM241.842 290.605C239.028 290.605 236.802 292.6 236.802 296.002C236.802 299.215 238.923 301.231 241.674 301.231C244.131 301.231 246.735 299.593 246.735 295.834C246.735 292.726 244.761 290.605 241.842 290.605ZM241.8 291.991C243.984 291.991 244.845 294.175 244.845 295.897C244.845 298.186 243.522 299.845 241.758 299.845C239.952 299.845 238.671 298.165 238.671 295.939C238.671 294.007 239.616 291.991 241.8 291.991ZM249.021 290.836V301H251.142C252.234 299.215 253.347 297.262 254.313 295.687C254.901 294.658 255.342 293.839 255.993 292.537H256.056C255.972 294.175 255.93 295.036 255.93 296.695V301H257.694V290.836H255.531L252.36 296.086C251.688 297.262 251.331 297.976 250.722 299.215L250.659 299.194C250.743 297.745 250.764 296.737 250.764 295.12V290.836H249.021ZM250.617 286.699C250.701 288.148 251.415 289.303 253.263 289.303C254.88 289.303 255.972 288.421 256.056 286.699H254.733C254.628 287.623 254.208 288.295 253.305 288.295C252.465 288.295 252.024 287.602 251.961 286.699H250.617ZM263.839 290.836V292.306H267.01V301H268.837V292.306H272.008V290.836H263.839ZM281.534 296.254C281.555 296.065 281.597 295.771 281.597 295.393C281.597 293.524 280.715 290.605 277.397 290.605C274.436 290.605 272.63 293.02 272.63 296.086C272.63 299.152 274.499 301.21 277.628 301.21C279.245 301.21 280.358 300.874 281.009 300.58L280.694 299.257C280.001 299.551 279.203 299.782 277.88 299.782C276.032 299.782 274.436 298.753 274.394 296.254H281.534ZM274.415 294.931C274.562 293.65 275.381 291.928 277.25 291.928C279.329 291.928 279.833 293.755 279.812 294.931H274.415ZM283.885 290.836V301H285.712V296.527H286.069C287.791 296.527 288.736 297.283 289.429 298.921C289.744 299.761 290.101 300.559 290.374 301H292.306C291.844 300.181 291.487 299.194 291.214 298.522C290.416 296.695 289.429 295.603 287.791 295.435L292.222 290.836H289.975L286.153 295.246H285.712V290.836H283.885ZM300.741 299.236C300.216 299.467 299.523 299.74 298.473 299.74C296.457 299.74 294.945 298.291 294.945 295.939C294.945 293.818 296.205 292.096 298.536 292.096C299.544 292.096 300.237 292.327 300.678 292.579L301.098 291.151C300.594 290.899 299.628 290.626 298.536 290.626C295.218 290.626 293.076 292.894 293.076 296.023C293.076 299.131 295.071 301.21 298.137 301.21C299.502 301.21 300.573 300.874 301.056 300.622L300.741 299.236ZM302.25 290.836V292.306H305.421V301H307.248V292.306H310.419V290.836H302.25ZM311.129 290.836L314.888 300.202C314.972 300.433 315.014 300.58 315.014 300.685C315.014 300.79 314.951 300.937 314.867 301.126C314.447 302.071 313.817 302.785 313.313 303.184C312.767 303.646 312.158 303.94 311.696 304.087L312.158 305.641C312.62 305.557 313.523 305.242 314.426 304.444C315.686 303.352 316.589 301.567 317.912 298.081L320.684 290.836H318.731L316.715 296.8C316.463 297.535 316.253 298.312 316.064 298.921H316.022C315.854 298.312 315.602 297.514 315.371 296.842L313.145 290.836H311.129ZM322.358 305.158H324.185V299.635H324.227C324.836 300.643 326.012 301.231 327.356 301.231C329.75 301.231 331.976 299.425 331.976 295.771C331.976 292.684 330.128 290.605 327.671 290.605C326.012 290.605 324.815 291.34 324.059 292.579H324.017L323.933 290.836H322.274C322.316 291.802 322.358 292.852 322.358 294.154V305.158ZM324.185 295.12C324.185 294.868 324.248 294.595 324.311 294.364C324.668 292.978 325.844 292.075 327.104 292.075C329.057 292.075 330.128 293.818 330.128 295.855C330.128 298.186 328.994 299.782 327.041 299.782C325.718 299.782 324.605 298.9 324.269 297.619C324.227 297.388 324.185 297.136 324.185 296.863V295.12ZM338.619 290.605C335.805 290.605 333.579 292.6 333.579 296.002C333.579 299.215 335.7 301.231 338.451 301.231C340.908 301.231 343.512 299.593 343.512 295.834C343.512 292.726 341.538 290.605 338.619 290.605ZM338.577 291.991C340.761 291.991 341.622 294.175 341.622 295.897C341.622 298.186 340.299 299.845 338.535 299.845C336.729 299.845 335.448 298.165 335.448 295.939C335.448 294.007 336.393 291.991 338.577 291.991ZM345.797 290.836V301H347.918C349.01 299.215 350.123 297.262 351.089 295.687C351.677 294.658 352.118 293.839 352.769 292.537H352.832C352.748 294.175 352.706 295.036 352.706 296.695V301H354.47V290.836H352.307L349.136 296.086C348.464 297.262 348.107 297.976 347.498 299.215L347.435 299.194C347.519 297.745 347.54 296.737 347.54 295.12V290.836H345.797ZM347.393 286.699C347.477 288.148 348.191 289.303 350.039 289.303C351.656 289.303 352.748 288.421 352.832 286.699H351.509C351.404 287.623 350.984 288.295 350.081 288.295C349.241 288.295 348.8 287.602 348.737 286.699H347.393Z" fill="white"/>
<path d="M97.615 372L97.329 365.292C97.225 362.484 97.173 360.083 97.173 358.09H97.121C96.5143 360.43 95.8556 362.692 95.145 364.876L93.013 371.714H89.919L88.047 364.954C87.4576 362.839 86.929 360.551 86.461 358.09H86.409C86.3223 360.794 86.227 363.212 86.123 365.344L85.785 372H82.119L83.237 354.476H88.515L90.231 360.326C90.8203 362.441 91.3143 364.529 91.713 366.592H91.817C92.3543 364.252 92.909 362.155 93.481 360.3L95.327 354.476H100.527L101.463 372H97.615ZM113.597 367.502H108.579L107.331 372H103.249L108.579 354.476H113.779L119.239 372H114.949L113.597 367.502ZM109.151 364.538H113.025L111.933 360.82C111.777 360.3 111.483 359.173 111.049 357.44H110.997C110.945 357.665 110.824 358.194 110.633 359.026C110.443 359.841 110.295 360.439 110.191 360.82L109.151 364.538ZM121.947 358.402L121.037 355.568C122.632 354.632 124.452 354.164 126.497 354.164C128.369 354.164 129.851 354.589 130.943 355.438C132.035 356.27 132.581 357.345 132.581 358.662C132.581 359.737 132.261 360.629 131.619 361.34C130.978 362.051 130.129 362.536 129.071 362.796V362.848C130.215 363.004 131.177 363.455 131.957 364.2C132.755 364.945 133.153 365.881 133.153 367.008C133.153 367.944 132.937 368.767 132.503 369.478C132.07 370.189 131.489 370.743 130.761 371.142C130.051 371.523 129.288 371.809 128.473 372C127.659 372.191 126.818 372.286 125.951 372.286C123.871 372.286 122.121 371.879 120.699 371.064L121.531 367.996C122.017 368.256 122.658 368.499 123.455 368.724C124.253 368.949 125.024 369.062 125.769 369.062C126.775 369.062 127.563 368.863 128.135 368.464C128.707 368.048 128.993 367.476 128.993 366.748C128.993 365.205 127.763 364.434 125.301 364.434H123.637V361.496H125.301C126.22 361.496 126.974 361.305 127.563 360.924C128.153 360.525 128.447 359.979 128.447 359.286C128.447 358.697 128.213 358.229 127.745 357.882C127.277 357.535 126.627 357.362 125.795 357.362C124.617 357.362 123.334 357.709 121.947 358.402ZM135.83 354.476H139.756V360.586C140.484 360.482 141.195 360.43 141.888 360.43C143.899 360.43 145.563 360.915 146.88 361.886C148.197 362.857 148.856 364.269 148.856 366.124C148.856 367.701 148.388 368.975 147.452 369.946C145.979 371.437 143.535 372.182 140.12 372.182C138.439 372.182 137.009 372.095 135.83 371.922V354.476ZM139.756 363.576V369.114C140.155 369.183 140.64 369.218 141.212 369.218C142.235 369.218 143.067 368.975 143.708 368.49C144.367 367.987 144.696 367.259 144.696 366.306C144.696 365.353 144.375 364.642 143.734 364.174C143.11 363.706 142.287 363.472 141.264 363.472C140.883 363.472 140.38 363.507 139.756 363.576ZM163.46 353.722H167.152V355.256C168.14 355.325 169.058 355.525 169.908 355.854C170.774 356.183 171.572 356.651 172.3 357.258C173.028 357.865 173.6 358.679 174.016 359.702C174.432 360.707 174.64 361.869 174.64 363.186C174.64 364.486 174.432 365.639 174.016 366.644C173.6 367.649 173.028 368.464 172.3 369.088C171.589 369.695 170.8 370.163 169.934 370.492C169.067 370.821 168.122 371.038 167.1 371.142V372.728H163.408V371.142C161.276 370.986 159.49 370.267 158.052 368.984C156.63 367.701 155.92 365.812 155.92 363.316C155.92 361.981 156.145 360.803 156.596 359.78C157.064 358.74 157.67 357.917 158.416 357.31C159.178 356.686 159.984 356.209 160.834 355.88C161.683 355.533 162.558 355.325 163.46 355.256V353.722ZM163.434 368.36V357.986C162.498 358.107 161.674 358.593 160.964 359.442C160.253 360.291 159.898 361.557 159.898 363.238C159.898 364.815 160.253 366.037 160.964 366.904C161.692 367.771 162.515 368.256 163.434 368.36ZM167.126 357.986V368.36C168.062 368.273 168.885 367.814 169.596 366.982C170.306 366.133 170.662 364.867 170.662 363.186C170.662 361.505 170.315 360.248 169.622 359.416C168.928 358.584 168.096 358.107 167.126 357.986ZM187.667 361.366V364.59H181.219V368.75H188.421V372H177.267V354.476H188.057V357.726H181.219V361.366H187.667ZM191.156 354.476H195.108V361.21H201.634V354.476H205.586V372H201.634V364.668H195.108V372H191.156V354.476ZM209.056 354.476H212.696V359.676C212.696 362.467 212.627 365.11 212.488 367.606H212.566C213.537 365.457 214.585 363.377 215.712 361.366L219.482 354.476H223.538V372H219.898V366.826C219.898 363.775 219.993 361.314 220.184 359.442H220.106C219.326 361.435 218.329 363.515 217.116 365.682L213.554 372H209.056V354.476ZM227.007 371.922V354.71C228.394 354.467 230.101 354.346 232.129 354.346C234.452 354.346 236.185 354.675 237.329 355.334C238.716 356.079 239.409 357.232 239.409 358.792C239.409 359.589 239.166 360.317 238.681 360.976C238.196 361.635 237.476 362.146 236.523 362.51V362.562C237.563 362.839 238.404 363.351 239.045 364.096C239.686 364.841 240.007 365.76 240.007 366.852C240.007 368.36 239.4 369.608 238.187 370.596C236.852 371.653 234.556 372.182 231.297 372.182C229.616 372.182 228.186 372.095 227.007 371.922ZM230.933 357.336V361.418H232.233C233.273 361.418 234.062 361.227 234.599 360.846C235.154 360.447 235.431 359.919 235.431 359.26C235.431 357.908 234.495 357.232 232.623 357.232C231.912 357.232 231.349 357.267 230.933 357.336ZM230.933 364.252V369.192C231.193 369.227 231.704 369.244 232.467 369.244C233.455 369.244 234.261 369.036 234.885 368.62C235.526 368.204 235.847 367.563 235.847 366.696C235.847 365.864 235.518 365.249 234.859 364.85C234.2 364.451 233.342 364.252 232.285 364.252H230.933ZM253.124 361.366V364.59H246.676V368.75H253.878V372H242.724V354.476H253.514V357.726H246.676V361.366H253.124ZM256.587 354.476H260.227V359.676C260.227 362.467 260.158 365.11 260.019 367.606H260.097C261.068 365.457 262.116 363.377 263.243 361.366L267.013 354.476H271.069V372H267.429V366.826C267.429 363.775 267.524 361.314 267.715 359.442H267.637C266.857 361.435 265.86 363.515 264.647 365.682L261.085 372H256.587V354.476ZM259.967 350.472H262.645C262.697 351.529 263.087 352.058 263.815 352.058C264.526 352.058 264.924 351.529 265.011 350.472H267.689C267.533 352.604 266.216 353.67 263.737 353.67C261.432 353.67 260.175 352.604 259.967 350.472ZM277.944 372V357.804H273.212V354.476H286.68V357.804H281.896V372H277.944ZM287.456 360.508V359.026L289.068 357.596C290.455 356.348 291.278 355.542 291.538 355.178C291.902 354.71 292.084 354.259 292.084 353.826C292.084 353.445 291.946 353.141 291.668 352.916C291.408 352.691 291.036 352.578 290.55 352.578C289.77 352.578 289.025 352.821 288.314 353.306L287.534 351.33C288.557 350.585 289.822 350.212 291.33 350.212C292.578 350.212 293.549 350.507 294.242 351.096C294.936 351.685 295.282 352.439 295.282 353.358C295.282 353.947 295.118 354.519 294.788 355.074C294.476 355.629 294.147 356.062 293.8 356.374C293.471 356.686 292.968 357.119 292.292 357.674L291.668 358.194V358.246H295.464V360.508H287.456Z" fill="white"/>
<rect x="1" y="1" width="401" height="60" rx="2" stroke="white" stroke-width="2"/>
<rect x="1" y="87" width="401" height="47" rx="2" stroke="white" stroke-width="2"/>
<rect x="0.5" y="159.5" width="402" height="65" rx="2.5" stroke="#D5D5D5" stroke-dasharray="3 2"/>
<rect x="0.5" y="249.5" width="402" height="65" rx="2.5" stroke="#D5D5D5"/>
<path d="M201 61L201 83" stroke="white"/>
<path d="M201 133L201 155" stroke="white"/>
<path d="M201 224L201 246" stroke="#D6D6D6"/>
<path d="M201 315L201 337" stroke="white"/>
<path d="M201 380L201 416" stroke="white"/>
</svg>
