<svg width="403" height="416" viewBox="0 0 403 416" fill="none" xmlns="http://www.w3.org/2000/svg">
<path d="M84.5457 21.937V8.035C85.6657 7.839 87.0447 7.741 88.6827 7.741C90.5587 7.741 91.9587 8.007 92.8827 8.539C94.0027 9.141 94.5627 10.072 94.5627 11.332C94.5627 11.976 94.3667 12.564 93.9747 13.096C93.5827 13.628 93.0017 14.041 92.2317 14.335V14.377C93.0717 14.601 93.7507 15.014 94.2687 15.616C94.7867 16.218 95.0457 16.96 95.0457 17.842C95.0457 19.06 94.5557 20.068 93.5757 20.866C92.4977 21.72 90.6427 22.147 88.0107 22.147C86.6527 22.147 85.4977 22.077 84.5457 21.937ZM87.7167 10.156V13.453H88.7667C89.6067 13.453 90.2437 13.299 90.6777 12.991C91.1257 12.669 91.3497 12.242 91.3497 11.71C91.3497 10.618 90.5937 10.072 89.0817 10.072C88.5077 10.072 88.0527 10.1 87.7167 10.156ZM87.7167 15.742V19.732C87.9267 19.76 88.3397 19.774 88.9557 19.774C89.7537 19.774 90.4047 19.606 90.9087 19.27C91.4267 18.934 91.6857 18.416 91.6857 17.716C91.6857 17.044 91.4197 16.547 90.8877 16.225C90.3557 15.903 89.6627 15.742 88.8087 15.742H87.7167ZM97.6605 11.731H106.039V22H102.847V14.167H100.621V16.057C100.621 17.401 100.516 18.493 100.306 19.333C100.096 20.159 99.7185 20.789 99.1725 21.223C98.5425 21.895 97.5485 22.231 96.1905 22.231L95.8335 19.753C96.3515 19.669 96.7365 19.487 96.9885 19.207C97.2685 18.927 97.4505 18.542 97.5345 18.052C97.6185 17.562 97.6605 16.848 97.6605 15.91V11.731ZM117.125 15.931V19.522C117.125 20.67 117.181 21.496 117.293 22H114.416L114.227 20.971H114.164C113.478 21.811 112.498 22.231 111.224 22.231C110.23 22.231 109.425 21.923 108.809 21.307C108.207 20.677 107.906 19.935 107.906 19.081C107.906 17.779 108.438 16.799 109.502 16.141C110.58 15.483 112.057 15.154 113.933 15.154V15.028C113.933 14.132 113.31 13.684 112.064 13.684C111 13.684 110.055 13.943 109.229 14.461L108.641 12.403C109.747 11.787 111.077 11.479 112.631 11.479C114.227 11.479 115.375 11.885 116.075 12.697C116.775 13.509 117.125 14.587 117.125 15.931ZM114.038 18.262V17.149C112.05 17.149 111.056 17.688 111.056 18.766C111.056 19.158 111.168 19.459 111.392 19.669C111.63 19.879 111.938 19.984 112.316 19.984C112.694 19.984 113.037 19.872 113.345 19.648C113.653 19.424 113.863 19.144 113.975 18.808C114.017 18.64 114.038 18.458 114.038 18.262ZM118.413 11.731H121.941L124.251 15.847H124.587V11.731H127.674V15.847H127.989L130.32 11.731H133.848L130.278 16.162C131.342 16.358 132.14 17.226 132.672 18.766C133.372 20.698 133.778 21.776 133.89 22H130.698C130.53 21.706 130.236 20.922 129.816 19.648C129.41 18.486 128.78 17.905 127.926 17.905H127.674V22H124.587V17.905H124.335C123.467 17.905 122.823 18.486 122.403 19.648C121.927 20.978 121.626 21.762 121.5 22H118.35C118.504 21.678 118.924 20.6 119.61 18.766C120.128 17.226 120.919 16.358 121.983 16.162L118.413 11.731ZM135.135 11.731H138.327V15.448H141.561V11.731H144.753V22H141.561V17.926H138.327V22H135.135V11.731ZM155.865 15.931V19.522C155.865 20.67 155.921 21.496 156.033 22H153.156L152.967 20.971H152.904C152.218 21.811 151.238 22.231 149.964 22.231C148.97 22.231 148.165 21.923 147.549 21.307C146.947 20.677 146.646 19.935 146.646 19.081C146.646 17.779 147.178 16.799 148.242 16.141C149.32 15.483 150.797 15.154 152.673 15.154V15.028C152.673 14.132 152.05 13.684 150.804 13.684C149.74 13.684 148.795 13.943 147.969 14.461L147.381 12.403C148.487 11.787 149.817 11.479 151.371 11.479C152.967 11.479 154.115 11.885 154.815 12.697C155.515 13.509 155.865 14.587 155.865 15.931ZM152.778 18.262V17.149C150.79 17.149 149.796 17.688 149.796 18.766C149.796 19.158 149.908 19.459 150.132 19.669C150.37 19.879 150.678 19.984 151.056 19.984C151.434 19.984 151.777 19.872 152.085 19.648C152.393 19.424 152.603 19.144 152.715 18.808C152.757 18.64 152.778 18.458 152.778 18.262ZM167.607 11.794V22H164.457V18.136H163.806C163.19 18.136 162.7 18.381 162.336 18.871C162.238 18.969 162.14 19.088 162.042 19.228C161.958 19.354 161.874 19.515 161.79 19.711C161.706 19.893 161.636 20.04 161.58 20.152C161.538 20.264 161.475 20.446 161.391 20.698C161.307 20.936 161.251 21.09 161.223 21.16C161.139 21.356 161.006 21.636 160.824 22H157.422C157.632 21.734 157.849 21.356 158.073 20.866C158.087 20.824 158.171 20.607 158.325 20.215C158.493 19.809 158.612 19.522 158.682 19.354C158.766 19.186 158.885 18.962 159.039 18.682C159.193 18.402 159.347 18.185 159.501 18.031C159.893 17.625 160.327 17.373 160.803 17.275V17.212C160.131 17.142 159.522 16.89 158.976 16.456C158.43 16.022 158.157 15.427 158.157 14.671C158.157 13.551 158.738 12.725 159.9 12.193C160.74 11.773 162 11.563 163.68 11.563C164.94 11.563 166.249 11.64 167.607 11.794ZM164.457 16.183V13.621C164.093 13.565 163.729 13.537 163.365 13.537C162.805 13.537 162.343 13.649 161.979 13.873C161.629 14.097 161.454 14.433 161.454 14.881C161.454 15.301 161.65 15.63 162.042 15.868C162.434 16.092 162.889 16.204 163.407 16.204C163.589 16.204 163.792 16.204 164.016 16.204C164.24 16.19 164.387 16.183 164.457 16.183ZM174.367 11.731H177.391V14.881C177.391 15.819 177.335 17.212 177.223 19.06L177.307 19.081C177.447 18.759 177.636 18.276 177.874 17.632C178.126 16.988 178.329 16.491 178.483 16.141L180.478 11.731H184.384V22H181.36V18.871C181.36 18.507 181.423 17.03 181.549 14.44H181.465C181.073 15.532 180.716 16.449 180.394 17.191C180.142 17.737 179.757 18.591 179.239 19.753C178.735 20.915 178.406 21.664 178.252 22H174.367V11.731ZM187.526 11.731H195.905V22H192.713V14.167H190.487V16.057C190.487 17.401 190.382 18.493 190.172 19.333C189.962 20.159 189.584 20.789 189.038 21.223C188.408 21.895 187.414 22.231 186.056 22.231L185.699 19.753C186.217 19.669 186.602 19.487 186.854 19.207C187.134 18.927 187.316 18.542 187.4 18.052C187.484 17.562 187.526 16.848 187.526 15.91V11.731ZM198.423 11.731H201.447V14.881C201.447 15.819 201.391 17.212 201.279 19.06L201.363 19.081C201.503 18.759 201.692 18.276 201.93 17.632C202.182 16.988 202.385 16.491 202.539 16.141L204.534 11.731H208.44V22H205.416V18.871C205.416 18.507 205.479 17.03 205.605 14.44H205.521C205.129 15.532 204.772 16.449 204.45 17.191C204.198 17.737 203.813 18.591 203.295 19.753C202.791 20.915 202.462 21.664 202.308 22H198.423V11.731ZM214.862 22L215.576 11.731H219.65L220.763 15.616C221.085 16.778 221.309 17.639 221.435 18.199H221.498C221.638 17.695 221.911 16.757 222.317 15.385L223.451 11.731H227.483L228.113 22H225.152L224.984 17.884C224.984 17.688 224.97 17.156 224.942 16.288C224.914 15.42 224.893 14.755 224.879 14.293H224.816C224.2 16.393 223.871 17.513 223.829 17.653L222.464 21.832H220.133L218.915 17.758C218.803 17.352 218.523 16.218 218.075 14.356H217.991C217.977 14.664 217.956 15.259 217.928 16.141C217.914 17.023 217.9 17.625 217.886 17.947L217.718 22H214.862ZM235.124 11.479C236.678 11.479 237.938 11.969 238.904 12.949C239.87 13.929 240.353 15.196 240.353 16.75C240.353 18.514 239.821 19.872 238.757 20.824C237.707 21.762 236.433 22.231 234.935 22.231C233.395 22.231 232.121 21.755 231.113 20.803C230.119 19.851 229.622 18.563 229.622 16.939C229.622 15.273 230.119 13.95 231.113 12.97C232.121 11.976 233.458 11.479 235.124 11.479ZM235.019 13.768C234.319 13.768 233.794 14.069 233.444 14.671C233.094 15.273 232.919 16.001 232.919 16.855C232.919 17.765 233.101 18.507 233.465 19.081C233.843 19.655 234.361 19.942 235.019 19.942C235.649 19.942 236.146 19.662 236.51 19.102C236.874 18.528 237.056 17.772 237.056 16.834C237.056 15.994 236.881 15.273 236.531 14.671C236.195 14.069 235.691 13.768 235.019 13.768ZM242.33 11.731H245.522V15.826H245.858L248.462 11.731H252.179L248.399 16.162C249.449 16.344 250.31 17.282 250.982 18.976C251.024 19.074 251.192 19.508 251.486 20.278C251.78 21.048 252.025 21.622 252.221 22H248.882C248.728 21.748 248.42 20.992 247.958 19.732C247.51 18.528 246.803 17.926 245.837 17.926H245.522V22H242.33V11.731ZM253.445 11.731H256.637V15.448H259.871V11.731H263.063V22H259.871V17.926H256.637V22H253.445V11.731ZM264.472 11.731H268.021L269.554 16.792C269.778 17.562 269.946 18.199 270.058 18.703H270.142C270.338 17.821 270.485 17.177 270.583 16.771L271.864 11.731H275.266L272.872 18.493C272.172 20.453 271.549 21.93 271.003 22.924C270.457 23.918 269.876 24.688 269.26 25.234C268.336 26.06 267.314 26.529 266.194 26.641L265.501 23.953C265.949 23.855 266.411 23.673 266.887 23.407C267.433 23.113 267.874 22.686 268.21 22.126C268.322 21.944 268.378 21.79 268.378 21.664C268.378 21.51 268.336 21.335 268.252 21.139L264.472 11.731ZM276.598 11.731H279.769V19.564H282.289V11.731H285.46V19.564H287.98V11.731H291.151V19.753L292.285 19.795L292.138 25.318H289.744L289.639 22H276.598V11.731ZM302.598 15.931V19.522C302.598 20.67 302.654 21.496 302.766 22H299.889L299.7 20.971H299.637C298.951 21.811 297.971 22.231 296.697 22.231C295.703 22.231 294.898 21.923 294.282 21.307C293.68 20.677 293.379 19.935 293.379 19.081C293.379 17.779 293.911 16.799 294.975 16.141C296.053 15.483 297.53 15.154 299.406 15.154V15.028C299.406 14.132 298.783 13.684 297.537 13.684C296.473 13.684 295.528 13.943 294.702 14.461L294.114 12.403C295.22 11.787 296.55 11.479 298.104 11.479C299.7 11.479 300.848 11.885 301.548 12.697C302.248 13.509 302.598 14.587 302.598 15.931ZM299.511 18.262V17.149C297.523 17.149 296.529 17.688 296.529 18.766C296.529 19.158 296.641 19.459 296.865 19.669C297.103 19.879 297.411 19.984 297.789 19.984C298.167 19.984 298.51 19.872 298.818 19.648C299.126 19.424 299.336 19.144 299.448 18.808C299.49 18.64 299.511 18.458 299.511 18.262ZM314.341 11.794V22H311.191V18.136H310.54C309.924 18.136 309.434 18.381 309.07 18.871C308.972 18.969 308.874 19.088 308.776 19.228C308.692 19.354 308.608 19.515 308.524 19.711C308.44 19.893 308.37 20.04 308.314 20.152C308.272 20.264 308.209 20.446 308.125 20.698C308.041 20.936 307.985 21.09 307.957 21.16C307.873 21.356 307.74 21.636 307.558 22H304.156C304.366 21.734 304.583 21.356 304.807 20.866C304.821 20.824 304.905 20.607 305.059 20.215C305.227 19.809 305.346 19.522 305.416 19.354C305.5 19.186 305.619 18.962 305.773 18.682C305.927 18.402 306.081 18.185 306.235 18.031C306.627 17.625 307.061 17.373 307.537 17.275V17.212C306.865 17.142 306.256 16.89 305.71 16.456C305.164 16.022 304.891 15.427 304.891 14.671C304.891 13.551 305.472 12.725 306.634 12.193C307.474 11.773 308.734 11.563 310.414 11.563C311.674 11.563 312.983 11.64 314.341 11.794ZM311.191 16.183V13.621C310.827 13.565 310.463 13.537 310.099 13.537C309.539 13.537 309.077 13.649 308.713 13.873C308.363 14.097 308.188 14.433 308.188 14.881C308.188 15.301 308.384 15.63 308.776 15.868C309.168 16.092 309.623 16.204 310.141 16.204C310.323 16.204 310.526 16.204 310.75 16.204C310.974 16.19 311.121 16.183 311.191 16.183ZM112.628 39.731H122.183V50H118.97V42.188H115.82V50H112.628V39.731ZM129.663 39.479C131.217 39.479 132.477 39.969 133.443 40.949C134.409 41.929 134.892 43.196 134.892 44.75C134.892 46.514 134.36 47.872 133.296 48.824C132.246 49.762 130.972 50.231 129.474 50.231C127.934 50.231 126.66 49.755 125.652 48.803C124.658 47.851 124.161 46.563 124.161 44.939C124.161 43.273 124.658 41.95 125.652 40.97C126.66 39.976 127.997 39.479 129.663 39.479ZM129.558 41.768C128.858 41.768 128.333 42.069 127.983 42.671C127.633 43.273 127.458 44.001 127.458 44.855C127.458 45.765 127.64 46.507 128.004 47.081C128.382 47.655 128.9 47.942 129.558 47.942C130.188 47.942 130.685 47.662 131.049 47.102C131.413 46.528 131.595 45.772 131.595 44.834C131.595 43.994 131.42 43.273 131.07 42.671C130.734 42.069 130.23 41.768 129.558 41.768ZM136.848 49.958V39.836C138.094 39.668 139.473 39.584 140.985 39.584C144.373 39.584 146.067 40.459 146.067 42.209C146.067 42.825 145.857 43.322 145.437 43.7C145.031 44.064 144.541 44.302 143.967 44.414V44.477C144.751 44.603 145.367 44.883 145.815 45.317C146.277 45.737 146.508 46.29 146.508 46.976C146.508 49.09 144.485 50.147 140.439 50.147C139.025 50.147 137.828 50.084 136.848 49.958ZM139.998 41.621V43.742H140.817C142.217 43.742 142.917 43.371 142.917 42.629C142.917 41.915 142.301 41.558 141.069 41.558L139.998 41.621ZM139.977 45.59V48.173C140.201 48.201 140.558 48.215 141.048 48.215C142.504 48.215 143.232 47.774 143.232 46.892C143.232 46.024 142.448 45.59 140.88 45.59H139.977ZM157.528 45.884H150.913C150.955 46.514 151.249 46.997 151.795 47.333C152.341 47.669 153.013 47.837 153.811 47.837C154.847 47.837 155.792 47.69 156.646 47.396L157.066 49.559C156.03 49.993 154.791 50.21 153.349 50.21C151.627 50.21 150.283 49.748 149.317 48.824C148.351 47.886 147.868 46.605 147.868 44.981C147.868 44.071 148.043 43.217 148.393 42.419C148.743 41.607 149.324 40.921 150.136 40.361C150.948 39.787 151.921 39.5 153.055 39.5C154.595 39.5 155.743 39.997 156.499 40.991C157.255 41.985 157.633 43.196 157.633 44.624C157.633 45.072 157.598 45.492 157.528 45.884ZM150.892 43.7H154.672C154.672 43.182 154.532 42.706 154.252 42.272C153.986 41.838 153.524 41.621 152.866 41.621C152.264 41.621 151.795 41.838 151.459 42.272C151.137 42.706 150.948 43.182 150.892 43.7ZM159.551 54.158V43.175C159.551 42.167 159.523 41.019 159.467 39.731H162.239L162.386 41.159H162.428C163.212 40.053 164.353 39.5 165.851 39.5C167.027 39.5 168.028 39.976 168.854 40.928C169.694 41.88 170.114 43.147 170.114 44.729C170.114 46.479 169.652 47.837 168.728 48.803C167.804 49.755 166.712 50.231 165.452 50.231C164.22 50.231 163.331 49.839 162.785 49.055H162.743V54.158H159.551ZM162.743 44.183V45.59C162.743 45.828 162.764 46.052 162.806 46.262C162.918 46.696 163.142 47.06 163.478 47.354C163.828 47.634 164.227 47.774 164.675 47.774C165.361 47.774 165.9 47.515 166.292 46.997C166.684 46.465 166.88 45.758 166.88 44.876C166.88 44.022 166.691 43.329 166.313 42.797C165.935 42.265 165.403 41.999 164.717 41.999C164.269 41.999 163.863 42.153 163.499 42.461C163.135 42.755 162.904 43.14 162.806 43.616C162.764 43.784 162.743 43.973 162.743 44.183ZM170.455 39.731H174.025L175.033 41.453C175.229 41.803 175.509 42.314 175.873 42.986H175.915C176.209 42.37 176.475 41.845 176.713 41.411L177.616 39.731H181.081L177.7 44.624L181.123 50H177.511L176.482 48.152C176.286 47.816 176.02 47.298 175.684 46.598H175.621C175.551 46.766 175.467 46.941 175.369 47.123C175.285 47.291 175.187 47.48 175.075 47.69C174.977 47.886 174.9 48.04 174.844 48.152L173.878 50H170.371L173.857 44.771L170.455 39.731ZM182.457 39.731H185.649V43.448H188.883V39.731H192.075V50H188.883V45.926H185.649V50H182.457V39.731ZM199.553 39.479C201.107 39.479 202.367 39.969 203.333 40.949C204.299 41.929 204.782 43.196 204.782 44.75C204.782 46.514 204.25 47.872 203.186 48.824C202.136 49.762 200.862 50.231 199.364 50.231C197.824 50.231 196.55 49.755 195.542 48.803C194.548 47.851 194.051 46.563 194.051 44.939C194.051 43.273 194.548 41.95 195.542 40.97C196.55 39.976 197.887 39.479 199.553 39.479ZM199.448 41.768C198.748 41.768 198.223 42.069 197.873 42.671C197.523 43.273 197.348 44.001 197.348 44.855C197.348 45.765 197.53 46.507 197.894 47.081C198.272 47.655 198.79 47.942 199.448 47.942C200.078 47.942 200.575 47.662 200.939 47.102C201.303 46.528 201.485 45.772 201.485 44.834C201.485 43.994 201.31 43.273 200.96 42.671C200.624 42.069 200.12 41.768 199.448 41.768ZM214.089 47.375L214.467 49.727C213.795 50.049 212.843 50.21 211.611 50.21C209.945 50.21 208.622 49.741 207.642 48.803C206.662 47.851 206.172 46.57 206.172 44.96C206.172 43.392 206.69 42.09 207.726 41.054C208.762 40.018 210.204 39.5 212.052 39.5C212.962 39.5 213.774 39.633 214.488 39.899L213.984 42.272C213.508 42.062 212.913 41.957 212.199 41.957C211.359 41.957 210.687 42.23 210.183 42.776C209.679 43.308 209.434 43.994 209.448 44.834C209.448 45.73 209.714 46.437 210.246 46.955C210.778 47.459 211.45 47.711 212.262 47.711C212.962 47.711 213.571 47.599 214.089 47.375ZM215.513 39.731H224.669V42.188H221.687V50H218.495V42.188H215.513V39.731ZM226.077 39.731H229.269V42.776C229.857 42.692 230.396 42.65 230.886 42.65C231.53 42.65 232.125 42.713 232.671 42.839C233.231 42.951 233.749 43.14 234.225 43.406C234.715 43.672 235.1 44.043 235.38 44.519C235.66 44.995 235.8 45.562 235.8 46.22C235.8 47.41 235.331 48.334 234.393 48.992C233.301 49.748 231.67 50.126 229.5 50.126C228.282 50.126 227.141 50.063 226.077 49.937V39.731ZM229.248 44.918V47.9C229.542 47.942 229.899 47.963 230.319 47.963C230.949 47.963 231.488 47.837 231.936 47.585C232.398 47.333 232.629 46.927 232.629 46.367C232.629 45.807 232.391 45.408 231.915 45.17C231.439 44.932 230.893 44.813 230.277 44.813C229.941 44.813 229.598 44.848 229.248 44.918ZM241.971 39.731H245.163V43.826H245.499L248.103 39.731H251.82L248.04 44.162C249.09 44.344 249.951 45.282 250.623 46.976C250.665 47.074 250.833 47.508 251.127 48.278C251.421 49.048 251.666 49.622 251.862 50H248.523C248.369 49.748 248.061 48.992 247.599 47.732C247.151 46.528 246.444 45.926 245.478 45.926H245.163V50H241.971V39.731ZM257.878 39.479C259.432 39.479 260.692 39.969 261.658 40.949C262.624 41.929 263.107 43.196 263.107 44.75C263.107 46.514 262.575 47.872 261.511 48.824C260.461 49.762 259.187 50.231 257.689 50.231C256.149 50.231 254.875 49.755 253.867 48.803C252.873 47.851 252.376 46.563 252.376 44.939C252.376 43.273 252.873 41.95 253.867 40.97C254.875 39.976 256.212 39.479 257.878 39.479ZM257.773 41.768C257.073 41.768 256.548 42.069 256.198 42.671C255.848 43.273 255.673 44.001 255.673 44.855C255.673 45.765 255.855 46.507 256.219 47.081C256.597 47.655 257.115 47.942 257.773 47.942C258.403 47.942 258.9 47.662 259.264 47.102C259.628 46.528 259.81 45.772 259.81 44.834C259.81 43.994 259.635 43.273 259.285 42.671C258.949 42.069 258.445 41.768 257.773 41.768ZM263.639 39.731H267.167L269.477 43.847H269.813V39.731H272.9V43.847H273.215L275.546 39.731H279.074L275.504 44.162C276.568 44.358 277.366 45.226 277.898 46.766C278.598 48.698 279.004 49.776 279.116 50H275.924C275.756 49.706 275.462 48.922 275.042 47.648C274.636 46.486 274.006 45.905 273.152 45.905H272.9V50H269.813V45.905H269.561C268.693 45.905 268.049 46.486 267.629 47.648C267.153 48.978 266.852 49.762 266.726 50H263.576C263.73 49.678 264.15 48.6 264.836 46.766C265.354 45.226 266.145 44.358 267.209 44.162L263.639 39.731ZM280.362 39.731H283.386V42.881C283.386 43.819 283.33 45.212 283.218 47.06L283.302 47.081C283.442 46.759 283.631 46.276 283.869 45.632C284.121 44.988 284.324 44.491 284.478 44.141L286.473 39.731H290.379V50H287.355V46.871C287.355 46.507 287.418 45.03 287.544 42.44H287.46C287.068 43.532 286.711 44.449 286.389 45.191C286.137 45.737 285.752 46.591 285.234 47.753C284.73 48.915 284.401 49.664 284.247 50H280.362V39.731Z" fill="white"/>
<path opacity="0.7" d="M94.0875 183H95.8725L94.9905 168.846H92.6595L90.1395 175.692C89.5095 177.477 89.0055 179.031 88.6485 180.459H88.5855C88.2285 178.989 87.7455 177.435 87.1575 175.692L84.7425 168.846H82.4115L81.4245 183H83.1675L83.5455 176.931C83.6715 174.81 83.7765 172.437 83.8185 170.673H83.8605C84.2595 172.353 84.8265 174.18 85.4985 176.175L87.7875 182.916H89.1735L91.6725 176.049C92.3865 174.096 92.9745 172.332 93.4575 170.673H93.5205C93.4995 172.437 93.6255 174.81 93.7305 176.784L94.0875 183ZM102.922 172.605C100.108 172.605 97.8825 174.6 97.8825 178.002C97.8825 181.215 100.003 183.231 102.754 183.231C105.211 183.231 107.815 181.593 107.815 177.834C107.815 174.726 105.841 172.605 102.922 172.605ZM102.88 173.991C105.064 173.991 105.925 176.175 105.925 177.897C105.925 180.186 104.602 181.845 102.838 181.845C101.032 181.845 99.7515 180.165 99.7515 177.939C99.7515 176.007 100.696 173.991 102.88 173.991ZM108.719 172.836L112.751 177.456C111.218 177.624 110.315 178.527 109.685 180.165C109.328 181.11 108.992 182.181 108.572 183H110.357C110.714 182.37 110.987 181.572 111.323 180.69C111.953 179.031 112.814 178.506 114.242 178.506H114.578V183H116.342V178.506H116.657C117.98 178.506 118.925 179.01 119.555 180.669C119.849 181.551 120.143 182.391 120.479 183H122.327C121.907 182.202 121.571 181.131 121.214 180.144C120.605 178.527 119.702 177.624 118.169 177.456L122.18 172.836H120.059L116.699 177.267H116.342V172.836H114.578V177.267H114.2L110.84 172.836H108.719ZM132.032 178.254C132.053 178.065 132.095 177.771 132.095 177.393C132.095 175.524 131.213 172.605 127.895 172.605C124.934 172.605 123.128 175.02 123.128 178.086C123.128 181.152 124.997 183.21 128.126 183.21C129.743 183.21 130.856 182.874 131.507 182.58L131.192 181.257C130.499 181.551 129.701 181.782 128.378 181.782C126.53 181.782 124.934 180.753 124.892 178.254H132.032ZM124.913 176.931C125.06 175.65 125.879 173.928 127.748 173.928C129.827 173.928 130.331 175.755 130.31 176.931H124.913ZM132.999 172.836V174.306H136.17V183H137.997V174.306H141.168V172.836H132.999ZM155.155 167.859C154.462 168.111 153.454 168.279 152.635 168.405C150.661 168.741 149.254 169.392 148.267 170.799C147.175 172.227 146.692 174.117 146.692 176.427C146.692 179.808 147.868 183.231 151.438 183.231C154.42 183.231 156.142 181.173 156.142 177.855C156.142 174.621 154.315 172.836 151.816 172.836C150.367 172.836 148.939 173.655 148.288 175.125H148.225C148.309 174.054 148.687 172.689 149.338 171.765C150.115 170.652 151.312 170.106 152.95 169.854C153.622 169.749 154.546 169.581 155.071 169.392L155.155 167.859ZM154.273 178.002C154.273 179.871 153.517 181.845 151.48 181.845C149.464 181.845 148.645 179.43 148.645 177.75C148.645 176.931 148.813 176.196 149.149 175.587C149.569 174.768 150.346 174.201 151.438 174.201C153.622 174.201 154.273 176.343 154.273 178.002ZM158.438 172.836V182.958C159.194 183.042 160.139 183.105 161.168 183.105C162.512 183.105 164.15 182.874 165.263 181.929C165.914 181.383 166.313 180.648 166.313 179.577C166.313 177.078 164.108 176.175 161.924 176.175C161.252 176.175 160.664 176.217 160.265 176.301V172.836H158.438ZM160.265 177.603C160.643 177.54 161.105 177.498 161.63 177.498C163.016 177.498 164.486 178.002 164.486 179.64C164.486 181.215 162.953 181.803 161.546 181.803C161.021 181.803 160.622 181.761 160.265 181.719V177.603ZM167.594 172.836V183H169.421V172.836H167.594ZM171.082 172.836V174.306H174.253V183H176.08V174.306H179.251V172.836H171.082ZM180.832 172.836V182.958C181.588 183.042 182.533 183.105 183.562 183.105C185.053 183.105 186.859 182.874 187.972 181.929C188.623 181.383 189.043 180.648 189.043 179.598C189.043 176.889 186.628 176.175 184.339 176.175C183.793 176.175 183.079 176.196 182.659 176.28V172.836H180.832ZM182.659 177.603C183.079 177.54 183.499 177.498 183.982 177.498C185.347 177.498 187.195 177.876 187.195 179.64C187.195 181.341 185.41 181.803 184.024 181.803C183.415 181.803 183.016 181.761 182.659 181.719V177.603ZM195.741 172.836V183H197.568V174.306H202.293V183H204.141V172.836H195.741ZM207.145 187.158H208.972V181.635H209.014C209.623 182.643 210.799 183.231 212.143 183.231C214.537 183.231 216.763 181.425 216.763 177.771C216.763 174.684 214.915 172.605 212.458 172.605C210.799 172.605 209.602 173.34 208.846 174.579H208.804L208.72 172.836H207.061C207.103 173.802 207.145 174.852 207.145 176.154V187.158ZM208.972 177.12C208.972 176.868 209.035 176.595 209.098 176.364C209.455 174.978 210.631 174.075 211.891 174.075C213.844 174.075 214.915 175.818 214.915 177.855C214.915 180.186 213.781 181.782 211.828 181.782C210.505 181.782 209.392 180.9 209.056 179.619C209.014 179.388 208.972 179.136 208.972 178.863V177.12ZM223.406 172.605C220.592 172.605 218.366 174.6 218.366 178.002C218.366 181.215 220.487 183.231 223.238 183.231C225.695 183.231 228.299 181.593 228.299 177.834C228.299 174.726 226.325 172.605 223.406 172.605ZM223.364 173.991C225.548 173.991 226.409 176.175 226.409 177.897C226.409 180.186 225.086 181.845 223.322 181.845C221.516 181.845 220.235 180.165 220.235 177.939C220.235 176.007 221.18 173.991 223.364 173.991ZM238.039 172.92C237.157 172.815 235.981 172.71 234.763 172.71C233.44 172.71 232.201 172.92 231.361 173.403C230.584 173.844 230.017 174.558 230.017 175.608C230.017 177.162 231.382 177.981 232.705 178.128V178.191C232.243 178.275 231.865 178.506 231.55 178.779C230.647 179.535 230.395 180.858 229.954 181.845C229.765 182.286 229.555 182.664 229.324 183H231.298C231.445 182.748 231.592 182.475 231.718 182.16C232.117 181.173 232.39 179.913 233.146 179.304C233.545 178.947 234.07 178.737 234.847 178.737H236.212V183H238.039V172.92ZM236.212 177.477C235.792 177.477 235.393 177.477 234.637 177.477C233.545 177.477 231.928 177.015 231.928 175.713C231.928 174.306 233.419 173.949 234.679 173.949C235.33 173.949 235.75 173.991 236.212 174.054V177.477ZM241.002 183C241.548 183.042 242.724 183.126 243.858 183.126C245.853 183.126 249.213 182.79 249.213 180.123C249.213 178.653 248.121 177.813 246.63 177.603V177.561C247.785 177.309 248.751 176.532 248.751 175.272C248.751 173.004 245.937 172.731 244.236 172.731C243.039 172.731 241.716 172.836 241.002 172.962V183ZM242.766 174.096C243.207 174.054 243.585 174.012 244.194 174.012C246.042 174.012 246.924 174.495 246.924 175.503C246.924 176.7 245.517 177.099 244.152 177.099H242.766V174.096ZM242.745 178.317H244.089C245.853 178.317 247.323 178.632 247.323 180.102C247.323 181.572 245.475 181.866 244.236 181.866C243.648 181.866 243.27 181.845 242.745 181.782V178.317ZM252.255 172.836V176.931C252.255 179.199 252.15 180.627 251.205 181.32C250.953 181.53 250.554 181.677 250.197 181.74L250.386 183.189C251.331 183.189 251.898 182.958 252.402 182.559C253.725 181.698 253.998 179.787 253.998 176.931V174.285H257.484V183H259.311V172.836H252.255ZM270.5 178.254C270.521 178.065 270.563 177.771 270.563 177.393C270.563 175.524 269.681 172.605 266.363 172.605C263.402 172.605 261.596 175.02 261.596 178.086C261.596 181.152 263.465 183.21 266.594 183.21C268.211 183.21 269.324 182.874 269.975 182.58L269.66 181.257C268.967 181.551 268.169 181.782 266.846 181.782C264.998 181.782 263.402 180.753 263.36 178.254H270.5ZM263.381 176.931C263.528 175.65 264.347 173.928 266.216 173.928C268.295 173.928 268.799 175.755 268.778 176.931H263.381ZM272.81 172.836V183H274.637V178.401H279.467V183H281.294V172.836H279.467V176.931H274.637V172.836H272.81ZM284.274 172.836V183H286.395C287.487 181.215 288.6 179.262 289.566 177.687C290.154 176.658 290.595 175.839 291.246 174.537H291.309C291.225 176.175 291.183 177.036 291.183 178.695V183H292.947V172.836H290.784L287.613 178.086C286.941 179.262 286.584 179.976 285.975 181.215L285.912 181.194C285.996 179.745 286.017 178.737 286.017 177.12V172.836H284.274ZM304.113 178.254C304.134 178.065 304.176 177.771 304.176 177.393C304.176 175.524 303.294 172.605 299.976 172.605C297.015 172.605 295.209 175.02 295.209 178.086C295.209 181.152 297.078 183.21 300.207 183.21C301.824 183.21 302.937 182.874 303.588 182.58L303.273 181.257C302.58 181.551 301.782 181.782 300.459 181.782C298.611 181.782 297.015 180.753 296.973 178.254H304.113ZM296.994 176.931C297.141 175.65 297.96 173.928 299.829 173.928C301.908 173.928 302.412 175.755 302.391 176.931H296.994ZM305.813 183H307.514L307.766 178.191C307.829 177.078 307.892 175.734 307.934 174.537H308.018C308.27 175.482 308.711 176.952 309.026 177.918L310.832 182.937H312.176L314.129 177.813C314.696 176.259 314.969 175.44 315.242 174.516H315.305C315.347 175.755 315.431 177.057 315.494 178.149L315.725 183H317.489L316.775 172.836H314.486L312.848 177.267C312.449 178.38 311.882 179.997 311.651 180.753H311.609C311.378 179.955 310.937 178.716 310.685 177.96L308.837 172.836H306.569L305.813 183ZM85.296 200.605C82.482 200.605 80.256 202.6 80.256 206.002C80.256 209.215 82.377 211.231 85.128 211.231C87.585 211.231 90.189 209.593 90.189 205.834C90.189 202.726 88.215 200.605 85.296 200.605ZM85.254 201.991C87.438 201.991 88.299 204.175 88.299 205.897C88.299 208.186 86.976 209.845 85.212 209.845C83.406 209.845 82.125 208.165 82.125 205.939C82.125 204.007 83.07 201.991 85.254 201.991ZM99.4464 209.236C98.9214 209.467 98.2284 209.74 97.1784 209.74C95.1624 209.74 93.6504 208.291 93.6504 205.939C93.6504 203.818 94.9104 202.096 97.2414 202.096C98.2494 202.096 98.9424 202.327 99.3834 202.579L99.8034 201.151C99.2994 200.899 98.3334 200.626 97.2414 200.626C93.9234 200.626 91.7814 202.894 91.7814 206.023C91.7814 209.131 93.7764 211.21 96.8424 211.21C98.2074 211.21 99.2784 210.874 99.7614 210.622L99.4464 209.236ZM100.956 200.836V202.306H104.127V211H105.954V202.306H109.125V200.836H100.956ZM110.748 215.158H112.575V209.635H112.617C113.226 210.643 114.402 211.231 115.746 211.231C118.14 211.231 120.366 209.425 120.366 205.771C120.366 202.684 118.518 200.605 116.061 200.605C114.402 200.605 113.205 201.34 112.449 202.579H112.407L112.323 200.836H110.664C110.706 201.802 110.748 202.852 110.748 204.154V215.158ZM112.575 205.12C112.575 204.868 112.638 204.595 112.701 204.364C113.058 202.978 114.234 202.075 115.494 202.075C117.447 202.075 118.518 203.818 118.518 205.855C118.518 208.186 117.384 209.782 115.431 209.782C114.108 209.782 112.995 208.9 112.659 207.619C112.617 207.388 112.575 207.136 112.575 206.863V205.12ZM127.009 200.605C124.195 200.605 121.969 202.6 121.969 206.002C121.969 209.215 124.09 211.231 126.841 211.231C129.298 211.231 131.902 209.593 131.902 205.834C131.902 202.726 129.928 200.605 127.009 200.605ZM126.967 201.991C129.151 201.991 130.012 204.175 130.012 205.897C130.012 208.186 128.689 209.845 126.925 209.845C125.119 209.845 123.838 208.165 123.838 205.939C123.838 204.007 124.783 201.991 126.967 201.991ZM134.187 200.836V211H136.308C137.4 209.215 138.513 207.262 139.479 205.687C140.067 204.658 140.508 203.839 141.159 202.537H141.222C141.138 204.175 141.096 205.036 141.096 206.695V211H142.86V200.836H140.697L137.526 206.086C136.854 207.262 136.497 207.976 135.888 209.215L135.825 209.194C135.909 207.745 135.93 206.737 135.93 205.12V200.836H134.187ZM135.783 196.699C135.867 198.148 136.581 199.303 138.429 199.303C140.046 199.303 141.138 198.421 141.222 196.699H139.899C139.794 197.623 139.374 198.295 138.471 198.295C137.631 198.295 137.19 197.602 137.127 196.699H135.783ZM154.675 196.09V200.647C151.819 200.878 149.572 202.642 149.572 206.002C149.572 209.173 151.735 211.021 154.675 211.21V215.158H156.355V211.189C159.19 211 161.458 209.236 161.458 205.897C161.458 202.726 159.316 200.857 156.355 200.647V196.09H154.675ZM154.675 209.929C152.659 209.677 151.399 208.039 151.399 205.939C151.399 203.86 152.617 202.18 154.675 201.907V209.929ZM156.355 201.907C158.392 202.201 159.631 203.797 159.631 205.897C159.631 207.976 158.392 209.656 156.355 209.929V201.907ZM171.069 211C170.943 210.307 170.901 209.446 170.901 208.564V204.763C170.901 202.726 170.145 200.605 167.037 200.605C165.756 200.605 164.538 200.962 163.698 201.508L164.118 202.726C164.832 202.264 165.819 201.97 166.764 201.97C168.843 201.97 169.074 203.482 169.074 204.322V204.532C165.147 204.511 162.963 205.855 162.963 208.312C162.963 209.782 164.013 211.231 166.071 211.231C167.52 211.231 168.612 210.517 169.179 209.719H169.242L169.389 211H171.069ZM169.116 207.577C169.116 207.766 169.074 207.976 169.011 208.165C168.717 209.026 167.877 209.866 166.554 209.866C165.609 209.866 164.811 209.299 164.811 208.102C164.811 206.128 167.1 205.771 169.116 205.813V207.577ZM174.731 206.359H175.655C177.188 206.359 178.616 206.737 178.616 208.102C178.616 209.11 177.65 209.845 176.117 209.845C175.151 209.845 174.164 209.551 173.429 209.152L172.946 210.391C173.849 210.895 175.046 211.21 176.243 211.21C178.385 211.21 180.632 210.391 180.632 208.186C180.632 206.695 179.372 205.771 177.86 205.645V205.603C178.994 205.372 180.149 204.553 180.149 203.293C180.149 201.319 178.259 200.626 176.705 200.626C175.529 200.626 174.353 200.92 173.324 201.55L173.786 202.684C174.5 202.243 175.424 201.97 176.243 201.97C177.398 201.97 178.217 202.537 178.217 203.44C178.217 204.385 177.167 205.099 175.613 205.099H174.731V206.359ZM182.893 200.836V210.958C183.649 211.042 184.594 211.105 185.623 211.105C186.967 211.105 188.605 210.874 189.718 209.929C190.369 209.383 190.768 208.648 190.768 207.577C190.768 205.078 188.563 204.175 186.379 204.175C185.707 204.175 185.119 204.217 184.72 204.301V200.836H182.893ZM184.72 205.603C185.098 205.54 185.56 205.498 186.085 205.498C187.471 205.498 188.941 206.002 188.941 207.64C188.941 209.215 187.408 209.803 186.001 209.803C185.476 209.803 185.077 209.761 184.72 209.719V205.603ZM192.049 200.836V211H193.876V200.836H192.049ZM202.191 206.359H203.115C204.648 206.359 206.076 206.737 206.076 208.102C206.076 209.11 205.11 209.845 203.577 209.845C202.611 209.845 201.624 209.551 200.889 209.152L200.406 210.391C201.309 210.895 202.506 211.21 203.703 211.21C205.845 211.21 208.092 210.391 208.092 208.186C208.092 206.695 206.832 205.771 205.32 205.645V205.603C206.454 205.372 207.609 204.553 207.609 203.293C207.609 201.319 205.719 200.626 204.165 200.626C202.989 200.626 201.813 200.92 200.784 201.55L201.246 202.684C201.96 202.243 202.884 201.97 203.703 201.97C204.858 201.97 205.677 202.537 205.677 203.44C205.677 204.385 204.627 205.099 203.073 205.099H202.191V206.359ZM217.703 211C217.577 210.307 217.535 209.446 217.535 208.564V204.763C217.535 202.726 216.779 200.605 213.671 200.605C212.39 200.605 211.172 200.962 210.332 201.508L210.752 202.726C211.466 202.264 212.453 201.97 213.398 201.97C215.477 201.97 215.708 203.482 215.708 204.322V204.532C211.781 204.511 209.597 205.855 209.597 208.312C209.597 209.782 210.647 211.231 212.705 211.231C214.154 211.231 215.246 210.517 215.813 209.719H215.876L216.023 211H217.703ZM215.75 207.577C215.75 207.766 215.708 207.976 215.645 208.165C215.351 209.026 214.511 209.866 213.188 209.866C212.243 209.866 211.445 209.299 211.445 208.102C211.445 206.128 213.734 205.771 215.75 205.813V207.577ZM228.296 195.859C227.603 196.111 226.595 196.279 225.776 196.405C223.802 196.741 222.395 197.392 221.408 198.799C220.316 200.227 219.833 202.117 219.833 204.427C219.833 207.808 221.009 211.231 224.579 211.231C227.561 211.231 229.283 209.173 229.283 205.855C229.283 202.621 227.456 200.836 224.957 200.836C223.508 200.836 222.08 201.655 221.429 203.125H221.366C221.45 202.054 221.828 200.689 222.479 199.765C223.256 198.652 224.453 198.106 226.091 197.854C226.763 197.749 227.687 197.581 228.212 197.392L228.296 195.859ZM227.414 206.002C227.414 207.871 226.658 209.845 224.621 209.845C222.605 209.845 221.786 207.43 221.786 205.75C221.786 204.931 221.954 204.196 222.29 203.587C222.71 202.768 223.487 202.201 224.579 202.201C226.763 202.201 227.414 204.343 227.414 206.002ZM235.926 200.605C233.112 200.605 230.886 202.6 230.886 206.002C230.886 209.215 233.007 211.231 235.758 211.231C238.215 211.231 240.819 209.593 240.819 205.834C240.819 202.726 238.845 200.605 235.926 200.605ZM235.884 201.991C238.068 201.991 238.929 204.175 238.929 205.897C238.929 208.186 237.606 209.845 235.842 209.845C234.036 209.845 232.755 208.165 232.755 205.939C232.755 204.007 233.7 201.991 235.884 201.991ZM243.795 200.836V204.931C243.795 207.199 243.69 208.627 242.745 209.32C242.493 209.53 242.094 209.677 241.737 209.74L241.926 211.189C242.871 211.189 243.438 210.958 243.942 210.559C245.265 209.698 245.538 207.787 245.538 204.931V202.285H249.024V211H250.851V200.836H243.795ZM262.041 206.254C262.062 206.065 262.104 205.771 262.104 205.393C262.104 203.524 261.222 200.605 257.904 200.605C254.943 200.605 253.137 203.02 253.137 206.086C253.137 209.152 255.006 211.21 258.135 211.21C259.752 211.21 260.865 210.874 261.516 210.58L261.201 209.257C260.508 209.551 259.71 209.782 258.387 209.782C256.539 209.782 254.943 208.753 254.901 206.254H262.041ZM254.922 204.931C255.069 203.65 255.888 201.928 257.757 201.928C259.836 201.928 260.34 203.755 260.319 204.931H254.922ZM264.35 211C264.896 211.042 266.072 211.126 267.206 211.126C269.201 211.126 272.561 210.79 272.561 208.123C272.561 206.653 271.469 205.813 269.978 205.603V205.561C271.133 205.309 272.099 204.532 272.099 203.272C272.099 201.004 269.285 200.731 267.584 200.731C266.387 200.731 265.064 200.836 264.35 200.962V211ZM266.114 202.096C266.555 202.054 266.933 202.012 267.542 202.012C269.39 202.012 270.272 202.495 270.272 203.503C270.272 204.7 268.865 205.099 267.5 205.099H266.114V202.096ZM266.093 206.317H267.437C269.201 206.317 270.671 206.632 270.671 208.102C270.671 209.572 268.823 209.866 267.584 209.866C266.996 209.866 266.618 209.845 266.093 209.782V206.317ZM282.2 211C282.074 210.307 282.032 209.446 282.032 208.564V204.763C282.032 202.726 281.276 200.605 278.168 200.605C276.887 200.605 275.669 200.962 274.829 201.508L275.249 202.726C275.963 202.264 276.95 201.97 277.895 201.97C279.974 201.97 280.205 203.482 280.205 204.322V204.532C276.278 204.511 274.094 205.855 274.094 208.312C274.094 209.782 275.144 211.231 277.202 211.231C278.651 211.231 279.743 210.517 280.31 209.719H280.373L280.52 211H282.2ZM280.247 207.577C280.247 207.766 280.205 207.976 280.142 208.165C279.848 209.026 279.008 209.866 277.685 209.866C276.74 209.866 275.942 209.299 275.942 208.102C275.942 206.128 278.231 205.771 280.247 205.813V207.577ZM284.981 200.836V211H286.808V206.401H291.638V211H293.465V200.836H291.638V204.931H286.808V200.836H284.981ZM296.445 200.836V211H298.566C299.658 209.215 300.771 207.262 301.737 205.687C302.325 204.658 302.766 203.839 303.417 202.537H303.48C303.396 204.175 303.354 205.036 303.354 206.695V211H305.118V200.836H302.955L299.784 206.086C299.112 207.262 298.755 207.976 298.146 209.215L298.083 209.194C298.167 207.745 298.188 206.737 298.188 205.12V200.836H296.445ZM315.61 200.92C314.728 200.815 313.552 200.71 312.334 200.71C311.011 200.71 309.772 200.92 308.932 201.403C308.155 201.844 307.588 202.558 307.588 203.608C307.588 205.162 308.953 205.981 310.276 206.128V206.191C309.814 206.275 309.436 206.506 309.121 206.779C308.218 207.535 307.966 208.858 307.525 209.845C307.336 210.286 307.126 210.664 306.895 211H308.869C309.016 210.748 309.163 210.475 309.289 210.16C309.688 209.173 309.961 207.913 310.717 207.304C311.116 206.947 311.641 206.737 312.418 206.737H313.783V211H315.61V200.92ZM313.783 205.477C313.363 205.477 312.964 205.477 312.208 205.477C311.116 205.477 309.499 205.015 309.499 203.713C309.499 202.306 310.99 201.949 312.25 201.949C312.901 201.949 313.321 201.991 313.783 202.054V205.477ZM322.71 193.507H318.468L317.922 197.539C318.237 197.497 318.636 197.455 319.119 197.455C320.82 197.455 321.492 198.148 321.492 199.114C321.492 200.122 320.589 200.71 319.644 200.71C318.846 200.71 318.132 200.458 317.775 200.269L317.481 201.319C317.901 201.55 318.762 201.802 319.665 201.802C321.618 201.802 322.941 200.605 322.941 198.988C322.941 197.959 322.416 197.245 321.765 196.888C321.219 196.552 320.526 196.426 319.833 196.426C319.56 196.426 319.35 196.426 319.182 196.447L319.455 194.683H322.71V193.507Z" fill="white"/>
<path d="M36.7219 100.846H48.1459V115H44.9539V103.471H39.9139V115H36.7219V100.846ZM49.5298 104.731H53.0788L54.6118 109.792C54.8358 110.562 55.0038 111.199 55.1158 111.703H55.1998C55.3958 110.821 55.5428 110.177 55.6408 109.771L56.9218 104.731H60.3238L57.9298 111.493C57.2298 113.453 56.6068 114.93 56.0608 115.924C55.5148 116.918 54.9338 117.688 54.3178 118.234C53.3938 119.06 52.3718 119.529 51.2518 119.641L50.5588 116.953C51.0068 116.855 51.4688 116.673 51.9448 116.407C52.4908 116.113 52.9318 115.686 53.2678 115.126C53.3798 114.944 53.4358 114.79 53.4358 114.664C53.4358 114.51 53.3938 114.335 53.3098 114.139L49.5298 104.731ZM62.829 110.695L62.808 108.742H64.341C64.971 108.742 65.447 108.651 65.769 108.469C66.105 108.273 66.273 108.021 66.273 107.713C66.273 107.405 66.119 107.16 65.811 106.978C65.517 106.796 65.09 106.705 64.53 106.705C63.634 106.705 62.766 106.943 61.926 107.419L61.317 105.571C62.479 104.871 63.872 104.521 65.496 104.521C66.602 104.521 67.568 104.745 68.394 105.193C69.22 105.627 69.633 106.32 69.633 107.272C69.633 107.888 69.409 108.385 68.961 108.763C68.527 109.141 68.016 109.4 67.428 109.54V109.624C68.156 109.708 68.779 109.953 69.297 110.359C69.829 110.751 70.095 111.304 70.095 112.018C70.095 112.62 69.934 113.138 69.612 113.572C69.29 114.006 68.856 114.335 68.31 114.559C67.778 114.783 67.239 114.944 66.693 115.042C66.147 115.14 65.587 115.189 65.013 115.189C63.445 115.189 62.108 114.86 61.002 114.202L61.674 112.228C62.5 112.676 63.48 112.914 64.614 112.942C65.258 112.942 65.748 112.844 66.084 112.648C66.42 112.438 66.588 112.172 66.588 111.85C66.588 111.08 65.846 110.695 64.362 110.695H62.829ZM72.0124 104.731H75.2044V107.776C75.7644 107.692 76.3174 107.65 76.8634 107.65C78.1374 107.65 79.2224 107.944 80.1184 108.532C81.0284 109.12 81.4834 110.023 81.4834 111.241C81.4834 112.417 81.0144 113.334 80.0764 113.992C78.9844 114.748 77.4374 115.126 75.4354 115.126C74.2174 115.126 73.0764 115.063 72.0124 114.937V104.731ZM75.1834 109.918V112.921C75.5474 112.949 75.8694 112.963 76.1494 112.963C76.7514 112.963 77.2624 112.837 77.6824 112.585C78.1024 112.319 78.3124 111.906 78.3124 111.346C78.3124 110.814 78.1164 110.429 77.7244 110.191C77.3324 109.939 76.8564 109.813 76.2964 109.813C75.8764 109.813 75.5054 109.848 75.1834 109.918ZM82.6174 104.731H85.8094V115H82.6174V104.731ZM88.3577 119.158V108.175C88.3577 107.167 88.3297 106.019 88.2737 104.731H91.0457L91.1927 106.159H91.2347C92.0187 105.053 93.1597 104.5 94.6577 104.5C95.8337 104.5 96.8347 104.976 97.6607 105.928C98.5007 106.88 98.9207 108.147 98.9207 109.729C98.9207 111.479 98.4587 112.837 97.5347 113.803C96.6107 114.755 95.5187 115.231 94.2587 115.231C93.0267 115.231 92.1377 114.839 91.5917 114.055H91.5497V119.158H88.3577ZM91.5497 109.183V110.59C91.5497 110.828 91.5707 111.052 91.6127 111.262C91.7247 111.696 91.9487 112.06 92.2847 112.354C92.6347 112.634 93.0337 112.774 93.4817 112.774C94.1677 112.774 94.7067 112.515 95.0987 111.997C95.4907 111.465 95.6867 110.758 95.6867 109.876C95.6867 109.022 95.4977 108.329 95.1197 107.797C94.7417 107.265 94.2097 106.999 93.5237 106.999C93.0757 106.999 92.6697 107.153 92.3057 107.461C91.9417 107.755 91.7107 108.14 91.6127 108.616C91.5707 108.784 91.5497 108.973 91.5497 109.183ZM100.887 104.731H104.079V107.776C104.667 107.692 105.206 107.65 105.696 107.65C106.34 107.65 106.935 107.713 107.481 107.839C108.041 107.951 108.559 108.14 109.035 108.406C109.525 108.672 109.91 109.043 110.19 109.519C110.47 109.995 110.61 110.562 110.61 111.22C110.61 112.41 110.141 113.334 109.203 113.992C108.111 114.748 106.48 115.126 104.31 115.126C103.092 115.126 101.951 115.063 100.887 114.937V104.731ZM104.058 109.918V112.9C104.352 112.942 104.709 112.963 105.129 112.963C105.759 112.963 106.298 112.837 106.746 112.585C107.208 112.333 107.439 111.927 107.439 111.367C107.439 110.807 107.201 110.408 106.725 110.17C106.249 109.932 105.703 109.813 105.087 109.813C104.751 109.813 104.408 109.848 104.058 109.918ZM112.536 104.731H115.728V108.826H116.064L118.668 104.731H122.385L118.605 109.162C119.655 109.344 120.516 110.282 121.188 111.976C121.23 112.074 121.398 112.508 121.692 113.278C121.986 114.048 122.231 114.622 122.427 115H119.088C118.934 114.748 118.626 113.992 118.164 112.732C117.716 111.528 117.009 110.926 116.043 110.926H115.728V115H112.536V104.731ZM123.651 104.731H126.675V107.881C126.675 108.819 126.619 110.212 126.507 112.06L126.591 112.081C126.731 111.759 126.92 111.276 127.158 110.632C127.41 109.988 127.613 109.491 127.767 109.141L129.762 104.731H133.668V115H130.644V111.871C130.644 111.507 130.707 110.03 130.833 107.44H130.749C130.357 108.532 130 109.449 129.678 110.191C129.426 110.737 129.041 111.591 128.523 112.753C128.019 113.915 127.69 114.664 127.536 115H123.651V104.731ZM147.777 112.375L148.155 114.727C147.483 115.049 146.531 115.21 145.299 115.21C143.633 115.21 142.31 114.741 141.33 113.803C140.35 112.851 139.86 111.57 139.86 109.96C139.86 108.392 140.378 107.09 141.414 106.054C142.45 105.018 143.892 104.5 145.74 104.5C146.65 104.5 147.462 104.633 148.176 104.899L147.672 107.272C147.196 107.062 146.601 106.957 145.887 106.957C145.047 106.957 144.375 107.23 143.871 107.776C143.367 108.308 143.122 108.994 143.136 109.834C143.136 110.73 143.402 111.437 143.934 111.955C144.466 112.459 145.138 112.711 145.95 112.711C146.65 112.711 147.259 112.599 147.777 112.375ZM152.907 104.731H156.435L158.745 108.847H159.081V104.731H162.168V108.847H162.483L164.814 104.731H168.342L164.772 109.162C165.836 109.358 166.634 110.226 167.166 111.766C167.866 113.698 168.272 114.776 168.384 115H165.192C165.024 114.706 164.73 113.922 164.31 112.648C163.904 111.486 163.274 110.905 162.42 110.905H162.168V115H159.081V110.905H158.829C157.961 110.905 157.317 111.486 156.897 112.648C156.421 113.978 156.12 114.762 155.994 115H152.844C152.998 114.678 153.418 113.6 154.104 111.766C154.622 110.226 155.413 109.358 156.477 109.162L152.907 104.731ZM169.63 104.731H172.654V107.881C172.654 108.819 172.598 110.212 172.486 112.06L172.57 112.081C172.71 111.759 172.899 111.276 173.137 110.632C173.389 109.988 173.592 109.491 173.746 109.141L175.741 104.731H179.647V115H176.623V111.871C176.623 111.507 176.686 110.03 176.812 107.44H176.728C176.336 108.532 175.979 109.449 175.657 110.191C175.405 110.737 175.02 111.591 174.502 112.753C173.998 113.915 173.669 114.664 173.515 115H169.63V104.731ZM183.546 104.731H191.736V112.753L192.87 112.795L192.723 118.318H190.329L190.224 115H183.735L183.588 118.318H181.173L181.089 112.816L182.055 112.753C182.503 112.081 182.846 111.367 183.084 110.611C183.392 109.561 183.546 108.441 183.546 107.251V104.731ZM186.318 107.062V108.259C186.318 109.071 186.192 109.96 185.94 110.926C185.814 111.472 185.576 112.053 185.226 112.669H188.628V107.062H186.318ZM194.568 104.731H197.76V108.826H198.096L200.7 104.731H204.417L200.637 109.162C201.687 109.344 202.548 110.282 203.22 111.976C203.262 112.074 203.43 112.508 203.724 113.278C204.018 114.048 204.263 114.622 204.459 115H201.12C200.966 114.748 200.658 113.992 200.196 112.732C199.748 111.528 199.041 110.926 198.075 110.926H197.76V115H194.568V104.731ZM205.682 104.731H208.706V107.881C208.706 108.819 208.65 110.212 208.538 112.06L208.622 112.081C208.762 111.759 208.951 111.276 209.189 110.632C209.441 109.988 209.644 109.491 209.798 109.141L211.793 104.731H215.699V115H212.675V111.871C212.675 111.507 212.738 110.03 212.864 107.44H212.78C212.388 108.532 212.031 109.449 211.709 110.191C211.457 110.737 211.072 111.591 210.554 112.753C210.05 113.915 209.721 114.664 209.567 115H205.682V104.731ZM217.877 115L218.591 104.731H222.665L223.778 108.616C224.1 109.778 224.324 110.639 224.45 111.199H224.513C224.653 110.695 224.926 109.757 225.332 108.385L226.466 104.731H230.498L231.128 115H228.167L227.999 110.884C227.999 110.688 227.985 110.156 227.957 109.288C227.929 108.42 227.908 107.755 227.894 107.293H227.831C227.215 109.393 226.886 110.513 226.844 110.653L225.479 114.832H223.148L221.93 110.758C221.818 110.352 221.538 109.218 221.09 107.356H221.006C220.992 107.664 220.971 108.259 220.943 109.141C220.929 110.023 220.915 110.625 220.901 110.947L220.733 115H217.877ZM244.881 112.375L245.259 114.727C244.587 115.049 243.635 115.21 242.403 115.21C240.737 115.21 239.414 114.741 238.434 113.803C237.454 112.851 236.964 111.57 236.964 109.96C236.964 108.392 237.482 107.09 238.518 106.054C239.554 105.018 240.996 104.5 242.844 104.5C243.754 104.5 244.566 104.633 245.28 104.899L244.776 107.272C244.3 107.062 243.705 106.957 242.991 106.957C242.151 106.957 241.479 107.23 240.975 107.776C240.471 108.308 240.226 108.994 240.24 109.834C240.24 110.73 240.506 111.437 241.038 111.955C241.57 112.459 242.242 112.711 243.054 112.711C243.754 112.711 244.363 112.599 244.881 112.375ZM251.797 104.479C253.351 104.479 254.611 104.969 255.577 105.949C256.543 106.929 257.026 108.196 257.026 109.75C257.026 111.514 256.494 112.872 255.43 113.824C254.38 114.762 253.106 115.231 251.608 115.231C250.068 115.231 248.794 114.755 247.786 113.803C246.792 112.851 246.295 111.563 246.295 109.939C246.295 108.273 246.792 106.95 247.786 105.97C248.794 104.976 250.131 104.479 251.797 104.479ZM251.692 106.768C250.992 106.768 250.467 107.069 250.117 107.671C249.767 108.273 249.592 109.001 249.592 109.855C249.592 110.765 249.774 111.507 250.138 112.081C250.516 112.655 251.034 112.942 251.692 112.942C252.322 112.942 252.819 112.662 253.183 112.102C253.547 111.528 253.729 110.772 253.729 109.834C253.729 108.994 253.554 108.273 253.204 107.671C252.868 107.069 252.364 106.768 251.692 106.768ZM260.061 104.731H268.251V112.753L269.385 112.795L269.238 118.318H266.844L266.739 115H260.25L260.103 118.318H257.688L257.604 112.816L258.57 112.753C259.018 112.081 259.361 111.367 259.599 110.611C259.907 109.561 260.061 108.441 260.061 107.251V104.731ZM262.833 107.062V108.259C262.833 109.071 262.707 109.96 262.455 110.926C262.329 111.472 262.091 112.053 261.741 112.669H265.143V107.062H262.833ZM280.093 110.884H273.478C273.52 111.514 273.814 111.997 274.36 112.333C274.906 112.669 275.578 112.837 276.376 112.837C277.412 112.837 278.357 112.69 279.211 112.396L279.631 114.559C278.595 114.993 277.356 115.21 275.914 115.21C274.192 115.21 272.848 114.748 271.882 113.824C270.916 112.886 270.433 111.605 270.433 109.981C270.433 109.071 270.608 108.217 270.958 107.419C271.308 106.607 271.889 105.921 272.701 105.361C273.513 104.787 274.486 104.5 275.62 104.5C277.16 104.5 278.308 104.997 279.064 105.991C279.82 106.985 280.198 108.196 280.198 109.624C280.198 110.072 280.163 110.492 280.093 110.884ZM273.457 108.7H277.237C277.237 108.182 277.097 107.706 276.817 107.272C276.551 106.838 276.089 106.621 275.431 106.621C274.829 106.621 274.36 106.838 274.024 107.272C273.702 107.706 273.513 108.182 273.457 108.7ZM282.115 119.158V108.175C282.115 107.167 282.087 106.019 282.031 104.731H284.803L284.95 106.159H284.992C285.776 105.053 286.917 104.5 288.415 104.5C289.591 104.5 290.592 104.976 291.418 105.928C292.258 106.88 292.678 108.147 292.678 109.729C292.678 111.479 292.216 112.837 291.292 113.803C290.368 114.755 289.276 115.231 288.016 115.231C286.784 115.231 285.895 114.839 285.349 114.055H285.307V119.158H282.115ZM285.307 109.183V110.59C285.307 110.828 285.328 111.052 285.37 111.262C285.482 111.696 285.706 112.06 286.042 112.354C286.392 112.634 286.791 112.774 287.239 112.774C287.925 112.774 288.464 112.515 288.856 111.997C289.248 111.465 289.444 110.758 289.444 109.876C289.444 109.022 289.255 108.329 288.877 107.797C288.499 107.265 287.967 106.999 287.281 106.999C286.833 106.999 286.427 107.153 286.063 107.461C285.699 107.755 285.468 108.14 285.37 108.616C285.328 108.784 285.307 108.973 285.307 109.183ZM293.222 104.731H296.75L299.06 108.847H299.396V104.731H302.483V108.847H302.798L305.129 104.731H308.657L305.087 109.162C306.151 109.358 306.949 110.226 307.481 111.766C308.181 113.698 308.587 114.776 308.699 115H305.507C305.339 114.706 305.045 113.922 304.625 112.648C304.219 111.486 303.589 110.905 302.735 110.905H302.483V115H299.396V110.905H299.144C298.276 110.905 297.632 111.486 297.212 112.648C296.736 113.978 296.435 114.762 296.309 115H293.159C293.313 114.678 293.733 113.6 294.419 111.766C294.937 110.226 295.728 109.358 296.792 109.162L293.222 104.731ZM309.944 104.731H312.968V107.881C312.968 108.819 312.912 110.212 312.8 112.06L312.884 112.081C313.024 111.759 313.213 111.276 313.451 110.632C313.703 109.988 313.906 109.491 314.06 109.141L316.055 104.731H319.961V115H316.937V111.871C316.937 111.507 317 110.03 317.126 107.44H317.042C316.65 108.532 316.293 109.449 315.971 110.191C315.719 110.737 315.334 111.591 314.816 112.753C314.312 113.915 313.983 114.664 313.829 115H309.944V104.731ZM322.138 115L322.852 104.731H326.926L328.039 108.616C328.361 109.778 328.585 110.639 328.711 111.199H328.774C328.914 110.695 329.187 109.757 329.593 108.385L330.727 104.731H334.759L335.389 115H332.428L332.26 110.884C332.26 110.688 332.246 110.156 332.218 109.288C332.19 108.42 332.169 107.755 332.155 107.293H332.092C331.476 109.393 331.147 110.513 331.105 110.653L329.74 114.832H327.409L326.191 110.758C326.079 110.352 325.799 109.218 325.351 107.356H325.267C325.253 107.664 325.232 108.259 325.204 109.141C325.19 110.023 325.176 110.625 325.162 110.947L324.994 115H322.138ZM337.548 104.731H340.74V107.776C341.3 107.692 341.853 107.65 342.399 107.65C343.673 107.65 344.758 107.944 345.654 108.532C346.564 109.12 347.019 110.023 347.019 111.241C347.019 112.417 346.55 113.334 345.612 113.992C344.52 114.748 342.973 115.126 340.971 115.126C339.753 115.126 338.612 115.063 337.548 114.937V104.731ZM340.719 109.918V112.921C341.083 112.949 341.405 112.963 341.685 112.963C342.287 112.963 342.798 112.837 343.218 112.585C343.638 112.319 343.848 111.906 343.848 111.346C343.848 110.814 343.652 110.429 343.26 110.191C342.868 109.939 342.392 109.813 341.832 109.813C341.412 109.813 341.041 109.848 340.719 109.918ZM348.153 104.731H351.345V115H348.153V104.731ZM353.536 115L354.25 104.731H358.324L359.437 108.616C359.759 109.778 359.983 110.639 360.109 111.199H360.172C360.312 110.695 360.585 109.757 360.991 108.385L362.125 104.731H366.157L366.787 115H363.826L363.658 110.884C363.658 110.688 363.644 110.156 363.616 109.288C363.588 108.42 363.567 107.755 363.553 107.293H363.49C362.874 109.393 362.545 110.513 362.503 110.653L361.138 114.832H358.807L357.589 110.758C357.477 110.352 357.197 109.218 356.749 107.356H356.665C356.651 107.664 356.63 108.259 356.602 109.141C356.588 110.023 356.574 110.625 356.56 110.947L356.392 115H353.536Z" fill="white"/>
<path d="M111.129 258.846V273H112.956V260.379H119.529V273H121.356V258.846H111.129ZM128.783 262.605C125.969 262.605 123.743 264.6 123.743 268.002C123.743 271.215 125.864 273.231 128.615 273.231C131.072 273.231 133.676 271.593 133.676 267.834C133.676 264.726 131.702 262.605 128.783 262.605ZM128.741 263.991C130.925 263.991 131.786 266.175 131.786 267.897C131.786 270.186 130.463 271.845 128.699 271.845C126.893 271.845 125.612 270.165 125.612 267.939C125.612 266.007 126.557 263.991 128.741 263.991ZM136.952 262.836V265.482C136.952 266.91 136.763 268.275 136.364 269.535C136.133 270.27 135.797 270.963 135.356 271.614L134.495 271.635L134.579 276.234H136.028L136.112 273H143.147L143.231 276.234H144.68L144.785 271.635L143.735 271.614V262.836H136.952ZM138.59 264.243H141.929V271.593H137.246C137.561 271.026 137.855 270.396 138.065 269.703C138.401 268.569 138.59 267.267 138.59 265.923V264.243ZM151.218 262.605C148.404 262.605 146.178 264.6 146.178 268.002C146.178 271.215 148.299 273.231 151.05 273.231C153.507 273.231 156.111 271.593 156.111 267.834C156.111 264.726 154.137 262.605 151.218 262.605ZM151.176 263.991C153.36 263.991 154.221 266.175 154.221 267.897C154.221 270.186 152.898 271.845 151.134 271.845C149.328 271.845 148.047 270.165 148.047 267.939C148.047 266.007 148.992 263.991 151.176 263.991ZM158.397 262.836V273H160.518C161.61 271.215 162.723 269.262 163.689 267.687C164.277 266.658 164.718 265.839 165.369 264.537H165.432C165.348 266.175 165.306 267.036 165.306 268.695V273H167.07V262.836H164.907L161.736 268.086C161.064 269.262 160.707 269.976 160.098 271.215L160.035 271.194C160.119 269.745 160.14 268.737 160.14 267.12V262.836H158.397ZM159.993 258.699C160.077 260.148 160.791 261.303 162.639 261.303C164.256 261.303 165.348 260.421 165.432 258.699H164.109C164.004 259.623 163.584 260.295 162.681 260.295C161.841 260.295 161.4 259.602 161.337 258.699H159.993ZM171.159 262.836V265.482C171.159 266.91 170.97 268.275 170.571 269.535C170.34 270.27 170.004 270.963 169.563 271.614L168.702 271.635L168.786 276.234H170.235L170.319 273H177.354L177.438 276.234H178.887L178.992 271.635L177.942 271.614V262.836H171.159ZM172.797 264.243H176.136V271.593H171.453C171.768 271.026 172.062 270.396 172.272 269.703C172.608 268.569 172.797 267.267 172.797 265.923V264.243ZM189.289 268.254C189.31 268.065 189.352 267.771 189.352 267.393C189.352 265.524 188.47 262.605 185.152 262.605C182.191 262.605 180.385 265.02 180.385 268.086C180.385 271.152 182.254 273.21 185.383 273.21C187 273.21 188.113 272.874 188.764 272.58L188.449 271.257C187.756 271.551 186.958 271.782 185.635 271.782C183.787 271.782 182.191 270.753 182.149 268.254H189.289ZM182.17 266.931C182.317 265.65 183.136 263.928 185.005 263.928C187.084 263.928 187.588 265.755 187.567 266.931H182.17ZM190.257 262.836V264.306H193.428V273H195.255V264.306H198.426V262.836H190.257ZM204.601 262.836V273H206.428V264.306H211.153V273H213.001V262.836H204.601ZM216.004 277.158H217.831V271.635H217.873C218.482 272.643 219.658 273.231 221.002 273.231C223.396 273.231 225.622 271.425 225.622 267.771C225.622 264.684 223.774 262.605 221.317 262.605C219.658 262.605 218.461 263.34 217.705 264.579H217.663L217.579 262.836H215.92C215.962 263.802 216.004 264.852 216.004 266.154V277.158ZM217.831 267.12C217.831 266.868 217.894 266.595 217.957 266.364C218.314 264.978 219.49 264.075 220.75 264.075C222.703 264.075 223.774 265.818 223.774 267.855C223.774 270.186 222.64 271.782 220.687 271.782C219.364 271.782 218.251 270.9 217.915 269.619C217.873 269.388 217.831 269.136 217.831 268.863V267.12ZM236.129 268.254C236.15 268.065 236.192 267.771 236.192 267.393C236.192 265.524 235.31 262.605 231.992 262.605C229.031 262.605 227.225 265.02 227.225 268.086C227.225 271.152 229.094 273.21 232.223 273.21C233.84 273.21 234.953 272.874 235.604 272.58L235.289 271.257C234.596 271.551 233.798 271.782 232.475 271.782C230.627 271.782 229.031 270.753 228.989 268.254H236.129ZM229.01 266.931C229.157 265.65 229.976 263.928 231.845 263.928C233.924 263.928 234.428 265.755 234.407 266.931H229.01ZM238.439 262.836V273H240.266V264.306H244.991V273H246.839V262.836H238.439ZM257.15 273C257.024 272.307 256.982 271.446 256.982 270.564V266.763C256.982 264.726 256.226 262.605 253.118 262.605C251.837 262.605 250.619 262.962 249.779 263.508L250.199 264.726C250.913 264.264 251.9 263.97 252.845 263.97C254.924 263.97 255.155 265.482 255.155 266.322V266.532C251.228 266.511 249.044 267.855 249.044 270.312C249.044 271.782 250.094 273.231 252.152 273.231C253.601 273.231 254.693 272.517 255.26 271.719H255.323L255.47 273H257.15ZM255.197 269.577C255.197 269.766 255.155 269.976 255.092 270.165C254.798 271.026 253.958 271.866 252.635 271.866C251.69 271.866 250.892 271.299 250.892 270.102C250.892 268.128 253.181 267.771 255.197 267.813V269.577ZM259.973 277.158H261.8V271.635H261.842C262.451 272.643 263.627 273.231 264.971 273.231C267.365 273.231 269.591 271.425 269.591 267.771C269.591 264.684 267.743 262.605 265.286 262.605C263.627 262.605 262.43 263.34 261.674 264.579H261.632L261.548 262.836H259.889C259.931 263.802 259.973 264.852 259.973 266.154V277.158ZM261.8 267.12C261.8 266.868 261.863 266.595 261.926 266.364C262.283 264.978 263.459 264.075 264.719 264.075C266.672 264.075 267.743 265.818 267.743 267.855C267.743 270.186 266.609 271.782 264.656 271.782C263.333 271.782 262.22 270.9 261.884 269.619C261.842 269.388 261.8 269.136 261.8 268.863V267.12ZM279.237 273C279.111 272.307 279.069 271.446 279.069 270.564V266.763C279.069 264.726 278.313 262.605 275.205 262.605C273.924 262.605 272.706 262.962 271.866 263.508L272.286 264.726C273 264.264 273.987 263.97 274.932 263.97C277.011 263.97 277.242 265.482 277.242 266.322V266.532C273.315 266.511 271.131 267.855 271.131 270.312C271.131 271.782 272.181 273.231 274.239 273.231C275.688 273.231 276.78 272.517 277.347 271.719H277.41L277.557 273H279.237ZM277.284 269.577C277.284 269.766 277.242 269.976 277.179 270.165C276.885 271.026 276.045 271.866 274.722 271.866C273.777 271.866 272.979 271.299 272.979 270.102C272.979 268.128 275.268 267.771 277.284 267.813V269.577ZM280.614 262.836V264.306H283.785V273H285.612V264.306H288.783V262.836H280.614ZM66.1315 299.236C65.6065 299.467 64.9135 299.74 63.8635 299.74C61.8475 299.74 60.3355 298.291 60.3355 295.939C60.3355 293.818 61.5955 292.096 63.9265 292.096C64.9345 292.096 65.6275 292.327 66.0685 292.579L66.4885 291.151C65.9845 290.899 65.0185 290.626 63.9265 290.626C60.6085 290.626 58.4665 292.894 58.4665 296.023C58.4665 299.131 60.4615 301.21 63.5275 301.21C64.8925 301.21 65.9635 300.874 66.4465 300.622L66.1315 299.236ZM73.6317 290.836V294.931C73.6317 297.199 73.5267 298.627 72.5817 299.32C72.3297 299.53 71.9307 299.677 71.5737 299.74L71.7627 301.189C72.7077 301.189 73.2747 300.958 73.7787 300.559C75.1017 299.698 75.3747 297.787 75.3747 294.931V292.285H78.8607V301H80.6877V290.836H73.6317ZM91.8773 296.254C91.8983 296.065 91.9403 295.771 91.9403 295.393C91.9403 293.524 91.0583 290.605 87.7403 290.605C84.7793 290.605 82.9733 293.02 82.9733 296.086C82.9733 299.152 84.8423 301.21 87.9713 301.21C89.5883 301.21 90.7013 300.874 91.3523 300.58L91.0373 299.257C90.3443 299.551 89.5463 299.782 88.2233 299.782C86.3753 299.782 84.7793 298.753 84.7373 296.254H91.8773ZM84.7583 294.931C84.9053 293.65 85.7243 291.928 87.5933 291.928C89.6723 291.928 90.1763 293.755 90.1553 294.931H84.7583ZM94.1868 290.836V301H96.0138V292.327H100.424V290.836H94.1868ZM102.165 290.836V301H103.992V296.527H104.349C106.071 296.527 107.016 297.283 107.709 298.921C108.024 299.761 108.381 300.559 108.654 301H110.586C110.124 300.181 109.767 299.194 109.494 298.522C108.696 296.695 107.709 295.603 106.071 295.435L110.502 290.836H108.255L104.433 295.246H103.992V290.836H102.165ZM116.396 290.605C113.582 290.605 111.356 292.6 111.356 296.002C111.356 299.215 113.477 301.231 116.228 301.231C118.685 301.231 121.289 299.593 121.289 295.834C121.289 292.726 119.315 290.605 116.396 290.605ZM116.354 291.991C118.538 291.991 119.399 294.175 119.399 295.897C119.399 298.186 118.076 299.845 116.312 299.845C114.506 299.845 113.225 298.165 113.225 295.939C113.225 294.007 114.17 291.991 116.354 291.991ZM123.574 290.836V301H125.695C126.787 299.215 127.9 297.262 128.866 295.687C129.454 294.658 129.895 293.839 130.546 292.537H130.609C130.525 294.175 130.483 295.036 130.483 296.695V301H132.247V290.836H130.084L126.913 296.086C126.241 297.262 125.884 297.976 125.275 299.215L125.212 299.194C125.296 297.745 125.317 296.737 125.317 295.12V290.836H123.574ZM125.17 286.699C125.254 288.148 125.968 289.303 127.816 289.303C129.433 289.303 130.525 288.421 130.609 286.699H129.286C129.181 287.623 128.761 288.295 127.858 288.295C127.018 288.295 126.577 287.602 126.514 286.699H125.17ZM135.37 303.457C135.958 302.47 136.882 300.139 137.365 298.354L135.307 298.564C135.076 300.097 134.509 302.344 134.047 303.583L135.37 303.457ZM144 290.836V301H145.827V296.401H150.657V301H152.484V290.836H150.657V294.931H145.827V290.836H144ZM163.675 296.254C163.696 296.065 163.738 295.771 163.738 295.393C163.738 293.524 162.856 290.605 159.538 290.605C156.577 290.605 154.771 293.02 154.771 296.086C154.771 299.152 156.64 301.21 159.769 301.21C161.386 301.21 162.499 300.874 163.15 300.58L162.835 299.257C162.142 299.551 161.344 299.782 160.021 299.782C158.173 299.782 156.577 298.753 156.535 296.254H163.675ZM156.556 294.931C156.703 293.65 157.522 291.928 159.391 291.928C161.47 291.928 161.974 293.755 161.953 294.931H156.556ZM164.767 290.836L168.799 295.456C167.266 295.624 166.363 296.527 165.733 298.165C165.376 299.11 165.04 300.181 164.62 301H166.405C166.762 300.37 167.035 299.572 167.371 298.69C168.001 297.031 168.862 296.506 170.29 296.506H170.626V301H172.39V296.506H172.705C174.028 296.506 174.973 297.01 175.603 298.669C175.897 299.551 176.191 300.391 176.527 301H178.375C177.955 300.202 177.619 299.131 177.262 298.144C176.653 296.527 175.75 295.624 174.217 295.456L178.228 290.836H176.107L172.747 295.267H172.39V290.836H170.626V295.267H170.248L166.888 290.836H164.767ZM179.991 290.836V301H182.112C183.204 299.215 184.317 297.262 185.283 295.687C185.871 294.658 186.312 293.839 186.963 292.537H187.026C186.942 294.175 186.9 295.036 186.9 296.695V301H188.664V290.836H186.501L183.33 296.086C182.658 297.262 182.301 297.976 181.692 299.215L181.629 299.194C181.713 297.745 181.734 296.737 181.734 295.12V290.836H179.991ZM191.661 305.158H193.488V299.635H193.53C194.139 300.643 195.315 301.231 196.659 301.231C199.053 301.231 201.279 299.425 201.279 295.771C201.279 292.684 199.431 290.605 196.974 290.605C195.315 290.605 194.118 291.34 193.362 292.579H193.32L193.236 290.836H191.577C191.619 291.802 191.661 292.852 191.661 294.154V305.158ZM193.488 295.12C193.488 294.868 193.551 294.595 193.614 294.364C193.971 292.978 195.147 292.075 196.407 292.075C198.36 292.075 199.431 293.818 199.431 295.855C199.431 298.186 198.297 299.782 196.344 299.782C195.021 299.782 193.908 298.9 193.572 297.619C193.53 297.388 193.488 297.136 193.488 296.863V295.12ZM203.575 290.836V301H205.402V296.401H210.232V301H212.059V290.836H210.232V294.931H205.402V290.836H203.575ZM219.386 290.605C216.572 290.605 214.346 292.6 214.346 296.002C214.346 299.215 216.467 301.231 219.218 301.231C221.675 301.231 224.279 299.593 224.279 295.834C224.279 292.726 222.305 290.605 219.386 290.605ZM219.344 291.991C221.528 291.991 222.389 294.175 222.389 295.897C222.389 298.186 221.066 299.845 219.302 299.845C217.496 299.845 216.215 298.165 216.215 295.939C216.215 294.007 217.16 291.991 219.344 291.991ZM226.565 290.836V301H228.686C229.778 299.215 230.891 297.262 231.857 295.687C232.445 294.658 232.886 293.839 233.537 292.537H233.6C233.516 294.175 233.474 295.036 233.474 296.695V301H235.238V290.836H233.075L229.904 296.086C229.232 297.262 228.875 297.976 228.266 299.215L228.203 299.194C228.287 297.745 228.308 296.737 228.308 295.12V290.836H226.565ZM228.161 286.699C228.245 288.148 228.959 289.303 230.807 289.303C232.424 289.303 233.516 288.421 233.6 286.699H232.277C232.172 287.623 231.752 288.295 230.849 288.295C230.009 288.295 229.568 287.602 229.505 286.699H228.161ZM249.615 299.236C249.09 299.467 248.397 299.74 247.347 299.74C245.331 299.74 243.819 298.291 243.819 295.939C243.819 293.818 245.079 292.096 247.41 292.096C248.418 292.096 249.111 292.327 249.552 292.579L249.972 291.151C249.468 290.899 248.502 290.626 247.41 290.626C244.092 290.626 241.95 292.894 241.95 296.023C241.95 299.131 243.945 301.21 247.011 301.21C248.376 301.21 249.447 300.874 249.93 300.622L249.615 299.236ZM251.124 290.836V292.306H254.295V301H256.122V292.306H259.293V290.836H251.124ZM260.916 305.158H262.743V299.635H262.785C263.394 300.643 264.57 301.231 265.914 301.231C268.308 301.231 270.534 299.425 270.534 295.771C270.534 292.684 268.686 290.605 266.229 290.605C264.57 290.605 263.373 291.34 262.617 292.579H262.575L262.491 290.836H260.832C260.874 291.802 260.916 292.852 260.916 294.154V305.158ZM262.743 295.12C262.743 294.868 262.806 294.595 262.869 294.364C263.226 292.978 264.402 292.075 265.662 292.075C267.615 292.075 268.686 293.818 268.686 295.855C268.686 298.186 267.552 299.782 265.599 299.782C264.276 299.782 263.163 298.9 262.827 297.619C262.785 297.388 262.743 297.136 262.743 296.863V295.12ZM271.323 290.836L275.082 300.202C275.166 300.433 275.208 300.58 275.208 300.685C275.208 300.79 275.145 300.937 275.061 301.126C274.641 302.071 274.011 302.785 273.507 303.184C272.961 303.646 272.352 303.94 271.89 304.087L272.352 305.641C272.814 305.557 273.717 305.242 274.62 304.444C275.88 303.352 276.783 301.567 278.106 298.081L280.878 290.836H278.925L276.909 296.8C276.657 297.535 276.447 298.312 276.258 298.921H276.216C276.048 298.312 275.796 297.514 275.565 296.842L273.339 290.836H271.323ZM282.552 290.836V301H284.379V296.527H284.736C286.458 296.527 287.403 297.283 288.096 298.921C288.411 299.761 288.768 300.559 289.041 301H290.973C290.511 300.181 290.154 299.194 289.881 298.522C289.083 296.695 288.096 295.603 286.458 295.435L290.889 290.836H288.642L284.82 295.246H284.379V290.836H282.552ZM291.648 290.836V292.306H294.819V301H296.646V292.306H299.817V290.836H291.648ZM300.526 290.836L304.285 300.202C304.369 300.433 304.411 300.58 304.411 300.685C304.411 300.79 304.348 300.937 304.264 301.126C303.844 302.071 303.214 302.785 302.71 303.184C302.164 303.646 301.555 303.94 301.093 304.087L301.555 305.641C302.017 305.557 302.92 305.242 303.823 304.444C305.083 303.352 305.986 301.567 307.309 298.081L310.081 290.836H308.128L306.112 296.8C305.86 297.535 305.65 298.312 305.461 298.921H305.419C305.251 298.312 304.999 297.514 304.768 296.842L302.542 290.836H300.526ZM311.755 305.158H313.582V299.635H313.624C314.233 300.643 315.409 301.231 316.753 301.231C319.147 301.231 321.373 299.425 321.373 295.771C321.373 292.684 319.525 290.605 317.068 290.605C315.409 290.605 314.212 291.34 313.456 292.579H313.414L313.33 290.836H311.671C311.713 291.802 311.755 292.852 311.755 294.154V305.158ZM313.582 295.12C313.582 294.868 313.645 294.595 313.708 294.364C314.065 292.978 315.241 292.075 316.501 292.075C318.454 292.075 319.525 293.818 319.525 295.855C319.525 298.186 318.391 299.782 316.438 299.782C315.115 299.782 314.002 298.9 313.666 297.619C313.624 297.388 313.582 297.136 313.582 296.863V295.12ZM328.016 290.605C325.202 290.605 322.976 292.6 322.976 296.002C322.976 299.215 325.097 301.231 327.848 301.231C330.305 301.231 332.909 299.593 332.909 295.834C332.909 292.726 330.935 290.605 328.016 290.605ZM327.974 291.991C330.158 291.991 331.019 294.175 331.019 295.897C331.019 298.186 329.696 299.845 327.932 299.845C326.126 299.845 324.845 298.165 324.845 295.939C324.845 294.007 325.79 291.991 327.974 291.991ZM335.195 290.836V301H337.316C338.408 299.215 339.521 297.262 340.487 295.687C341.075 294.658 341.516 293.839 342.167 292.537H342.23C342.146 294.175 342.104 295.036 342.104 296.695V301H343.868V290.836H341.705L338.534 296.086C337.862 297.262 337.505 297.976 336.896 299.215L336.833 299.194C336.917 297.745 336.938 296.737 336.938 295.12V290.836H335.195ZM336.791 286.699C336.875 288.148 337.589 289.303 339.437 289.303C341.054 289.303 342.146 288.421 342.23 286.699H340.907C340.802 287.623 340.382 288.295 339.479 288.295C338.639 288.295 338.198 287.602 338.135 286.699H336.791Z" fill="white"/>
<path d="M99.6522 354.476H103.552V361.782H103.916L108.726 354.476H113.536L107.426 362.276C108.483 362.536 109.315 363.013 109.922 363.706C110.529 364.399 111.031 365.327 111.43 366.488C112.366 369.279 113.042 371.116 113.458 372H109.194C108.969 371.549 108.518 370.267 107.842 368.152C107.495 367.008 107.062 366.141 106.542 365.552C106.039 364.963 105.294 364.668 104.306 364.668H103.552V372H99.6522V354.476ZM115.368 372V354.71C116.79 354.467 118.575 354.346 120.724 354.346C123.116 354.346 124.902 354.814 126.08 355.75C127.328 356.721 127.952 358.073 127.952 359.806C127.952 361.609 127.415 362.995 126.34 363.966C125.006 365.197 123.108 365.812 120.646 365.812C120.074 365.812 119.624 365.777 119.294 365.708V372H115.368ZM119.294 357.492V362.666C119.589 362.735 120.031 362.77 120.62 362.77C121.678 362.77 122.51 362.519 123.116 362.016C123.723 361.513 124.026 360.82 124.026 359.936C124.026 359.121 123.749 358.489 123.194 358.038C122.657 357.587 121.894 357.362 120.906 357.362C120.144 357.362 119.606 357.405 119.294 357.492ZM140.902 361.366V364.59H134.454V368.75H141.656V372H130.502V354.476H141.292V357.726H134.454V361.366H140.902ZM159.47 372L159.184 365.292C159.08 362.484 159.028 360.083 159.028 358.09H158.976C158.37 360.43 157.711 362.692 157 364.876L154.868 371.714H151.774L149.902 364.954C149.313 362.839 148.784 360.551 148.316 358.09H148.264C148.178 360.794 148.082 363.212 147.978 365.344L147.64 372H143.974L145.092 354.476H150.37L152.086 360.326C152.676 362.441 153.17 364.529 153.568 366.592H153.672C154.21 364.252 154.764 362.155 155.336 360.3L157.182 354.476H162.382L163.318 372H159.47ZM178.343 353.722H182.035V355.256C183.023 355.325 183.941 355.525 184.791 355.854C185.657 356.183 186.455 356.651 187.183 357.258C187.911 357.865 188.483 358.679 188.899 359.702C189.315 360.707 189.523 361.869 189.523 363.186C189.523 364.486 189.315 365.639 188.899 366.644C188.483 367.649 187.911 368.464 187.183 369.088C186.472 369.695 185.683 370.163 184.817 370.492C183.95 370.821 183.005 371.038 181.983 371.142V372.728H178.291V371.142C176.159 370.986 174.373 370.267 172.935 368.984C171.513 367.701 170.803 365.812 170.803 363.316C170.803 361.981 171.028 360.803 171.479 359.78C171.947 358.74 172.553 357.917 173.299 357.31C174.061 356.686 174.867 356.209 175.717 355.88C176.566 355.533 177.441 355.325 178.343 355.256V353.722ZM178.317 368.36V357.986C177.381 358.107 176.557 358.593 175.847 359.442C175.136 360.291 174.781 361.557 174.781 363.238C174.781 364.815 175.136 366.037 175.847 366.904C176.575 367.771 177.398 368.256 178.317 368.36ZM182.009 357.986V368.36C182.945 368.273 183.768 367.814 184.479 366.982C185.189 366.133 185.545 364.867 185.545 363.186C185.545 361.505 185.198 360.248 184.505 359.416C183.811 358.584 182.979 358.107 182.009 357.986ZM202.55 361.366V364.59H196.102V368.75H203.304V372H192.15V354.476H202.94V357.726H196.102V361.366H202.55ZM206.039 354.476H209.991V361.21H216.517V354.476H220.469V372H216.517V364.668H209.991V372H206.039V354.476ZM223.939 354.476H227.579V359.676C227.579 362.467 227.509 365.11 227.371 367.606H227.449C228.419 365.457 229.468 363.377 230.595 361.366L234.365 354.476H238.421V372H234.781V366.826C234.781 363.775 234.876 361.314 235.067 359.442H234.989C234.209 361.435 233.212 363.515 231.999 365.682L228.437 372H223.939V354.476ZM241.89 371.922V354.71C243.276 354.467 244.984 354.346 247.012 354.346C249.334 354.346 251.068 354.675 252.212 355.334C253.598 356.079 254.292 357.232 254.292 358.792C254.292 359.589 254.049 360.317 253.564 360.976C253.078 361.635 252.359 362.146 251.406 362.51V362.562C252.446 362.839 253.286 363.351 253.928 364.096C254.569 364.841 254.89 365.76 254.89 366.852C254.89 368.36 254.283 369.608 253.07 370.596C251.735 371.653 249.438 372.182 246.18 372.182C244.498 372.182 243.068 372.095 241.89 371.922ZM245.816 357.336V361.418H247.116C248.156 361.418 248.944 361.227 249.482 360.846C250.036 360.447 250.314 359.919 250.314 359.26C250.314 357.908 249.378 357.232 247.506 357.232C246.795 357.232 246.232 357.267 245.816 357.336ZM245.816 364.252V369.192C246.076 369.227 246.587 369.244 247.35 369.244C248.338 369.244 249.144 369.036 249.768 368.62C250.409 368.204 250.73 367.563 250.73 366.696C250.73 365.864 250.4 365.249 249.742 364.85C249.083 364.451 248.225 364.252 247.168 364.252H245.816ZM268.007 361.366V364.59H261.559V368.75H268.761V372H257.607V354.476H268.397V357.726H261.559V361.366H268.007ZM271.47 354.476H275.11V359.676C275.11 362.467 275.041 365.11 274.902 367.606H274.98C275.951 365.457 276.999 363.377 278.126 361.366L281.896 354.476H285.952V372H282.312V366.826C282.312 363.775 282.407 361.314 282.598 359.442H282.52C281.74 361.435 280.743 363.515 279.53 365.682L275.968 372H271.47V354.476ZM274.85 350.472H277.528C277.58 351.529 277.97 352.058 278.698 352.058C279.409 352.058 279.807 351.529 279.894 350.472H282.572C282.416 352.604 281.099 353.67 278.62 353.67C276.315 353.67 275.058 352.604 274.85 350.472ZM292.827 372V357.804H288.095V354.476H301.563V357.804H296.779V372H292.827ZM302.339 360.508V359.026L303.951 357.596C305.338 356.348 306.161 355.542 306.421 355.178C306.785 354.71 306.967 354.259 306.967 353.826C306.967 353.445 306.829 353.141 306.551 352.916C306.291 352.691 305.919 352.578 305.433 352.578C304.653 352.578 303.908 352.821 303.197 353.306L302.417 351.33C303.44 350.585 304.705 350.212 306.213 350.212C307.461 350.212 308.432 350.507 309.125 351.096C309.819 351.685 310.165 352.439 310.165 353.358C310.165 353.947 310.001 354.519 309.671 355.074C309.359 355.629 309.03 356.062 308.683 356.374C308.354 356.686 307.851 357.119 307.175 357.674L306.551 358.194V358.246H310.347V360.508H302.339Z" fill="white"/>
<rect x="1" y="1" width="401" height="60" rx="2" stroke="white" stroke-width="2"/>
<rect x="1" y="87" width="401" height="47" rx="2" stroke="white" stroke-width="2"/>
<rect x="0.5" y="159.5" width="402" height="65" rx="2.5" stroke="#D5D5D5" stroke-dasharray="3 2"/>
<rect x="0.5" y="249.5" width="402" height="65" rx="2.5" stroke="#D5D5D5"/>
<path d="M201 61L201 83" stroke="white"/>
<path d="M201 133L201 155" stroke="white"/>
<path d="M201 224L201 246" stroke="#D6D6D6"/>
<path d="M201 315L201 337" stroke="white"/>
<path d="M201 380L201 416" stroke="white"/>
</svg>
